<?xml version="1.0" encoding="UTF-8"?>
<svg id="_圖層_1" data-name="圖層_1" xmlns="http://www.w3.org/2000/svg" version="1.1" viewBox="0 0 309.38 163.44">
  <!-- Generator: Adobe Illustrator 29.1.0, SVG Export Plug-In . SVG Version: 2.1.0 Build 142)  -->
  <defs>
    <style>
      .st0 {
        fill: #1e2c65;
      }
    </style>
  </defs>
  <g>
    <g>
      <path class="st0" d="M0,29.55L39.45,13.38s36.63,28.6,78.98,22.22c24.33-3.66,35-10.45,50.59-17.98,11.73-5.67,31.4-14.42,49.13-16.72,46.69-6.07,80.97,20.01,89.07,30.1l-39.45,16.17s-35.22-39.24-95.82-23.54C124.37,35.95,78.68,47.95,0,29.55Z"/>
      <g>
        <path class="st0" d="M118.44,59.16c1.78-.27,3.48-.55,5.12-.85-1.77.31-3.56.61-5.36.89.08-.01.16-.02.24-.03Z"/>
        <path class="st0" d="M39.45,36.94L0,53.11c49.6,11.59,86.08,11.11,118.19,6.09-42.25,6.23-78.74-22.25-78.74-22.25Z"/>
      </g>
    </g>
    <path class="st0" d="M291.33,41.22l-22.26,9.12-2.23.92-1.61-1.8c-.2-.22-17.77-19.33-48.88-24.69-17.25,2.64-35.98,10.94-47.31,16.41-14.45,6.98-24.68,13.31-45.47,17.12,16.79-2.92,32.49-7,48.4-11.12,60.61-15.7,95.82,23.54,95.82,23.54l39.45-16.17c-2.65-3.3-8.13-8.31-15.9-13.34Z"/>
  </g>
  <g>
    <path class="st0" d="M3.94,83.38h31.37v2.41H3.94v-2.41ZM4.09,111.28h31.09v2.59H4.09v-2.59ZM4.37,97.06h30.45v5.25h-3.58v-2.84H7.81v2.84h-3.44v-5.25ZM6.71,87.14h25.81v2.27H6.71v-2.27ZM7.56,107.63h24.46v2.27H7.56v-2.27ZM8.02,100.64h22.83v2.09H8.02v-2.09ZM8.09,90.57h23.18v5.32H8.09v-5.32ZM9.44,106.88c-.07-.26-.19-.65-.35-1.17-.17-.52-.32-.96-.46-1.31.57-.05,1.21-.19,1.92-.43.24-.09.64-.27,1.21-.51s1.19-.56,1.86-.92c.67-.37,1.31-.76,1.9-1.19l2.62.92c-1.13.76-2.3,1.42-3.49,1.99-1.19.57-2.33,1-3.42,1.31v.04c-.59.26-1.03.49-1.33.69-.3.2-.44.4-.44.58ZM9.44,106.88v-1.74l1.6-.82,17.19-.25c.05.31.11.66.2,1.05.08.39.16.71.23.97-3.31.07-6.06.14-8.26.2-2.2.06-3.98.11-5.33.14-1.36.04-2.41.08-3.16.12-.74.05-1.29.09-1.63.14-.34.05-.62.11-.83.18ZM11.6,92.49v1.45h15.95v-1.45h-15.95ZM17.52,81.46h3.86v7.09h-3.86v-7.09ZM17.52,105.32h3.86v7.23h-3.86v-7.23ZM22.98,102.91l2.2-1.63c.83.38,1.67.83,2.53,1.35.86.52,1.68,1.05,2.46,1.59.78.54,1.43,1.04,1.95,1.49l-2.27,1.84c-.5-.47-1.13-.99-1.9-1.56-.77-.57-1.59-1.12-2.46-1.67-.88-.54-1.71-1.02-2.52-1.42Z"/>
    <path class="st0" d="M44.04,87.7h29.1v17.48h-3.97v-13.72h-21.3v13.9h-3.83v-17.65ZM46.02,99.58h25.38v3.76h-25.38v-3.76ZM56.48,81.5h4.01v33.08h-4.01v-33.08Z"/>
    <path class="st0" d="M82.47,83.06h30.17v31.66h-3.76v-28.22h-22.79v28.22h-3.62v-31.66ZM84.74,109.75h26.2v3.44h-26.2v-3.44ZM87.15,104.15c1.32-.17,2.88-.37,4.68-.62,1.8-.25,3.65-.5,5.57-.76l.07,2.55c-1.75.28-3.48.57-5.19.85-1.71.28-3.29.54-4.73.78l-.39-2.8ZM87.54,90.36h20.07v2.69h-20.07v-2.69ZM88.56,94.79h7.94v6.81h-7.94v-6.81ZM91.05,96.88v2.66h2.84v-2.66h-2.84ZM103.67,94.22l2.94.6c-.87,3.19-2.16,5.99-3.86,8.38-1.7,2.4-3.72,4.37-6.06,5.9-.14-.19-.34-.43-.58-.73s-.51-.59-.78-.89c-.27-.29-.51-.53-.73-.69,2.27-1.3,4.17-3.02,5.69-5.16,1.52-2.14,2.65-4.61,3.39-7.43ZM97.32,87.1h3.19c.07,2.29.21,4.5.41,6.63.2,2.13.48,4.05.83,5.76.35,1.71.78,3.1,1.28,4.15.5,1.05,1.08,1.65,1.74,1.79.24.07.42-.22.57-.87.14-.65.26-1.51.35-2.57.19.19.43.41.71.66.28.25.58.47.89.67.31.2.57.36.78.48-.26,2.1-.79,3.53-1.58,4.27s-1.74.87-2.85.37c-1.16-.33-2.11-1.13-2.85-2.41-.75-1.28-1.35-2.9-1.81-4.86-.46-1.96-.82-4.15-1.06-6.56-.25-2.41-.44-4.92-.58-7.52ZM101.93,88.16l1.7-1.7c.61.28,1.26.64,1.95,1.08s1.21.84,1.56,1.22l-1.77,1.88c-.35-.4-.86-.83-1.51-1.29-.65-.46-1.29-.86-1.93-1.19Z"/>
    <path class="st0" d="M121.28,82.92h8.12v3.4h-4.86v28.18h-3.26v-31.59ZM128.23,82.92h.6l.53-.14,2.34,1.31c-.42,1.49-.91,3.07-1.45,4.75-.54,1.68-1.06,3.23-1.56,4.64,1.06,1.44,1.76,2.79,2.09,4.04.33,1.25.5,2.41.5,3.47s-.11,2.01-.34,2.76c-.23.76-.6,1.34-1.12,1.74-.26.21-.55.37-.87.48s-.66.2-1.01.27c-.31.02-.66.04-1.05.05-.39.01-.79,0-1.19-.02-.02-.43-.1-.94-.23-1.54s-.33-1.13-.58-1.58c.33.02.63.04.89.04h.71c.4-.02.72-.13.96-.32.21-.17.37-.45.48-.85.11-.4.16-.87.16-1.42,0-.9-.17-1.92-.5-3.07s-.99-2.38-1.99-3.71c.26-.78.51-1.62.76-2.53s.49-1.82.73-2.73c.24-.91.46-1.77.66-2.57.2-.8.36-1.5.48-2.09v-.99ZM135,81.53l2.84.64c-.64,1.91-1.48,3.72-2.53,5.41-1.05,1.69-2.19,3.1-3.42,4.24-.24-.24-.6-.55-1.08-.96-.49-.4-.89-.71-1.22-.92,1.21-1.02,2.28-2.26,3.23-3.72.94-1.46,1.68-3.02,2.2-4.68ZM134.68,105.57l3.4,1.1c-.42.76-.92,1.53-1.47,2.32-.56.79-1.12,1.55-1.7,2.29s-1.13,1.37-1.65,1.91c-.24-.19-.54-.41-.9-.66-.37-.25-.74-.49-1.12-.73-.38-.24-.72-.43-1.03-.57.8-.73,1.61-1.62,2.43-2.66.82-1.04,1.49-2.04,2.04-3.01ZM130.43,92.45c.73-.07,1.51-.15,2.34-.23.83-.08,1.75-.18,2.77-.3l.07,2.06c-.87.17-1.69.32-2.45.46-.76.14-1.54.27-2.34.39l-.39-2.38ZM139.51,84.12h.53l.53-.11,1.92.74c-.52,2.36-1.25,4.52-2.2,6.47s-2.05,3.66-3.31,5.12c-1.26,1.47-2.65,2.68-4.17,3.65-.19-.35-.47-.76-.85-1.21-.38-.45-.72-.82-1.03-1.1,1.32-.78,2.56-1.82,3.72-3.12,1.16-1.3,2.16-2.8,3-4.5.84-1.7,1.46-3.5,1.86-5.39v-.57ZM133.16,101.1h17.48v3.08h-17.48v-3.08ZM133.55,88.69l1.63-1.7c.66.47,1.38,1.02,2.16,1.65.78.63,1.39,1.18,1.84,1.65l-1.67,1.95c-.43-.5-1.02-1.08-1.77-1.75-.76-.67-1.49-1.27-2.2-1.79ZM134.9,84.12h5.46v2.52h-5.46v-2.52ZM136.49,95.36h10.56v3.05h-10.56v-3.05ZM140.14,102.41h3.58v12.12h-3.58v-12.12ZM144.72,84.87c.5,1.77,1.16,3.47,1.98,5.09.83,1.62,1.81,3.07,2.94,4.36,1.13,1.29,2.39,2.31,3.76,3.07-.35.31-.74.72-1.17,1.24-.42.52-.76.99-.99,1.42-1.49-.97-2.83-2.18-4.02-3.63s-2.23-3.11-3.12-4.96c-.89-1.86-1.62-3.82-2.21-5.9l2.84-.67ZM144.11,83.38h6.31v2.59h-6.31v-2.59ZM145.6,106.85l2.77-1.63c.54.59,1.13,1.25,1.75,1.97.62.72,1.22,1.42,1.79,2.09s1.04,1.27,1.42,1.79l-2.94,1.88c-.35-.54-.8-1.16-1.35-1.86-.54-.7-1.12-1.42-1.72-2.16s-1.18-1.44-1.72-2.07ZM149.33,83.38h.71l.6-.14,2.09,1.17c-.54,1.58-1.24,3.16-2.09,4.71s-1.75,2.86-2.69,3.9c-.24-.35-.56-.74-.97-1.15-.41-.41-.77-.74-1.08-.97.5-.59.97-1.28,1.42-2.07.45-.79.84-1.61,1.19-2.46.34-.85.62-1.64.83-2.38v-.6Z"/>
    <path class="st0" d="M174.96,81.25l3.37,1.21c-1.28,1.65-2.84,3.15-4.7,4.48s-3.88,2.5-6.06,3.51c-2.19,1-4.41,1.86-6.68,2.57-.12-.26-.3-.58-.53-.96s-.49-.75-.76-1.12c-.27-.37-.51-.67-.73-.9,2.17-.54,4.29-1.23,6.35-2.07,2.06-.84,3.93-1.83,5.62-2.96,1.69-1.13,3.07-2.39,4.13-3.76ZM163.33,91.74h24.5v9.47h-24.5v-9.47ZM165.31,102.52h20.74v11.95h-3.9v-9.39h-13.08v9.5h-3.76v-12.05ZM166.52,94.12v4.71h17.9v-4.71h-17.9ZM167.48,106.74h16.27v2.55h-16.27v-2.55ZM167.48,111.03h16.31v2.52h-16.31v-2.52ZM168.01,94.97l2.66-.75c.35.62.68,1.28.97,2,.3.72.5,1.34.62,1.86l-2.8.89c-.07-.54-.24-1.19-.51-1.95-.27-.76-.58-1.44-.94-2.06ZM169.32,87.81h12.51v2.52h-12.51v-2.52ZM173.86,92.56h3.08v7.44h-3.08v-7.44ZM177.4,82.74c.8.8,1.77,1.56,2.91,2.27,1.13.71,2.38,1.37,3.72,1.99,1.35.62,2.76,1.16,4.24,1.63s2.95.86,4.41,1.17c-.4.33-.84.79-1.31,1.38-.47.59-.84,1.11-1.1,1.56-1.47-.4-2.94-.9-4.41-1.49-1.48-.59-2.91-1.27-4.29-2.04-1.38-.77-2.67-1.6-3.86-2.48-1.19-.89-2.24-1.83-3.14-2.82l2.84-1.17ZM180.02,94.08l3.19.82c-.4.76-.79,1.5-1.15,2.22-.37.72-.72,1.34-1.05,1.86l-2.59-.78c.28-.57.58-1.25.9-2.04.32-.79.55-1.48.69-2.07Z"/>
    <path class="st0" d="M201.54,83.09h3.83v10.49c0,1.54-.05,3.22-.16,5.05-.11,1.83-.3,3.7-.58,5.6-.28,1.9-.71,3.75-1.28,5.55-.57,1.79-1.32,3.43-2.27,4.89-.24-.21-.56-.44-.97-.69-.41-.25-.84-.49-1.28-.73s-.82-.41-1.15-.53c.9-1.37,1.61-2.87,2.13-4.5s.9-3.3,1.13-5.02.4-3.39.48-5.03c.08-1.64.12-3.17.12-4.59v-10.49ZM203.85,83.09h24.85v9.15h-24.85v-3.23h21.02v-2.69h-21.02v-3.23ZM205.41,101.03h25.28v3.23h-25.28v-3.23ZM206.22,95.04h22.94v3.19h-22.94v-3.19ZM208.24,114.75c-.05-.28-.16-.62-.34-1.01-.18-.39-.35-.77-.53-1.15-.18-.38-.36-.67-.55-.89.35-.24.74-.61,1.17-1.12.42-.51.64-1.2.64-2.07v-6.03l3.51.11v8.33c-.52.38-.97.71-1.37.99-.39.28-.78.59-1.17.92-.39.33-.71.67-.97,1.01-.26.34-.39.64-.39.9ZM208.24,114.75l-.14-2.8,1.42-1.13,9.08-1.84c-.07.47-.14,1.02-.2,1.65-.06.63-.08,1.13-.05,1.51-2.03.47-3.68.85-4.93,1.13-1.25.28-2.22.51-2.91.69-.69.18-1.19.32-1.51.44-.32.12-.57.24-.76.35ZM210.94,92.06h3.51v10.56h-3.51v-10.56ZM218.77,102.27c.97,2.39,2.49,4.36,4.56,5.92,2.07,1.56,4.66,2.65,7.78,3.26-.4.35-.82.84-1.24,1.47-.42.63-.76,1.18-.99,1.65-3.36-.83-6.12-2.22-8.28-4.17-2.16-1.95-3.82-4.43-4.98-7.43l3.16-.71ZM220.26,92.06h3.54v10.49h-3.54v-10.49ZM226.39,103.97l2.87,1.95c-.95.71-1.99,1.39-3.12,2.04-1.13.65-2.17,1.2-3.12,1.65l-2.45-1.81c.61-.33,1.28-.71,2-1.15.72-.44,1.42-.89,2.09-1.37.67-.47,1.25-.91,1.72-1.31Z"/>
    <path class="st0" d="M239.01,87.7h29.1v17.48h-3.97v-13.72h-21.3v13.9h-3.83v-17.65ZM241,99.58h25.38v3.76h-25.38v-3.76ZM251.46,81.5h4.01v33.08h-4.01v-33.08Z"/>
    <path class="st0" d="M279.04,93.84l3.72.71c-.14,1.49-.35,3.11-.62,4.88s-.58,3.49-.94,5.17c-.35,1.69-.74,3.21-1.17,4.56l-3.86-1.59c.45-1.25.87-2.65,1.26-4.18s.72-3.13.99-4.79c.27-1.65.48-3.24.62-4.75ZM285.28,91.57h3.93v16.84c0,.85.13,1.39.39,1.61.26.23.84.34,1.74.34h5.57c.66,0,1.15-.18,1.47-.53s.55-1.03.69-2.02c.14-.99.25-2.43.32-4.33.31.21.67.43,1.1.66.42.22.86.42,1.31.58.45.17.84.3,1.17.39-.14,2.25-.4,4.01-.76,5.3s-.93,2.19-1.7,2.71c-.77.52-1.87.78-3.31.78h-6.27c-1.47,0-2.61-.17-3.44-.5s-1.4-.9-1.72-1.7c-.32-.8-.48-1.91-.48-3.33v-16.8ZM286.62,84.8l2.55-2.55c1.09.71,2.26,1.5,3.51,2.38,1.25.87,2.45,1.77,3.58,2.68s2.04,1.73,2.73,2.46l-2.76,2.94c-.66-.73-1.54-1.56-2.62-2.5-1.09-.93-2.25-1.88-3.47-2.84-1.23-.96-2.4-1.81-3.51-2.57ZM301.19,94.15l3.54-1.42c.66,1.39,1.3,2.89,1.91,4.48.61,1.59,1.16,3.16,1.65,4.68s.84,2.9,1.08,4.13l-3.83,1.59c-.19-1.21-.51-2.59-.96-4.15-.45-1.56-.97-3.16-1.56-4.79s-1.21-3.14-1.84-4.54Z"/>
  </g>
  <g>
    <path class="st0" d="M8.09,143.49v-10.44h-3.73v-2.12h9.98v2.12h-3.72v10.44h-2.54Z"/>
    <path class="st0" d="M16.46,137.16l-2.18-.39c.25-.88.67-1.53,1.27-1.95.6-.42,1.49-.63,2.67-.63,1.07,0,1.87.13,2.4.38.53.25.9.58,1.11.97.21.39.32,1.11.32,2.15l-.03,2.81c0,.8.04,1.39.12,1.77s.22.79.43,1.22h-2.38c-.06-.16-.14-.4-.23-.71-.04-.14-.07-.24-.09-.28-.41.4-.85.7-1.32.9-.47.2-.97.3-1.5.3-.94,0-1.68-.25-2.21-.76-.54-.51-.81-1.15-.81-1.93,0-.51.12-.97.37-1.38.25-.4.59-.71,1.03-.93s1.08-.4,1.92-.56c1.12-.21,1.91-.41,2.34-.59v-.24c0-.46-.11-.79-.34-.99s-.66-.3-1.29-.3c-.43,0-.76.08-1,.25-.24.17-.43.46-.58.89ZM19.68,139.12c-.31.1-.8.23-1.46.37-.67.14-1.11.28-1.31.42-.31.22-.47.5-.47.85s.12.63.38.87c.25.25.57.37.96.37.43,0,.85-.14,1.24-.43.29-.22.48-.48.57-.8.06-.21.09-.6.09-1.17v-.48Z"/>
    <path class="st0" d="M24.42,133.15v-2.23h2.41v2.23h-2.41ZM24.42,143.49v-9.1h2.41v9.1h-2.41Z"/>
    <path class="st0" d="M37.23,137.08l-2.37.43c-.08-.47-.26-.83-.54-1.07-.28-.24-.65-.36-1.1-.36-.6,0-1.08.21-1.43.62-.36.41-.54,1.11-.54,2.08,0,1.08.18,1.84.54,2.29.36.45.85.67,1.46.67.46,0,.83-.13,1.12-.39.29-.26.5-.71.62-1.34l2.37.4c-.25,1.08-.72,1.9-1.41,2.46-.7.55-1.63.83-2.8.83-1.33,0-2.39-.42-3.18-1.26s-1.19-2-1.19-3.49.4-2.67,1.19-3.51c.79-.84,1.87-1.25,3.22-1.25,1.11,0,1.99.24,2.64.72.65.48,1.12,1.2,1.41,2.18Z"/>
    <path class="st0" d="M41.45,130.93v4.62c.78-.91,1.71-1.36,2.79-1.36.55,0,1.05.1,1.5.31.45.21.78.47,1.01.79.23.32.38.67.46,1.06s.12.99.12,1.81v5.34h-2.41v-4.81c0-.95-.05-1.56-.14-1.82-.09-.26-.25-.46-.48-.61s-.52-.23-.87-.23c-.4,0-.76.1-1.07.29-.31.19-.54.49-.69.88s-.22.97-.22,1.74v4.56h-2.41v-12.56h2.41Z"/>
    <path class="st0" d="M55.76,143.49v-1.36c-.33.49-.77.87-1.31,1.15-.54.28-1.11.42-1.71.42s-1.16-.13-1.64-.4c-.49-.27-.84-.64-1.05-1.13-.22-.49-.33-1.16-.33-2.01v-5.76h2.41v4.18c0,1.28.04,2.06.13,2.35.09.29.25.52.48.68.23.17.53.25.89.25.41,0,.78-.11,1.11-.34.33-.23.55-.51.67-.84s.18-1.15.18-2.46v-3.84h2.41v9.1h-2.24Z"/>
    <path class="st0" d="M68.76,143.49h-2.41v-4.64c0-.98-.05-1.62-.15-1.91-.1-.29-.27-.51-.5-.67-.23-.16-.51-.24-.84-.24-.42,0-.79.11-1.12.34-.33.23-.56.53-.68.91s-.18,1.07-.18,2.09v4.12h-2.41v-9.1h2.24v1.34c.79-1.03,1.79-1.54,3-1.54.53,0,1.02.1,1.46.29.44.19.77.44,1,.73.23.3.38.63.47,1.01s.13.92.13,1.62v5.65Z"/>
    <path class="st0" d="M70.98,144.09l2.75.33c.05.32.15.54.32.66.23.17.59.26,1.08.26.63,0,1.1-.09,1.41-.28.21-.13.37-.33.48-.61.07-.2.11-.57.11-1.11v-1.33c-.72.98-1.63,1.47-2.72,1.47-1.22,0-2.19-.52-2.9-1.55-.56-.82-.84-1.83-.84-3.05,0-1.53.37-2.69,1.1-3.5.73-.81,1.65-1.21,2.74-1.21s2.05.49,2.78,1.48v-1.28h2.25v8.17c0,1.07-.09,1.88-.27,2.41-.18.53-.43.95-.75,1.25-.32.3-.75.54-1.28.71-.53.17-1.21.26-2.03.26-1.54,0-2.64-.26-3.28-.79s-.97-1.2-.97-2.01c0-.08,0-.18,0-.29ZM73.13,138.75c0,.97.19,1.67.56,2.12.37.45.83.67,1.38.67.59,0,1.09-.23,1.49-.69.41-.46.61-1.14.61-2.04s-.19-1.64-.58-2.1c-.39-.46-.88-.69-1.47-.69s-1.05.22-1.43.67c-.38.45-.56,1.13-.56,2.05Z"/>
    <path class="st0" d="M91.61,143.49v-12.56h2.54v12.56h-2.54Z"/>
    <path class="st0" d="M104.83,143.49h-2.41v-4.64c0-.98-.05-1.62-.15-1.91-.1-.29-.27-.51-.5-.67-.23-.16-.51-.24-.84-.24-.42,0-.79.11-1.12.34-.33.23-.56.53-.68.91s-.18,1.07-.18,2.09v4.12h-2.41v-9.1h2.24v1.34c.79-1.03,1.79-1.54,3-1.54.53,0,1.02.1,1.46.29.44.19.77.44,1,.73.23.3.38.63.47,1.01s.13.92.13,1.62v5.65Z"/>
    <path class="st0" d="M111.44,134.39v1.92h-1.65v3.67c0,.74.02,1.18.05,1.3.03.12.1.22.21.3s.25.12.41.12c.22,0,.55-.08.97-.23l.21,1.87c-.56.24-1.19.36-1.9.36-.43,0-.83-.07-1.17-.22-.35-.15-.6-.33-.77-.57-.16-.23-.28-.54-.34-.94-.05-.28-.08-.84-.08-1.7v-3.97h-1.11v-1.92h1.11v-1.81l2.42-1.41v3.21h1.65Z"/>
    <path class="st0" d="M118.38,140.59l2.4.4c-.31.88-.79,1.55-1.46,2.01-.67.46-1.5.69-2.5.69-1.58,0-2.75-.52-3.51-1.55-.6-.83-.9-1.87-.9-3.14,0-1.51.39-2.69,1.18-3.54.79-.85,1.79-1.28,2.99-1.28,1.35,0,2.42.45,3.2,1.34.78.89,1.16,2.26,1.12,4.11h-6.03c.02.71.21,1.27.58,1.67.37.4.83.59,1.39.59.38,0,.69-.1.95-.31.26-.21.45-.54.58-.99ZM118.52,138.16c-.02-.7-.2-1.23-.54-1.59-.34-.36-.76-.54-1.25-.54-.53,0-.96.19-1.3.57s-.51.9-.51,1.56h3.6Z"/>
    <path class="st0" d="M125.18,143.49h-2.41v-9.1h2.24v1.29c.38-.61.73-1.01,1.03-1.21.3-.19.65-.29,1.04-.29.55,0,1.08.15,1.58.45l-.75,2.1c-.41-.26-.78-.39-1.13-.39s-.62.09-.86.28-.42.52-.55,1.01-.2,1.5-.2,3.05v2.81Z"/>
    <path class="st0" d="M137.98,143.49h-2.41v-4.64c0-.98-.05-1.62-.15-1.91-.1-.29-.27-.51-.5-.67-.23-.16-.51-.24-.84-.24-.42,0-.79.11-1.12.34-.33.23-.56.53-.68.91s-.18,1.07-.18,2.09v4.12h-2.41v-9.1h2.24v1.34c.79-1.03,1.79-1.54,3-1.54.53,0,1.02.1,1.46.29.44.19.77.44,1,.73.23.3.38.63.47,1.01s.13.92.13,1.62v5.65Z"/>
    <path class="st0" d="M142.22,137.16l-2.18-.39c.25-.88.67-1.53,1.27-1.95.6-.42,1.49-.63,2.67-.63,1.07,0,1.87.13,2.4.38.53.25.9.58,1.11.97.21.39.32,1.11.32,2.15l-.03,2.81c0,.8.04,1.39.12,1.77s.22.79.43,1.22h-2.38c-.06-.16-.14-.4-.23-.71-.04-.14-.07-.24-.09-.28-.41.4-.85.7-1.32.9-.47.2-.97.3-1.5.3-.94,0-1.68-.25-2.21-.76-.54-.51-.81-1.15-.81-1.93,0-.51.12-.97.37-1.38.25-.4.59-.71,1.03-.93s1.08-.4,1.92-.56c1.12-.21,1.91-.41,2.34-.59v-.24c0-.46-.11-.79-.34-.99s-.66-.3-1.29-.3c-.43,0-.76.08-1,.25-.24.17-.43.46-.58.89ZM145.44,139.12c-.31.1-.8.23-1.46.37-.67.14-1.11.28-1.31.42-.31.22-.47.5-.47.85s.12.63.38.87c.25.25.57.37.96.37.43,0,.85-.14,1.24-.43.29-.22.48-.48.57-.8.06-.21.09-.6.09-1.17v-.48Z"/>
    <path class="st0" d="M154.35,134.39v1.92h-1.65v3.67c0,.74.02,1.18.05,1.3.03.12.1.22.21.3s.25.12.41.12c.22,0,.55-.08.97-.23l.21,1.87c-.56.24-1.19.36-1.9.36-.43,0-.83-.07-1.17-.22-.35-.15-.6-.33-.77-.57-.16-.23-.28-.54-.34-.94-.05-.28-.08-.84-.08-1.7v-3.97h-1.11v-1.92h1.11v-1.81l2.42-1.41v3.21h1.65Z"/>
    <path class="st0" d="M156.02,133.15v-2.23h2.41v2.23h-2.41ZM156.02,143.49v-9.1h2.41v9.1h-2.41Z"/>
    <path class="st0" d="M160.34,138.81c0-.8.2-1.57.59-2.32.39-.75.95-1.32,1.67-1.71.72-.39,1.53-.59,2.42-.59,1.38,0,2.5.45,3.38,1.34.88.89,1.32,2.02,1.32,3.39s-.44,2.52-1.33,3.42c-.89.91-2.01,1.36-3.35,1.36-.83,0-1.63-.19-2.39-.57s-1.33-.93-1.73-1.66c-.39-.73-.59-1.62-.59-2.66ZM162.81,138.94c0,.9.21,1.59.64,2.07.43.48.96.72,1.58.72s1.16-.24,1.58-.72c.43-.48.64-1.18.64-2.09s-.21-1.58-.64-2.06-.95-.72-1.58-.72-1.16.24-1.58.72c-.43.48-.64,1.17-.64,2.07Z"/>
    <path class="st0" d="M179.89,143.49h-2.41v-4.64c0-.98-.05-1.62-.15-1.91-.1-.29-.27-.51-.5-.67-.23-.16-.51-.24-.84-.24-.42,0-.79.11-1.12.34-.33.23-.56.53-.68.91s-.18,1.07-.18,2.09v4.12h-2.41v-9.1h2.24v1.34c.79-1.03,1.79-1.54,3-1.54.53,0,1.02.1,1.46.29.44.19.77.44,1,.73.23.3.38.63.47,1.01s.13.92.13,1.62v5.65Z"/>
    <path class="st0" d="M184.13,137.16l-2.18-.39c.25-.88.67-1.53,1.27-1.95.6-.42,1.49-.63,2.67-.63,1.07,0,1.87.13,2.4.38.53.25.9.58,1.11.97.21.39.32,1.11.32,2.15l-.03,2.81c0,.8.04,1.39.12,1.77s.22.79.43,1.22h-2.38c-.06-.16-.14-.4-.23-.71-.04-.14-.07-.24-.09-.28-.41.4-.85.7-1.32.9-.47.2-.97.3-1.5.3-.94,0-1.68-.25-2.21-.76-.54-.51-.81-1.15-.81-1.93,0-.51.12-.97.37-1.38.25-.4.59-.71,1.03-.93s1.08-.4,1.92-.56c1.12-.21,1.91-.41,2.34-.59v-.24c0-.46-.11-.79-.34-.99s-.66-.3-1.29-.3c-.43,0-.76.08-1,.25-.24.17-.43.46-.58.89ZM187.35,139.12c-.31.1-.8.23-1.46.37-.67.14-1.11.28-1.31.42-.31.22-.47.5-.47.85s.12.63.38.87c.25.25.57.37.96.37.43,0,.85-.14,1.24-.43.29-.22.48-.48.57-.8.06-.21.09-.6.09-1.17v-.48Z"/>
    <path class="st0" d="M192.09,143.49v-12.56h2.41v12.56h-2.41Z"/>
    <path class="st0" d="M13.29,158.61l2.46.78c-.38,1.37-1,2.39-1.88,3.05s-1.99,1-3.34,1c-1.67,0-3.04-.57-4.11-1.71-1.07-1.14-1.61-2.7-1.61-4.67,0-2.09.54-3.71,1.62-4.87,1.08-1.16,2.5-1.74,4.26-1.74,1.54,0,2.78.45,3.74,1.36.57.54,1,1.31,1.29,2.31l-2.51.6c-.15-.65-.46-1.17-.93-1.54-.47-.38-1.04-.57-1.72-.57-.93,0-1.69.33-2.27,1-.58.67-.87,1.75-.87,3.25,0,1.59.29,2.72.86,3.39s1.31,1.01,2.23,1.01c.67,0,1.25-.21,1.74-.64.49-.43.83-1.1,1.04-2.02Z"/>
    <path class="st0" d="M17.35,158.55c0-.8.2-1.57.59-2.32.39-.75.95-1.32,1.67-1.71.72-.39,1.53-.59,2.42-.59,1.38,0,2.5.45,3.38,1.34.88.89,1.32,2.02,1.32,3.39s-.44,2.52-1.33,3.42c-.89.91-2.01,1.36-3.35,1.36-.83,0-1.63-.19-2.39-.57s-1.33-.93-1.73-1.66c-.39-.73-.59-1.62-.59-2.66ZM19.82,158.68c0,.9.21,1.59.64,2.07.43.48.96.72,1.58.72s1.16-.24,1.58-.72.64-1.18.64-2.09-.21-1.58-.64-2.06c-.43-.48-.95-.72-1.58-.72s-1.16.24-1.58.72c-.43.48-.64,1.17-.64,2.07Z"/>
    <path class="st0" d="M36.91,163.23h-2.41v-4.64c0-.98-.05-1.62-.15-1.91-.1-.29-.27-.51-.5-.67-.23-.16-.51-.24-.84-.24-.42,0-.79.11-1.12.34-.33.23-.56.53-.68.91s-.18,1.07-.18,2.09v4.12h-2.41v-9.1h2.24v1.34c.79-1.03,1.79-1.54,3-1.54.53,0,1.02.1,1.46.29.44.19.77.44,1,.73.23.3.38.63.47,1.01s.13.92.13,1.62v5.66Z"/>
    <path class="st0" d="M41.85,163.23l-3.67-9.1h2.53l1.71,4.64.5,1.55c.13-.39.21-.65.25-.78.08-.26.17-.51.26-.77l1.73-4.64h2.48l-3.62,9.1h-2.17Z"/>
    <path class="st0" d="M54.38,160.33l2.4.4c-.31.88-.79,1.55-1.46,2.01-.67.46-1.5.69-2.5.69-1.58,0-2.75-.52-3.51-1.55-.6-.83-.9-1.87-.9-3.14,0-1.51.39-2.69,1.18-3.54.79-.85,1.79-1.28,2.99-1.28,1.35,0,2.42.45,3.2,1.34.78.89,1.16,2.26,1.12,4.11h-6.03c.02.71.21,1.27.58,1.67.37.4.83.6,1.39.6.38,0,.69-.1.95-.31s.45-.54.58-.99ZM54.52,157.9c-.02-.7-.2-1.23-.54-1.59s-.76-.54-1.25-.54c-.53,0-.96.19-1.3.57s-.51.9-.51,1.56h3.6Z"/>
    <path class="st0" d="M67.14,163.23h-2.41v-4.64c0-.98-.05-1.62-.15-1.91-.1-.29-.27-.51-.5-.67-.23-.16-.51-.24-.84-.24-.42,0-.79.11-1.12.34-.33.23-.56.53-.68.91s-.18,1.07-.18,2.09v4.12h-2.41v-9.1h2.24v1.34c.79-1.03,1.79-1.54,3-1.54.53,0,1.02.1,1.46.29.44.19.77.44,1,.73.23.3.38.63.47,1.01s.13.92.13,1.62v5.66Z"/>
    <path class="st0" d="M73.76,154.13v1.92h-1.65v3.67c0,.74.02,1.17.05,1.3s.1.22.21.3.25.12.41.12c.22,0,.55-.08.97-.23l.21,1.87c-.56.24-1.19.36-1.9.36-.43,0-.83-.07-1.17-.22-.35-.15-.6-.33-.77-.57-.16-.23-.28-.54-.34-.94-.05-.28-.08-.85-.08-1.7v-3.97h-1.11v-1.92h1.11v-1.81l2.42-1.41v3.21h1.65Z"/>
    <path class="st0" d="M75.43,152.89v-2.23h2.41v2.23h-2.41ZM75.43,163.23v-9.1h2.41v9.1h-2.41Z"/>
    <path class="st0" d="M79.75,158.55c0-.8.2-1.57.59-2.32.39-.75.95-1.32,1.67-1.71.72-.39,1.53-.59,2.42-.59,1.38,0,2.5.45,3.38,1.34.88.89,1.32,2.02,1.32,3.39s-.44,2.52-1.33,3.42c-.89.91-2.01,1.36-3.35,1.36-.83,0-1.63-.19-2.39-.57s-1.33-.93-1.73-1.66c-.39-.73-.59-1.62-.59-2.66ZM82.22,158.68c0,.9.21,1.59.64,2.07.43.48.96.72,1.58.72s1.16-.24,1.58-.72.64-1.18.64-2.09-.21-1.58-.64-2.06c-.43-.48-.95-.72-1.58-.72s-1.16.24-1.58.72c-.43.48-.64,1.17-.64,2.07Z"/>
    <path class="st0" d="M99.3,163.23h-2.41v-4.64c0-.98-.05-1.62-.15-1.91-.1-.29-.27-.51-.5-.67-.23-.16-.51-.24-.84-.24-.42,0-.79.11-1.12.34-.33.23-.56.53-.68.91s-.18,1.07-.18,2.09v4.12h-2.41v-9.1h2.24v1.34c.79-1.03,1.79-1.54,3-1.54.53,0,1.02.1,1.46.29.44.19.77.44,1,.73.23.3.38.63.47,1.01s.13.92.13,1.62v5.66Z"/>
    <path class="st0" d="M113.29,156.9l-2.18-.39c.25-.88.67-1.53,1.27-1.95.6-.42,1.49-.63,2.67-.63,1.07,0,1.87.13,2.4.38.53.25.9.58,1.11.97.21.39.32,1.11.32,2.16l-.03,2.81c0,.8.04,1.39.12,1.77.08.38.22.79.43,1.22h-2.38c-.06-.16-.14-.4-.23-.71-.04-.14-.07-.24-.09-.28-.41.4-.85.7-1.32.9-.47.2-.97.3-1.5.3-.94,0-1.68-.25-2.21-.76-.54-.51-.81-1.15-.81-1.93,0-.51.12-.97.37-1.38.25-.4.59-.71,1.03-.92.44-.21,1.08-.4,1.92-.56,1.12-.21,1.91-.41,2.34-.59v-.24c0-.46-.11-.79-.34-.99-.23-.2-.66-.3-1.29-.3-.43,0-.76.08-1,.25-.24.17-.43.46-.58.89ZM116.51,158.86c-.31.1-.8.23-1.46.37-.67.14-1.11.28-1.31.42-.31.22-.47.51-.47.85s.12.63.38.87c.25.25.57.37.96.37.43,0,.85-.14,1.24-.43.29-.22.48-.48.57-.8.06-.21.09-.6.09-1.17v-.48Z"/>
    <path class="st0" d="M129.53,163.23h-2.41v-4.64c0-.98-.05-1.62-.15-1.91-.1-.29-.27-.51-.5-.67-.23-.16-.51-.24-.84-.24-.42,0-.79.11-1.12.34-.33.23-.56.53-.68.91s-.18,1.07-.18,2.09v4.12h-2.41v-9.1h2.24v1.34c.79-1.03,1.79-1.54,3-1.54.53,0,1.02.1,1.46.29.44.19.77.44,1,.73.23.3.38.63.47,1.01s.13.92.13,1.62v5.66Z"/>
    <path class="st0" d="M140.32,163.23h-2.24v-1.34c-.37.52-.81.91-1.31,1.16-.51.25-1.02.38-1.53.38-1.05,0-1.94-.42-2.69-1.26s-1.12-2.02-1.12-3.53.36-2.71,1.09-3.52,1.64-1.2,2.75-1.2c1.02,0,1.9.42,2.64,1.27v-4.52h2.41v12.56ZM133.89,158.48c0,.97.13,1.67.4,2.11.39.63.93.94,1.63.94.55,0,1.03-.24,1.41-.71.39-.47.58-1.18.58-2.11,0-1.04-.19-1.8-.57-2.26s-.86-.69-1.45-.69-1.05.23-1.44.68-.58,1.13-.58,2.04Z"/>
    <path class="st0" d="M152.46,163.23v-12.56h9.31v2.12h-6.78v2.79h6.31v2.12h-6.31v3.42h7.02v2.12h-9.55Z"/>
    <path class="st0" d="M162.99,163.23l3.28-4.69-3.14-4.41h2.94l1.61,2.5,1.7-2.5h2.83l-3.08,4.31,3.37,4.79h-2.96l-1.85-2.82-1.87,2.82h-2.82Z"/>
    <path class="st0" d="M176.3,150.67v4.62c.78-.91,1.71-1.36,2.79-1.36.55,0,1.05.1,1.5.31.45.21.78.47,1.01.79.23.32.38.67.46,1.06.08.39.12.99.12,1.81v5.34h-2.41v-4.81c0-.95-.05-1.56-.14-1.82-.09-.26-.25-.46-.48-.61s-.52-.23-.87-.23c-.4,0-.76.1-1.07.29-.31.19-.54.49-.69.88-.15.39-.22.97-.22,1.74v4.56h-2.41v-12.56h2.41Z"/>
    <path class="st0" d="M184.62,152.89v-2.23h2.41v2.23h-2.41ZM184.62,163.23v-9.1h2.41v9.1h-2.41Z"/>
    <path class="st0" d="M189.39,163.23v-12.56h2.41v4.52c.74-.85,1.62-1.27,2.64-1.27,1.11,0,2.03.4,2.75,1.2.72.8,1.09,1.96,1.09,3.46s-.37,2.75-1.11,3.59c-.74.84-1.64,1.26-2.7,1.26-.52,0-1.03-.13-1.54-.39-.5-.26-.94-.64-1.31-1.15v1.34h-2.24ZM191.78,158.48c0,.94.15,1.64.45,2.09.42.64.97.96,1.66.96.53,0,.98-.23,1.36-.68s.56-1.17.56-2.15c0-1.04-.19-1.79-.57-2.25s-.86-.69-1.45-.69-1.06.22-1.44.67c-.38.45-.57,1.13-.57,2.04Z"/>
    <path class="st0" d="M200.22,152.89v-2.23h2.41v2.23h-2.41ZM200.22,163.23v-9.1h2.41v9.1h-2.41Z"/>
    <path class="st0" d="M209.26,154.13v1.92h-1.65v3.67c0,.74.02,1.17.05,1.3s.1.22.21.3.25.12.41.12c.22,0,.55-.08.97-.23l.21,1.87c-.56.24-1.19.36-1.9.36-.43,0-.83-.07-1.17-.22-.35-.15-.6-.33-.77-.57-.16-.23-.28-.54-.34-.94-.05-.28-.08-.85-.08-1.7v-3.97h-1.11v-1.92h1.11v-1.81l2.42-1.41v3.21h1.65Z"/>
    <path class="st0" d="M210.94,152.89v-2.23h2.41v2.23h-2.41ZM210.94,163.23v-9.1h2.41v9.1h-2.41Z"/>
    <path class="st0" d="M215.25,158.55c0-.8.2-1.57.59-2.32.39-.75.95-1.32,1.67-1.71.72-.39,1.53-.59,2.42-.59,1.38,0,2.5.45,3.38,1.34.88.89,1.32,2.02,1.32,3.39s-.44,2.52-1.33,3.42c-.89.91-2.01,1.36-3.35,1.36-.83,0-1.63-.19-2.39-.57s-1.33-.93-1.73-1.66c-.39-.73-.59-1.62-.59-2.66ZM217.72,158.68c0,.9.21,1.59.64,2.07.43.48.96.72,1.58.72s1.16-.24,1.58-.72.64-1.18.64-2.09-.21-1.58-.64-2.06c-.43-.48-.95-.72-1.58-.72s-1.16.24-1.58.72c-.43.48-.64,1.17-.64,2.07Z"/>
    <path class="st0" d="M234.81,163.23h-2.41v-4.64c0-.98-.05-1.62-.15-1.91-.1-.29-.27-.51-.5-.67-.23-.16-.51-.24-.84-.24-.42,0-.79.11-1.12.34-.33.23-.56.53-.68.91s-.18,1.07-.18,2.09v4.12h-2.41v-9.1h2.24v1.34c.79-1.03,1.79-1.54,3-1.54.53,0,1.02.1,1.46.29.44.19.77.44,1,.73.23.3.38.63.47,1.01s.13.92.13,1.62v5.66Z"/>
    <path class="st0" d="M255.05,158.61l2.46.78c-.38,1.37-1,2.39-1.88,3.05s-1.99,1-3.34,1c-1.67,0-3.04-.57-4.11-1.71-1.07-1.14-1.61-2.7-1.61-4.67,0-2.09.54-3.71,1.62-4.87,1.08-1.16,2.5-1.74,4.26-1.74,1.54,0,2.78.45,3.74,1.36.57.54,1,1.31,1.29,2.31l-2.51.6c-.15-.65-.46-1.17-.93-1.54-.47-.38-1.04-.57-1.72-.57-.93,0-1.69.33-2.27,1-.58.67-.87,1.75-.87,3.25,0,1.59.29,2.72.86,3.39s1.31,1.01,2.23,1.01c.67,0,1.25-.21,1.74-.64.49-.43.83-1.1,1.04-2.02Z"/>
    <path class="st0" d="M264.94,160.33l2.4.4c-.31.88-.79,1.55-1.46,2.01-.67.46-1.5.69-2.5.69-1.58,0-2.75-.52-3.51-1.55-.6-.83-.9-1.87-.9-3.14,0-1.51.39-2.69,1.18-3.54.79-.85,1.79-1.28,2.99-1.28,1.35,0,2.42.45,3.2,1.34.78.89,1.16,2.26,1.12,4.11h-6.03c.02.71.21,1.27.58,1.67.37.4.83.6,1.39.6.38,0,.69-.1.95-.31s.45-.54.58-.99ZM265.08,157.9c-.02-.7-.2-1.23-.54-1.59s-.76-.54-1.25-.54c-.53,0-.96.19-1.3.57s-.51.9-.51,1.56h3.6Z"/>
    <path class="st0" d="M277.71,163.23h-2.41v-4.64c0-.98-.05-1.62-.15-1.91-.1-.29-.27-.51-.5-.67-.23-.16-.51-.24-.84-.24-.42,0-.79.11-1.12.34-.33.23-.56.53-.68.91s-.18,1.07-.18,2.09v4.12h-2.41v-9.1h2.24v1.34c.79-1.03,1.79-1.54,3-1.54.53,0,1.02.1,1.46.29.44.19.77.44,1,.73.23.3.38.63.47,1.01s.13.92.13,1.62v5.66Z"/>
    <path class="st0" d="M284.32,154.13v1.92h-1.65v3.67c0,.74.02,1.17.05,1.3s.1.22.21.3.25.12.41.12c.22,0,.55-.08.97-.23l.21,1.87c-.56.24-1.19.36-1.9.36-.43,0-.83-.07-1.17-.22-.35-.15-.6-.33-.77-.57-.16-.23-.28-.54-.34-.94-.05-.28-.08-.85-.08-1.7v-3.97h-1.11v-1.92h1.11v-1.81l2.42-1.41v3.21h1.65Z"/>
    <path class="st0" d="M291.26,160.33l2.4.4c-.31.88-.79,1.55-1.46,2.01-.67.46-1.5.69-2.5.69-1.58,0-2.75-.52-3.51-1.55-.6-.83-.9-1.87-.9-3.14,0-1.51.39-2.69,1.18-3.54.79-.85,1.79-1.28,2.99-1.28,1.35,0,2.42.45,3.2,1.34.78.89,1.16,2.26,1.12,4.11h-6.03c.02.71.21,1.27.58,1.67.37.4.83.6,1.39.6.38,0,.69-.1.95-.31s.45-.54.58-.99ZM291.4,157.9c-.02-.7-.2-1.23-.54-1.59s-.76-.54-1.25-.54c-.53,0-.96.19-1.3.57s-.51.9-.51,1.56h3.6Z"/>
    <path class="st0" d="M298.06,163.23h-2.41v-9.1h2.24v1.29c.38-.61.73-1.01,1.03-1.21.3-.19.65-.29,1.04-.29.55,0,1.08.15,1.58.45l-.75,2.1c-.41-.26-.78-.39-1.13-.39s-.62.09-.86.28-.42.52-.55,1.01c-.13.49-.2,1.5-.2,3.05v2.81Z"/>
  </g>
</svg>