<?xml version="1.0" encoding="UTF-8"?>
<svg id="_圖層_1" xmlns="http://www.w3.org/2000/svg" version="1.1" viewBox="0 0 632.7 82.2">
  <!-- Generator: Adobe Illustrator 29.1.0, SVG Export Plug-In . SVG Version: 2.1.0 Build 142)  -->
  <defs>
    <style>
      .st0 {
        fill: #1e2c65;
      }
    </style>
  </defs>
  <g>
    <g>
      <path class="st0" d="M0,35.3l39.5-16.2s36.6,28.6,79,22.2c24.3-3.7,35-10.5,50.6-18,11.7-5.7,31.4-14.4,49.1-16.7,46.7-6.1,81,20,89.1,30.1l-39.5,16.2s-35.2-39.2-95.8-23.5C124.4,41.7,78.7,53.7,0,35.3Z"/>
      <g>
        <path class="st0" d="M118.4,64.9c1.8-.3,3.5-.5,5.1-.8-1.8.3-3.6.6-5.4.9,0,0,.2,0,.2,0h0Z"/>
        <path class="st0" d="M39.5,42.7L0,58.9c49.6,11.6,86.1,11.1,118.2,6.1-42.2,6.2-78.7-22.2-78.7-22.2h0Z"/>
      </g>
    </g>
    <path class="st0" d="M291.3,47l-22.3,9.1-2.2.9-1.6-1.8c-.2-.2-17.8-19.3-48.9-24.7-17.2,2.6-36,10.9-47.3,16.4-14.4,7-24.7,13.3-45.5,17.1,16.8-2.9,32.5-7,48.4-11.1,60.6-15.7,95.8,23.5,95.8,23.5l39.5-16.2c-2.6-3.3-8.1-8.3-15.9-13.3h0Z"/>
  </g>
  <g>
    <g>
      <path class="st0" d="M327.3,2.1h31.4v2.4h-31.4v-2.4ZM327.4,30h31.1v2.6h-31.1v-2.6ZM327.7,15.8h30.4v5.2h-3.6v-2.8h-23.4v2.8h-3.4v-5.2ZM330,5.9h25.8v2.3h-25.8v-2.3ZM330.9,26.4h24.5v2.3h-24.5v-2.3ZM331.3,19.4h22.8v2.1h-22.8v-2.1ZM331.4,9.3h23.2v5.3h-23.2v-5.3ZM332.8,25.6c0-.3-.2-.7-.4-1.2-.2-.5-.3-1-.5-1.3.6,0,1.2-.2,1.9-.4.2,0,.6-.3,1.2-.5s1.2-.6,1.9-.9c.7-.4,1.3-.8,1.9-1.2l2.6.9c-1.1.8-2.3,1.4-3.5,2-1.2.6-2.3,1-3.4,1.3h0c-.6.3-1,.5-1.3.7-.3.2-.4.4-.4.6h0ZM332.8,25.6v-1.7l1.6-.8,17.2-.2c0,.3.1.7.2,1.1,0,.4.2.7.2,1-3.3,0-6.1.1-8.3.2s-4,.1-5.3.1c-1.4,0-2.4,0-3.2.1-.7,0-1.3,0-1.6.1s-.6.1-.8.2h0ZM334.9,11.2v1.4h15.9v-1.4s-15.9,0-15.9,0ZM340.8.2h3.9v7.1h-3.9V.2ZM340.8,24.1h3.9v7.2h-3.9v-7.2ZM346.3,21.7l2.2-1.6c.8.4,1.7.8,2.5,1.3s1.7,1.1,2.5,1.6c.8.5,1.4,1,2,1.5l-2.3,1.8c-.5-.5-1.1-1-1.9-1.6s-1.6-1.1-2.5-1.7c-.9-.5-1.7-1-2.5-1.4h0Z"/>
      <path class="st0" d="M367.4,6.4h29.1v17.5h-4v-13.7h-21.3v13.9h-3.8V6.5h0ZM369.3,18.3h25.4v3.8h-25.4s0-3.8,0-3.8ZM379.8.2h4v33.1h-4s0-33.1,0-33.1Z"/>
      <path class="st0" d="M405.8,1.8h30.2v31.7h-3.8V5.2h-22.8v28.2h-3.6s0-31.7,0-31.7ZM408.1,28.5h26.2v3.4h-26.2s0-3.4,0-3.4ZM410.5,22.9c1.3-.2,2.9-.4,4.7-.6s3.7-.5,5.6-.8v2.6c-1.7.3-3.4.6-5.1.8s-3.3.5-4.7.8l-.4-2.8h0ZM410.9,9.1h20.1v2.7h-20.1v-2.7ZM411.9,13.5h7.9v6.8h-7.9v-6.8ZM414.4,15.6v2.7h2.8v-2.7h-2.8ZM427,13l2.9.6c-.9,3.2-2.2,6-3.9,8.4-1.7,2.4-3.7,4.4-6.1,5.9-.1-.2-.3-.4-.6-.7s-.5-.6-.8-.9c-.3-.3-.5-.5-.7-.7,2.3-1.3,4.2-3,5.7-5.2,1.5-2.1,2.7-4.6,3.4-7.4h0ZM420.6,5.8h3.2c0,2.3.2,4.5.4,6.6.2,2.1.5,4.1.8,5.8s.8,3.1,1.3,4.2,1.1,1.7,1.7,1.8c.2,0,.4-.2.6-.9.1-.7.3-1.5.3-2.6.2.2.4.4.7.7s.6.5.9.7.6.4.8.5c-.3,2.1-.8,3.5-1.6,4.3s-1.7.9-2.8.4c-1.2-.3-2.1-1.1-2.8-2.4-.8-1.3-1.3-2.9-1.8-4.9s-.8-4.2-1.1-6.6c-.2-2.4-.4-4.9-.6-7.5h0ZM425.3,6.9l1.7-1.7c.6.3,1.3.6,1.9,1.1s1.2.8,1.6,1.2l-1.8,1.9c-.3-.4-.9-.8-1.5-1.3s-1.3-.9-1.9-1.2Z"/>
      <path class="st0" d="M444.6,1.7h8.1v3.4h-4.9v28.2h-3.3V1.7h0ZM451.6,1.7h1.1c0-.1,2.3,1.2,2.3,1.2-.4,1.5-.9,3.1-1.4,4.8s-1.1,3.2-1.6,4.6c1.1,1.4,1.8,2.8,2.1,4s.5,2.4.5,3.5-.1,2-.3,2.8c-.2.8-.6,1.3-1.1,1.7-.3.2-.6.4-.9.5s-.7.2-1,.3c-.3,0-.7,0-1.1,0s-.8,0-1.2,0c0-.4,0-.9-.2-1.5s-.3-1.1-.6-1.6c.3,0,.6,0,.9,0h.7c.4,0,.7-.1,1-.3.2-.2.4-.4.5-.8.1-.4.2-.9.2-1.4,0-.9-.2-1.9-.5-3.1s-1-2.4-2-3.7c.3-.8.5-1.6.8-2.5s.5-1.8.7-2.7c.2-.9.5-1.8.7-2.6.2-.8.4-1.5.5-2.1v-1h0ZM458.3.3l2.8.6c-.6,1.9-1.5,3.7-2.5,5.4s-2.2,3.1-3.4,4.2c-.2-.2-.6-.6-1.1-1-.5-.4-.9-.7-1.2-.9,1.2-1,2.3-2.3,3.2-3.7.9-1.5,1.7-3,2.2-4.7h0ZM458,24.3l3.4,1.1c-.4.8-.9,1.5-1.5,2.3-.6.8-1.1,1.6-1.7,2.3s-1.1,1.4-1.6,1.9c-.2-.2-.5-.4-.9-.7-.4-.2-.7-.5-1.1-.7-.4-.2-.7-.4-1-.6.8-.7,1.6-1.6,2.4-2.7.8-1,1.5-2,2-3h0ZM453.8,11.2c.7,0,1.5-.2,2.3-.2s1.8-.2,2.8-.3v2.1c-.8.2-1.6.3-2.4.5s-1.5.3-2.3.4l-.4-2.4h0ZM462.8,2.9h1.1c0-.1,1.9.6,1.9.6-.5,2.4-1.2,4.5-2.2,6.5s-2.1,3.7-3.3,5.1c-1.3,1.5-2.6,2.7-4.2,3.7-.2-.3-.5-.8-.9-1.2s-.7-.8-1-1.1c1.3-.8,2.6-1.8,3.7-3.1s2.2-2.8,3-4.5,1.5-3.5,1.9-5.4v-.6h0ZM456.5,19.8h17.5v3.1h-17.5v-3.1ZM456.9,7.4l1.6-1.7c.7.5,1.4,1,2.2,1.7.8.6,1.4,1.2,1.8,1.7l-1.7,1.9c-.4-.5-1-1.1-1.8-1.8-.8-.7-1.5-1.3-2.2-1.8h0ZM458.2,2.9h5.5v2.5h-5.5v-2.5ZM459.8,14.1h10.6v3.1h-10.6v-3.1ZM463.5,21.2h3.6v12.1h-3.6v-12.1ZM468,3.6c.5,1.8,1.2,3.5,2,5.1.8,1.6,1.8,3.1,2.9,4.4s2.4,2.3,3.8,3.1c-.4.3-.7.7-1.2,1.2-.4.5-.8,1-1,1.4-1.5-1-2.8-2.2-4-3.6s-2.2-3.1-3.1-5c-.9-1.9-1.6-3.8-2.2-5.9l2.8-.7h0ZM467.4,2.1h6.3v2.6h-6.3v-2.6ZM468.9,25.6l2.8-1.6c.5.6,1.1,1.2,1.8,2s1.2,1.4,1.8,2.1,1,1.3,1.4,1.8l-2.9,1.9c-.4-.5-.8-1.2-1.4-1.9-.5-.7-1.1-1.4-1.7-2.2s-1.2-1.4-1.7-2.1h0ZM472.7,2.1h1.3c0-.1,2.1,1,2.1,1-.5,1.6-1.2,3.2-2.1,4.7s-1.8,2.9-2.7,3.9c-.2-.3-.6-.7-1-1.2s-.8-.7-1.1-1c.5-.6,1-1.3,1.4-2.1s.8-1.6,1.2-2.5c.3-.8.6-1.6.8-2.4v-.6h0Z"/>
      <path class="st0" d="M498.3,0l3.4,1.2c-1.3,1.7-2.8,3.2-4.7,4.5s-3.9,2.5-6.1,3.5c-2.2,1-4.4,1.9-6.7,2.6-.1-.3-.3-.6-.5-1s-.5-.8-.8-1.1c-.3-.4-.5-.7-.7-.9,2.2-.5,4.3-1.2,6.4-2.1,2.1-.8,3.9-1.8,5.6-3s3.1-2.4,4.1-3.8h0ZM486.7,10.5h24.5v9.5h-24.5v-9.5ZM488.6,21.3h20.7v11.9h-3.9v-9.4h-13.1v9.5h-3.8v-12.1h0ZM489.8,12.9v4.7h17.9v-4.7h-17.9ZM490.8,25.5h16.3v2.6h-16.3v-2.6ZM490.8,29.8h16.3v2.5h-16.3v-2.5ZM491.3,13.7l2.7-.8c.4.6.7,1.3,1,2,.3.7.5,1.3.6,1.9l-2.8.9c0-.5-.2-1.2-.5-1.9-.3-.8-.6-1.4-.9-2.1h0ZM492.6,6.6h12.5v2.5h-12.5v-2.5ZM497.2,11.3h3.1v7.4h-3.1v-7.4ZM500.7,1.5c.8.8,1.8,1.6,2.9,2.3,1.1.7,2.4,1.4,3.7,2,1.4.6,2.8,1.2,4.2,1.6s2.9.9,4.4,1.2c-.4.3-.8.8-1.3,1.4s-.8,1.1-1.1,1.6c-1.5-.4-2.9-.9-4.4-1.5-1.5-.6-2.9-1.3-4.3-2-1.4-.8-2.7-1.6-3.9-2.5-1.2-.9-2.2-1.8-3.1-2.8l2.8-1.2h0ZM503.3,12.8l3.2.8c-.4.8-.8,1.5-1.1,2.2-.4.7-.7,1.3-1.1,1.9l-2.6-.8c.3-.6.6-1.2.9-2,.3-.8.6-1.5.7-2.1h0Z"/>
      <path class="st0" d="M524.9,1.8h3.8v10.5c0,1.5,0,3.2-.2,5.1s-.3,3.7-.6,5.6-.7,3.8-1.3,5.6c-.6,1.8-1.3,3.4-2.3,4.9-.2-.2-.6-.4-1-.7s-.8-.5-1.3-.7-.8-.4-1.1-.5c.9-1.4,1.6-2.9,2.1-4.5s.9-3.3,1.1-5,.4-3.4.5-5,.1-3.2.1-4.6V1.8ZM527.2,1.8h24.9v9.2h-24.9v-3.2h21v-2.7h-21s0-3.2,0-3.2ZM528.7,19.8h25.3v3.2h-25.3v-3.2ZM529.5,13.8h22.9v3.2h-22.9v-3.2ZM531.6,33.5c0-.3-.2-.6-.3-1s-.4-.8-.5-1.2c-.2-.4-.4-.7-.6-.9.4-.2.7-.6,1.2-1.1.4-.5.6-1.2.6-2.1v-6h3.5v8.4c-.5.4-1,.7-1.4,1-.4.3-.8.6-1.2.9s-.7.7-1,1c-.3.3-.4.6-.4.9h0ZM531.6,33.5v-2.8c-.1,0,1.3-1.1,1.3-1.1l9.1-1.8c0,.5-.1,1-.2,1.7,0,.6,0,1.1,0,1.5-2,.5-3.7.8-4.9,1.1s-2.2.5-2.9.7-1.2.3-1.5.4c-.3.1-.6.2-.8.3h0ZM534.3,10.8h3.5v10.6h-3.5v-10.6ZM542.1,21c1,2.4,2.5,4.4,4.6,5.9,2.1,1.6,4.7,2.7,7.8,3.3-.4.3-.8.8-1.2,1.5-.4.6-.8,1.2-1,1.7-3.4-.8-6.1-2.2-8.3-4.2s-3.8-4.4-5-7.4l3.2-.7h0ZM543.6,10.8h3.5v10.5h-3.5v-10.5ZM549.7,22.7l2.9,1.9c-.9.7-2,1.4-3.1,2-1.1.7-2.2,1.2-3.1,1.7l-2.4-1.8c.6-.3,1.3-.7,2-1.2s1.4-.9,2.1-1.4c.7-.5,1.2-.9,1.7-1.3h0Z"/>
      <path class="st0" d="M562.3,6.4h29.1v17.5h-4v-13.7h-21.3v13.9h-3.8V6.5h0ZM564.3,18.3h25.4v3.8h-25.4v-3.8ZM574.8.2h4v33.1h-4V.2Z"/>
      <path class="st0" d="M602.4,12.6l3.7.7c-.1,1.5-.4,3.1-.6,4.9s-.6,3.5-.9,5.2c-.4,1.7-.7,3.2-1.2,4.6l-3.9-1.6c.5-1.2.9-2.7,1.3-4.2s.7-3.1,1-4.8c.3-1.7.5-3.2.6-4.8h0ZM608.6,10.3h3.9v16.8c0,.8.1,1.4.4,1.6.3.2.8.3,1.7.3h5.6c.7,0,1.1-.2,1.5-.5s.5-1,.7-2,.2-2.4.3-4.3c.3.2.7.4,1.1.7.4.2.9.4,1.3.6.5.2.8.3,1.2.4-.1,2.2-.4,4-.8,5.3s-.9,2.2-1.7,2.7c-.8.5-1.9.8-3.3.8h-6.3c-1.5,0-2.6-.2-3.4-.5s-1.4-.9-1.7-1.7c-.3-.8-.5-1.9-.5-3.3V10.3h0ZM609.9,3.6l2.5-2.6c1.1.7,2.3,1.5,3.5,2.4,1.2.9,2.5,1.8,3.6,2.7s2,1.7,2.7,2.5l-2.8,2.9c-.7-.7-1.5-1.6-2.6-2.5-1.1-.9-2.2-1.9-3.5-2.8-1.2-1-2.4-1.8-3.5-2.6h0ZM624.5,12.9l3.5-1.4c.7,1.4,1.3,2.9,1.9,4.5.6,1.6,1.2,3.2,1.6,4.7s.8,2.9,1.1,4.1l-3.8,1.6c-.2-1.2-.5-2.6-1-4.2-.5-1.6-1-3.2-1.6-4.8s-1.2-3.1-1.8-4.5h0Z"/>
    </g>
    <g>
      <path class="st0" d="M331.4,62.2v-10.4h-3.7v-2.1h10v2.1h-3.7v10.4h-2.5,0Z"/>
      <path class="st0" d="M339.8,55.9l-2.2-.4c.2-.9.7-1.5,1.3-1.9s1.5-.6,2.7-.6,1.9.1,2.4.4c.5.2.9.6,1.1,1,.2.4.3,1.1.3,2.1v2.8c0,.8,0,1.4,0,1.8s.2.8.4,1.2h-2.4c0-.2-.1-.4-.2-.7,0-.1,0-.2,0-.3-.4.4-.9.7-1.3.9s-1,.3-1.5.3c-.9,0-1.7-.2-2.2-.8-.5-.5-.8-1.1-.8-1.9s.1-1,.4-1.4c.2-.4.6-.7,1-.9s1.1-.4,1.9-.6c1.1-.2,1.9-.4,2.3-.6v-.2c0-.5-.1-.8-.3-1s-.7-.3-1.3-.3-.8,0-1,.2-.4.5-.6.9h0ZM343,57.9c-.3.1-.8.2-1.5.4-.7.1-1.1.3-1.3.4-.3.2-.5.5-.5.9s.1.6.4.9c.2.2.6.4,1,.4s.9-.1,1.2-.4c.3-.2.5-.5.6-.8,0-.2,0-.6,0-1.2v-.5Z"/>
      <path class="st0" d="M347.7,51.9v-2.2h2.4v2.2h-2.4ZM347.7,62.2v-9.1h2.4v9.1h-2.4Z"/>
      <path class="st0" d="M360.6,55.8l-2.4.4c0-.5-.3-.8-.5-1.1-.3-.2-.7-.4-1.1-.4s-1.1.2-1.4.6c-.4.4-.5,1.1-.5,2.1s.2,1.8.5,2.3.8.7,1.5.7.8-.1,1.1-.4c.3-.3.5-.7.6-1.3l2.4.4c-.2,1.1-.7,1.9-1.4,2.5-.7.6-1.6.8-2.8.8s-2.4-.4-3.2-1.3-1.2-2-1.2-3.5.4-2.7,1.2-3.5,1.9-1.2,3.2-1.2,2,.2,2.6.7c.7.5,1.1,1.2,1.4,2.2h0Z"/>
      <path class="st0" d="M364.8,49.7v4.6c.8-.9,1.7-1.4,2.8-1.4s1,.1,1.5.3c.5.2.8.5,1,.8.2.3.4.7.5,1.1s.1,1,.1,1.8v5.3h-2.4v-4.8c0-.9,0-1.6-.1-1.8,0-.3-.2-.5-.5-.6s-.5-.2-.9-.2-.8.1-1.1.3c-.3.2-.5.5-.7.9s-.2,1-.2,1.7v4.6h-2.4v-12.6h2.4Z"/>
      <path class="st0" d="M379.1,62.2v-1.4c-.3.5-.8.9-1.3,1.1s-1.1.4-1.7.4-1.2-.1-1.6-.4c-.5-.3-.8-.6-1-1.1-.2-.5-.3-1.2-.3-2v-5.8h2.4v4.2c0,1.3,0,2.1.1,2.4,0,.3.2.5.5.7.2.2.5.2.9.2s.8-.1,1.1-.3.5-.5.7-.8.2-1.1.2-2.5v-3.8h2.4v9.1h-2.2,0Z"/>
      <path class="st0" d="M392.1,62.2h-2.4v-4.6c0-1,0-1.6-.2-1.9,0-.3-.3-.5-.5-.7s-.5-.2-.8-.2-.8.1-1.1.3c-.3.2-.6.5-.7.9s-.2,1.1-.2,2.1v4.1h-2.4v-9.1h2.2v1.3c.8-1,1.8-1.5,3-1.5s1,.1,1.5.3c.4.2.8.4,1,.7.2.3.4.6.5,1s.1.9.1,1.6v5.6h0Z"/>
      <path class="st0" d="M394.3,62.8l2.8.3c0,.3.2.5.3.7.2.2.6.3,1.1.3s1.1,0,1.4-.3c.2-.1.4-.3.5-.6,0-.2.1-.6.1-1.1v-1.3c-.7,1-1.6,1.5-2.7,1.5s-2.2-.5-2.9-1.6c-.6-.8-.8-1.8-.8-3.1s.4-2.7,1.1-3.5c.7-.8,1.7-1.2,2.7-1.2s2.1.5,2.8,1.5v-1.3h2.2v8.2c0,1.1,0,1.9-.3,2.4s-.4.9-.8,1.2-.8.5-1.3.7c-.5.2-1.2.3-2,.3-1.5,0-2.6-.3-3.3-.8s-1-1.2-1-2v-.3h0ZM396.5,57.5c0,1,.2,1.7.6,2.1.4.4.8.7,1.4.7s1.1-.2,1.5-.7c.4-.5.6-1.1.6-2s-.2-1.6-.6-2.1-.9-.7-1.5-.7-1.1.2-1.4.7-.6,1.1-.6,2.1h0Z"/>
      <path class="st0" d="M414.9,62.2v-12.6h2.5v12.6h-2.5Z"/>
      <path class="st0" d="M428.2,62.2h-2.4v-4.6c0-1,0-1.6-.2-1.9,0-.3-.3-.5-.5-.7s-.5-.2-.8-.2-.8.1-1.1.3-.6.5-.7.9-.2,1.1-.2,2.1v4.1h-2.4v-9.1h2.2v1.3c.8-1,1.8-1.5,3-1.5s1,.1,1.5.3c.4.2.8.4,1,.7.2.3.4.6.5,1s.1.9.1,1.6v5.6h0Z"/>
      <path class="st0" d="M434.8,53.1v1.9h-1.7v3.7c0,.7,0,1.2,0,1.3,0,.1,0,.2.2.3s.2.1.4.1.6,0,1-.2l.2,1.9c-.6.2-1.2.4-1.9.4s-.8,0-1.2-.2c-.3-.1-.6-.3-.8-.6-.2-.2-.3-.5-.3-.9,0-.3,0-.8,0-1.7v-4h-1.1v-1.9h1.1v-1.8l2.4-1.4v3.2h1.7,0Z"/>
      <path class="st0" d="M441.7,59.3l2.4.4c-.3.9-.8,1.6-1.5,2-.7.5-1.5.7-2.5.7-1.6,0-2.8-.5-3.5-1.6-.6-.8-.9-1.9-.9-3.1s.4-2.7,1.2-3.5c.8-.9,1.8-1.3,3-1.3s2.4.4,3.2,1.3,1.2,2.3,1.1,4.1h-6c0,.7.2,1.3.6,1.7s.8.6,1.4.6.7-.1.9-.3c.3-.2.4-.5.6-1h0ZM441.8,56.9c0-.7-.2-1.2-.5-1.6-.3-.4-.8-.5-1.2-.5s-1,.2-1.3.6-.5.9-.5,1.6h3.6Z"/>
      <path class="st0" d="M448.5,62.2h-2.4v-9.1h2.2v1.3c.4-.6.7-1,1-1.2.3-.2.7-.3,1-.3s1.1.1,1.6.4l-.8,2.1c-.4-.3-.8-.4-1.1-.4s-.6,0-.9.3-.4.5-.6,1-.2,1.5-.2,3.1v2.8h0Z"/>
      <path class="st0" d="M461.3,62.2h-2.4v-4.6c0-1,0-1.6-.1-1.9-.1-.3-.3-.5-.5-.7s-.5-.2-.8-.2-.8.1-1.1.3-.6.5-.7.9-.2,1.1-.2,2.1v4.1h-2.4v-9.1h2.2v1.3c.8-1,1.8-1.5,3-1.5s1,.1,1.5.3c.4.2.8.4,1,.7.2.3.4.6.5,1s.1.9.1,1.6v5.6h0Z"/>
      <path class="st0" d="M465.5,55.9l-2.2-.4c.2-.9.7-1.5,1.3-1.9s1.5-.6,2.7-.6,1.9.1,2.4.4.9.6,1.1,1,.3,1.1.3,2.1v2.8c0,.8,0,1.4,0,1.8s.2.8.4,1.2h-2.4c0-.2-.1-.4-.2-.7,0-.1,0-.2,0-.3-.4.4-.9.7-1.3.9s-1,.3-1.5.3c-.9,0-1.7-.2-2.2-.8-.5-.5-.8-1.1-.8-1.9s.1-1,.4-1.4c.2-.4.6-.7,1-.9s1.1-.4,1.9-.6c1.1-.2,1.9-.4,2.3-.6v-.2c0-.5-.1-.8-.3-1s-.7-.3-1.3-.3-.8,0-1,.2-.4.5-.6.9h0ZM468.8,57.9c-.3.1-.8.2-1.5.4-.7.1-1.1.3-1.3.4-.3.2-.5.5-.5.9s.1.6.4.9c.2.2.6.4,1,.4s.9-.1,1.2-.4c.3-.2.5-.5.6-.8,0-.2,0-.6,0-1.2v-.5h0Z"/>
      <path class="st0" d="M477.7,53.1v1.9h-1.6v3.7c0,.7,0,1.2,0,1.3,0,.1.1.2.2.3s.2.1.4.1.6,0,1-.2l.2,1.9c-.6.2-1.2.4-1.9.4s-.8,0-1.2-.2c-.4-.1-.6-.3-.8-.6-.2-.2-.3-.5-.3-.9,0-.3,0-.8,0-1.7v-4h-1.1v-1.9h1.1v-1.8l2.4-1.4v3.2h1.6,0Z"/>
      <path class="st0" d="M479.3,51.9v-2.2h2.4v2.2h-2.4ZM479.3,62.2v-9.1h2.4v9.1h-2.4Z"/>
      <path class="st0" d="M483.7,57.6c0-.8.2-1.6.6-2.3s.9-1.3,1.7-1.7,1.5-.6,2.4-.6c1.4,0,2.5.4,3.4,1.3s1.3,2,1.3,3.4-.4,2.5-1.3,3.4c-.9.9-2,1.4-3.4,1.4s-1.6-.2-2.4-.6-1.3-.9-1.7-1.7c-.4-.7-.6-1.6-.6-2.7h0ZM486.1,57.7c0,.9.2,1.6.6,2.1.4.5,1,.7,1.6.7s1.2-.2,1.6-.7c.4-.5.6-1.2.6-2.1s-.2-1.6-.6-2.1-.9-.7-1.6-.7-1.2.2-1.6.7c-.4.5-.6,1.2-.6,2.1h0Z"/>
      <path class="st0" d="M503.2,62.2h-2.4v-4.6c0-1,0-1.6-.1-1.9-.1-.3-.3-.5-.5-.7s-.5-.2-.8-.2-.8.1-1.1.3-.6.5-.7.9-.2,1.1-.2,2.1v4.1h-2.4v-9.1h2.2v1.3c.8-1,1.8-1.5,3-1.5s1,.1,1.5.3c.4.2.8.4,1,.7.2.3.4.6.5,1s.1.9.1,1.6v5.6h0Z"/>
      <path class="st0" d="M507.5,55.9l-2.2-.4c.2-.9.7-1.5,1.3-1.9s1.5-.6,2.7-.6,1.9.1,2.4.4.9.6,1.1,1,.3,1.1.3,2.1v2.8c0,.8,0,1.4,0,1.8s.2.8.4,1.2h-2.4c0-.2-.1-.4-.2-.7,0-.1,0-.2,0-.3-.4.4-.9.7-1.3.9s-1,.3-1.5.3c-.9,0-1.7-.2-2.2-.8-.5-.5-.8-1.1-.8-1.9s.1-1,.4-1.4c.2-.4.6-.7,1-.9s1.1-.4,1.9-.6c1.1-.2,1.9-.4,2.3-.6v-.2c0-.5-.1-.8-.3-1s-.7-.3-1.3-.3-.8,0-1,.2-.4.5-.6.9h0ZM510.7,57.9c-.3.1-.8.2-1.5.4-.7.1-1.1.3-1.3.4-.3.2-.5.5-.5.9s.1.6.4.9c.2.2.6.4,1,.4s.9-.1,1.2-.4c.3-.2.5-.5.6-.8,0-.2,0-.6,0-1.2v-.5h0Z"/>
      <path class="st0" d="M515.4,62.2v-12.6h2.4v12.6h-2.4Z"/>
      <path class="st0" d="M336.6,77.4l2.5.8c-.4,1.4-1,2.4-1.9,3.1s-2,1-3.3,1-3-.6-4.1-1.7-1.6-2.7-1.6-4.7.5-3.7,1.6-4.9c1.1-1.2,2.5-1.7,4.3-1.7s2.8.4,3.7,1.4c.6.5,1,1.3,1.3,2.3l-2.5.6c-.1-.6-.5-1.2-.9-1.5-.5-.4-1-.6-1.7-.6s-1.7.3-2.3,1-.9,1.8-.9,3.2.3,2.7.9,3.4,1.3,1,2.2,1,1.2-.2,1.7-.6.8-1.1,1-2h0Z"/>
      <path class="st0" d="M340.7,77.3c0-.8.2-1.6.6-2.3s1-1.3,1.7-1.7,1.5-.6,2.4-.6c1.4,0,2.5.4,3.4,1.3s1.3,2,1.3,3.4-.4,2.5-1.3,3.4c-.9.9-2,1.4-3.4,1.4s-1.6-.2-2.4-.6-1.3-.9-1.7-1.7c-.4-.7-.6-1.6-.6-2.7h0ZM343.1,77.4c0,.9.2,1.6.6,2.1.4.5,1,.7,1.6.7s1.2-.2,1.6-.7.6-1.2.6-2.1-.2-1.6-.6-2.1-1-.7-1.6-.7-1.2.2-1.6.7c-.4.5-.6,1.2-.6,2.1h0Z"/>
      <path class="st0" d="M360.2,82h-2.4v-4.6c0-1,0-1.6-.2-1.9,0-.3-.3-.5-.5-.7s-.5-.2-.8-.2-.8.1-1.1.3-.6.5-.7.9-.2,1.1-.2,2.1v4.1h-2.4v-9.1h2.2v1.3c.8-1,1.8-1.5,3-1.5s1,.1,1.5.3c.4.2.8.4,1,.7.2.3.4.6.5,1s.1.9.1,1.6v5.7h0Z"/>
      <path class="st0" d="M365.2,82l-3.7-9.1h2.5l1.7,4.6.5,1.6c.1-.4.2-.6.2-.8,0-.3.2-.5.3-.8l1.7-4.6h2.5l-3.6,9.1h-2.2Z"/>
      <path class="st0" d="M377.7,79.1l2.4.4c-.3.9-.8,1.6-1.5,2-.7.5-1.5.7-2.5.7-1.6,0-2.8-.5-3.5-1.6-.6-.8-.9-1.9-.9-3.1s.4-2.7,1.2-3.5c.8-.9,1.8-1.3,3-1.3s2.4.4,3.2,1.3,1.2,2.3,1.1,4.1h-6c0,.7.2,1.3.6,1.7.4.4.8.6,1.4.6s.7-.1,1-.3.5-.5.6-1h0ZM377.8,76.6c0-.7-.2-1.2-.5-1.6s-.8-.5-1.2-.5-1,.2-1.3.6-.5.9-.5,1.6h3.6Z"/>
      <path class="st0" d="M390.5,82h-2.4v-4.6c0-1,0-1.6-.2-1.9,0-.3-.3-.5-.5-.7-.2-.2-.5-.2-.8-.2s-.8.1-1.1.3c-.3.2-.6.5-.7.9s-.2,1.1-.2,2.1v4.1h-2.4v-9.1h2.2v1.3c.8-1,1.8-1.5,3-1.5s1,.1,1.5.3c.4.2.8.4,1,.7.2.3.4.6.5,1s.1.9.1,1.6v5.7h0Z"/>
      <path class="st0" d="M397.1,72.9v1.9h-1.7v3.7c0,.7,0,1.2,0,1.3s0,.2.2.3.2.1.4.1.6,0,1-.2l.2,1.9c-.6.2-1.2.4-1.9.4s-.8,0-1.2-.2c-.3-.1-.6-.3-.8-.6-.2-.2-.3-.5-.3-.9,0-.3,0-.9,0-1.7v-4h-1.1v-1.9h1.1v-1.8l2.4-1.4v3.2h1.7,0Z"/>
      <path class="st0" d="M398.8,71.6v-2.2h2.4v2.2h-2.4ZM398.8,82v-9.1h2.4v9.1h-2.4Z"/>
      <path class="st0" d="M403.1,77.3c0-.8.2-1.6.6-2.3s.9-1.3,1.7-1.7,1.5-.6,2.4-.6c1.4,0,2.5.4,3.4,1.3s1.3,2,1.3,3.4-.4,2.5-1.3,3.4c-.9.9-2,1.4-3.3,1.4s-1.6-.2-2.4-.6-1.3-.9-1.7-1.7c-.4-.7-.6-1.6-.6-2.7h0ZM405.5,77.4c0,.9.2,1.6.6,2.1.4.5,1,.7,1.6.7s1.2-.2,1.6-.7.6-1.2.6-2.1-.2-1.6-.6-2.1-.9-.7-1.6-.7-1.2.2-1.6.7c-.4.5-.6,1.2-.6,2.1h0Z"/>
      <path class="st0" d="M422.6,82h-2.4v-4.6c0-1,0-1.6-.2-1.9,0-.3-.3-.5-.5-.7s-.5-.2-.8-.2-.8.1-1.1.3-.6.5-.7.9-.2,1.1-.2,2.1v4.1h-2.4v-9.1h2.2v1.3c.8-1,1.8-1.5,3-1.5s1,.1,1.5.3c.4.2.8.4,1,.7.2.3.4.6.5,1s.1.9.1,1.6v5.7h0Z"/>
      <path class="st0" d="M436.6,75.6l-2.2-.4c.2-.9.7-1.5,1.3-1.9s1.5-.6,2.7-.6,1.9.1,2.4.4.9.6,1.1,1,.3,1.1.3,2.2v2.8c0,.8,0,1.4,0,1.8s.2.8.4,1.2h-2.4c0-.2-.1-.4-.2-.7,0-.1,0-.2,0-.3-.4.4-.8.7-1.3.9s-1,.3-1.5.3c-.9,0-1.7-.2-2.2-.8-.5-.5-.8-1.1-.8-1.9s.1-1,.4-1.4c.2-.4.6-.7,1-.9.4-.2,1.1-.4,1.9-.6,1.1-.2,1.9-.4,2.3-.6v-.2c0-.5-.1-.8-.3-1-.2-.2-.7-.3-1.3-.3s-.8,0-1,.2-.4.5-.6.9h0ZM439.8,77.6c-.3.1-.8.2-1.5.4-.7.1-1.1.3-1.3.4-.3.2-.5.5-.5.9s.1.6.4.9c.2.2.6.4,1,.4s.8-.1,1.2-.4c.3-.2.5-.5.6-.8,0-.2,0-.6,0-1.2,0,0,0-.5,0-.5Z"/>
      <path class="st0" d="M452.9,82h-2.4v-4.6c0-1,0-1.6-.2-1.9,0-.3-.3-.5-.5-.7s-.5-.2-.8-.2-.8.1-1.1.3-.6.5-.7.9-.2,1.1-.2,2.1v4.1h-2.4v-9.1h2.2v1.3c.8-1,1.8-1.5,3-1.5s1,.1,1.5.3c.4.2.8.4,1,.7.2.3.4.6.5,1s.1.9.1,1.6v5.7h0Z"/>
      <path class="st0" d="M463.6,82h-2.2v-1.3c-.4.5-.8.9-1.3,1.2-.5.2-1,.4-1.5.4-1.1,0-1.9-.4-2.7-1.3s-1.1-2-1.1-3.5.4-2.7,1.1-3.5,1.6-1.2,2.8-1.2,1.9.4,2.6,1.3v-4.5h2.4v12.6h0ZM457.2,77.2c0,1,.1,1.7.4,2.1.4.6.9.9,1.6.9s1-.2,1.4-.7c.4-.5.6-1.2.6-2.1s-.2-1.8-.6-2.3-.9-.7-1.4-.7-1.1.2-1.4.7-.6,1.1-.6,2h0Z"/>
      <path class="st0" d="M475.8,82v-12.6h9.3v2.1h-6.8v2.8h6.3v2.1h-6.3v3.4h7v2.1h-9.6Z"/>
      <path class="st0" d="M486.3,82l3.3-4.7-3.1-4.4h2.9l1.6,2.5,1.7-2.5h2.8l-3.1,4.3,3.4,4.8h-3l-1.9-2.8-1.9,2.8h-2.8Z"/>
      <path class="st0" d="M499.6,69.4v4.6c.8-.9,1.7-1.4,2.8-1.4s1.1.1,1.5.3c.4.2.8.5,1,.8.2.3.4.7.5,1.1s.1,1,.1,1.8v5.3h-2.4v-4.8c0-.9,0-1.6-.1-1.8,0-.3-.2-.5-.5-.6s-.5-.2-.9-.2-.8.1-1.1.3c-.3.2-.5.5-.7.9-.1.4-.2,1-.2,1.7v4.6h-2.4v-12.6h2.4Z"/>
      <path class="st0" d="M507.9,71.6v-2.2h2.4v2.2h-2.4ZM507.9,82v-9.1h2.4v9.1h-2.4Z"/>
      <path class="st0" d="M512.7,82v-12.6h2.4v4.5c.7-.9,1.6-1.3,2.6-1.3s2,.4,2.8,1.2,1.1,2,1.1,3.5-.4,2.8-1.1,3.6-1.6,1.3-2.7,1.3-1-.1-1.5-.4c-.5-.3-.9-.6-1.3-1.1v1.3h-2.2,0ZM515.1,77.2c0,.9.1,1.6.4,2.1.4.6,1,1,1.7,1s1-.2,1.4-.7.6-1.2.6-2.1-.2-1.8-.6-2.2-.9-.7-1.4-.7-1.1.2-1.4.7-.6,1.1-.6,2h0Z"/>
      <path class="st0" d="M523.5,71.6v-2.2h2.4v2.2h-2.4ZM523.5,82v-9.1h2.4v9.1h-2.4Z"/>
      <path class="st0" d="M532.6,72.9v1.9h-1.6v3.7c0,.7,0,1.2,0,1.3s.1.2.2.3.2.1.4.1.6,0,1-.2l.2,1.9c-.6.2-1.2.4-1.9.4s-.8,0-1.2-.2c-.4-.1-.6-.3-.8-.6-.2-.2-.3-.5-.3-.9,0-.3,0-.9,0-1.7v-4h-1.1v-1.9h1.1v-1.8l2.4-1.4v3.2h1.6,0Z"/>
      <path class="st0" d="M534.3,71.6v-2.2h2.4v2.2h-2.4ZM534.3,82v-9.1h2.4v9.1h-2.4Z"/>
      <path class="st0" d="M538.6,77.3c0-.8.2-1.6.6-2.3s.9-1.3,1.7-1.7,1.5-.6,2.4-.6c1.4,0,2.5.4,3.4,1.3s1.3,2,1.3,3.4-.4,2.5-1.3,3.4c-.9.9-2,1.4-3.4,1.4s-1.6-.2-2.4-.6-1.3-.9-1.7-1.7c-.4-.7-.6-1.6-.6-2.7h0ZM541,77.4c0,.9.2,1.6.6,2.1.4.5,1,.7,1.6.7s1.2-.2,1.6-.7.6-1.2.6-2.1-.2-1.6-.6-2.1-.9-.7-1.6-.7-1.2.2-1.6.7c-.4.5-.6,1.2-.6,2.1h0Z"/>
      <path class="st0" d="M558.1,82h-2.4v-4.6c0-1,0-1.6-.1-1.9-.1-.3-.3-.5-.5-.7s-.5-.2-.8-.2-.8.1-1.1.3-.6.5-.7.9-.2,1.1-.2,2.1v4.1h-2.4v-9.1h2.2v1.3c.8-1,1.8-1.5,3-1.5s1,.1,1.5.3c.4.2.8.4,1,.7.2.3.4.6.5,1s.1.9.1,1.6v5.7h0Z"/>
      <path class="st0" d="M578.4,77.4l2.5.8c-.4,1.4-1,2.4-1.9,3.1s-2,1-3.3,1-3-.6-4.1-1.7-1.6-2.7-1.6-4.7.5-3.7,1.6-4.9c1.1-1.2,2.5-1.7,4.3-1.7s2.8.4,3.7,1.4c.6.5,1,1.3,1.3,2.3l-2.5.6c-.1-.6-.5-1.2-.9-1.5-.5-.4-1-.6-1.7-.6s-1.7.3-2.3,1-.9,1.8-.9,3.2.3,2.7.9,3.4,1.3,1,2.2,1,1.2-.2,1.7-.6.8-1.1,1-2h0Z"/>
      <path class="st0" d="M588.3,79.1l2.4.4c-.3.9-.8,1.6-1.5,2-.7.5-1.5.7-2.5.7-1.6,0-2.8-.5-3.5-1.6-.6-.8-.9-1.9-.9-3.1s.4-2.7,1.2-3.5c.8-.9,1.8-1.3,3-1.3s2.4.4,3.2,1.3,1.2,2.3,1.1,4.1h-6c0,.7.2,1.3.6,1.7s.8.6,1.4.6.7-.1,1-.3.5-.5.6-1h0ZM588.4,76.6c0-.7-.2-1.2-.5-1.6s-.8-.5-1.2-.5-1,.2-1.3.6-.5.9-.5,1.6h3.6Z"/>
      <path class="st0" d="M601,82h-2.4v-4.6c0-1,0-1.6-.1-1.9-.1-.3-.3-.5-.5-.7s-.5-.2-.8-.2-.8.1-1.1.3-.6.5-.7.9-.2,1.1-.2,2.1v4.1h-2.4v-9.1h2.2v1.3c.8-1,1.8-1.5,3-1.5s1,.1,1.5.3c.4.2.8.4,1,.7.2.3.4.6.5,1s.1.9.1,1.6v5.7h0Z"/>
      <path class="st0" d="M607.6,72.9v1.9h-1.6v3.7c0,.7,0,1.2,0,1.3s.1.2.2.3.2.1.4.1.5,0,1-.2l.2,1.9c-.6.2-1.2.4-1.9.4s-.8,0-1.2-.2c-.4-.1-.6-.3-.8-.6-.2-.2-.3-.5-.3-.9,0-.3,0-.9,0-1.7v-4h-1.1v-1.9h1.1v-1.8l2.4-1.4v3.2h1.6,0Z"/>
      <path class="st0" d="M614.6,79.1l2.4.4c-.3.9-.8,1.6-1.5,2-.7.5-1.5.7-2.5.7-1.6,0-2.8-.5-3.5-1.6-.6-.8-.9-1.9-.9-3.1s.4-2.7,1.2-3.5c.8-.9,1.8-1.3,3-1.3s2.4.4,3.2,1.3,1.2,2.3,1.1,4.1h-6c0,.7.2,1.3.6,1.7s.8.6,1.4.6.7-.1,1-.3.5-.5.6-1h0ZM614.7,76.6c0-.7-.2-1.2-.5-1.6s-.8-.5-1.2-.5-1,.2-1.3.6-.5.9-.5,1.6h3.6Z"/>
      <path class="st0" d="M621.4,82h-2.4v-9.1h2.2v1.3c.4-.6.7-1,1-1.2.3-.2.6-.3,1-.3s1.1.1,1.6.4l-.8,2.1c-.4-.3-.8-.4-1.1-.4s-.6,0-.9.3-.4.5-.5,1c-.1.5-.2,1.5-.2,3.1v2.8h0Z"/>
    </g>
  </g>
</svg>