<?xml version="1.0" encoding="utf-8"?>
<!-- Generator: Adobe Illustrator 28.0.0, SVG Export Plug-In . SVG Version: 6.00 Build 0)  -->
<svg version="1.1" id="圖層_1" xmlns="http://www.w3.org/2000/svg" xmlns:xlink="http://www.w3.org/1999/xlink" x="0px" y="0px"
	 viewBox="0 0 17.2 18.1" style="enable-background:new 0 0 17.2 18.1;" xml:space="preserve">
<style type="text/css">
	.st0{fill:none;}
</style>
<path d="M14.6,18.1H2.6c-1.4,0-2.6-1.2-2.6-2.6V2.6C0,1.2,1.2,0,2.6,0h8.9c1.1,0,2.2,0.5,3,1.3L16,2.7c0.8,0.8,1.3,1.9,1.3,3v9.7
	C17.2,16.9,16.1,18.1,14.6,18.1z M2.6,1.7c-0.5,0-0.9,0.4-0.9,0.9v12.9c0,0.5,0.4,0.9,0.9,0.9h12.1c0.5,0,0.9-0.4,0.9-0.9V5.7
	c0-0.7-0.3-1.3-0.8-1.8l-1.4-1.4c-0.5-0.5-1.1-0.8-1.8-0.8H2.6z"/>
<path d="M15.4,6.3h-1.4c-1.4,0-2.6-1.2-2.6-2.6V2.3c0-0.5,0.4-0.9,0.9-0.9s0.9,0.4,0.9,0.9v1.4c0,0.5,0.4,0.9,0.9,0.9h1.4
	c0.5,0,0.9,0.4,0.9,0.9S15.8,6.3,15.4,6.3z"/>
<g>
	<path d="M12.9,13.9H4.3c-0.5,0-0.9-0.4-0.9-0.9s0.4-0.9,0.9-0.9h8.6c0.5,0,0.9,0.4,0.9,0.9S13.4,13.9,12.9,13.9z"/>
	<path d="M8.6,10.4c-0.5,0-0.9-0.4-0.9-0.9V4.8c0-0.5,0.4-0.9,0.9-0.9s0.9,0.4,0.9,0.9v4.8C9.5,10.1,9.1,10.4,8.6,10.4z"/>
	<path d="M8.6,10.4L8.6,10.4c-0.2,0-0.4-0.1-0.6-0.3L6.3,8.5c-0.3-0.3-0.3-0.9,0-1.2c0.3-0.3,0.9-0.3,1.2,0l1.1,1.1l1.1-1.1
		c0.3-0.3,0.9-0.3,1.2,0c0.3,0.3,0.3,0.9,0,1.2l-1.7,1.7C9.1,10.4,8.8,10.4,8.6,10.4z"/>
</g>
<rect x="0" y="0" class="st0" width="17.2" height="18.1"/>
</svg>
