<?xml version="1.0" encoding="utf-8"?>
<!-- Generator: Adobe Illustrator 28.0.0, SVG Export Plug-In . SVG Version: 6.00 Build 0)  -->
<svg version="1.1" id="圖層_1" xmlns="http://www.w3.org/2000/svg" xmlns:xlink="http://www.w3.org/1999/xlink" x="0px" y="0px"
	 viewBox="0 0 16.9 15.2" style="enable-background:new 0 0 16.9 15.2;" xml:space="preserve">
<style type="text/css">
	.st0{fill:#666666;}
</style>
<path class="st0" d="M16.8,5.8l-3.3-5.5C13.4,0.1,13.2,0,13,0H3.9C3.7,0,3.5,0.1,3.3,0.3L0.1,5.8C-0.1,6.1,0,6.4,0.2,6.6L8,15
	c0.1,0.1,0.3,0.2,0.5,0.2c0.2,0,0.3-0.1,0.5-0.2l7.8-8.4C16.9,6.4,16.9,6.1,16.8,5.8z M15.3,5.8h-3.6L13,1.9L15.3,5.8z M10.6,6.6
	l-2.2,6.7L6.2,6.6H10.6z M6.3,5.8l2.1-4.2l2.1,4.2H6.3z M9.2,1.3h3.2l-1.3,3.9L9.2,1.3z M5.8,5.1L4.5,1.3h3.2L5.8,5.1z M7.3,12.4
	L1.9,6.6h3.5L7.3,12.4z M11.5,6.6H15l-5.5,5.8L11.5,6.6z M3.9,1.9l1.3,3.9H1.6L3.9,1.9z"/>
</svg>
