<?xml version="1.0" encoding="utf-8"?>
<!-- Generator: Adobe Illustrator 28.0.0, SVG Export Plug-In . SVG Version: 6.00 Build 0)  -->
<svg version="1.1" id="圖層_1" xmlns="http://www.w3.org/2000/svg" xmlns:xlink="http://www.w3.org/1999/xlink" x="0px" y="0px"
	 viewBox="0 0 80 80" style="enable-background:new 0 0 80 80;" xml:space="preserve">
<style type="text/css">
	.st0{fill:#0D0A8A;}
</style>
<g>
	<path class="st0" d="M14.1,69.2c-0.6,0-1.2-0.3-1.7-0.8c-3.8-3.8-6.6-8.2-8.6-13.1c-1.4-3.6-2.3-7.2-2.6-10.9
		c0-0.2-0.1-0.4-0.1-0.6l0-0.1v-5.6l0-0.1c0-0.2,0.1-0.4,0.1-0.5c0.1-0.4,0.1-0.9,0.2-1.3c0.1-0.9,0.2-1.7,0.4-2.5
		c1.5-7.7,5-14.3,10.4-19.9C18,7.9,25,4.2,33.2,2.7c0.9-0.2,1.9-0.3,2.9-0.4c0.4-0.1,0.9-0.1,1.3-0.2h5.5l0.9,0.1
		c0.8,0.1,1.5,0.2,2.3,0.3c3.1,0.5,6.2,1.3,9.1,2.6c1.2,0.5,1.7,1.7,1.3,2.9c-0.3,0.9-1.1,1.4-2,1.4c-0.3,0-0.6-0.1-0.9-0.2
		c-3.3-1.3-6.5-2.2-9.8-2.5c-1.2-0.1-2.4-0.2-3.6-0.2c-1.9,0-3.8,0.2-5.7,0.5c-6,1-11.4,3.5-16,7.3C11.7,19.8,7.6,26.7,6.2,34.8
		c-2,11.4,1.1,21.5,9,30.1c0.5,0.6,0.9,1.2,1,1.7c0.3,1.1-0.4,1.9-1.2,2.3C14.8,69.1,14.4,69.2,14.1,69.2z"/>
	<path class="st0" d="M39.4,67.1c-14.7,0-26.6-12-26.6-26.7c0-7.1,2.8-13.8,7.8-18.9c5-5,11.7-7.8,18.9-7.8c7.1,0,13.8,2.8,18.9,7.8
		c5,5,7.8,11.7,7.8,18.9C66.1,55.1,54.1,67.1,39.4,67.1L39.4,67.1z M33.4,42.7c-0.2,0-0.5,0.1-0.6,0.3c-0.2,0.2-0.2,0.4-0.2,0.6
		c0.3,5.4,1.1,9.7,2.5,13.5c0.6,1.7,1.4,3.4,2.8,4.8c0.4,0.4,0.9,0.8,1.6,0.8l0,0c0.7,0,1.2-0.5,1.5-0.9c0.9-1,1.5-1.9,1.9-2.8
		c2.4-5,3.1-10.4,3.4-15.4c0-0.2-0.1-0.5-0.2-0.6s-0.4-0.3-0.6-0.3H33.4z M51.6,42.7c-0.5,0-0.8,0.4-0.8,0.8
		c-0.4,6.4-1.3,11.4-3.1,16c-0.1,0.3,0,0.7,0.2,0.9c0.2,0.2,0.4,0.2,0.6,0.2c0.1,0,0.2,0,0.3-0.1c6.7-3,11.9-9.9,12.6-16.9
		c0-0.2-0.1-0.5-0.2-0.7c-0.2-0.2-0.4-0.3-0.6-0.3H51.6z M18.4,42.7c-0.2,0-0.5,0.1-0.6,0.3c-0.2,0.2-0.2,0.4-0.2,0.7
		c0.7,7,6.1,14.2,12.6,16.9c0.1,0,0.2,0.1,0.3,0.1c0.2,0,0.4-0.1,0.6-0.2c0.2-0.2,0.3-0.6,0.2-0.9c-1.8-4.5-2.8-9.6-3.1-15.9
		c0-0.5-0.4-0.8-0.8-0.8H18.4z M48.5,20.3c-0.2,0-0.4,0.1-0.6,0.2c-0.2,0.2-0.3,0.6-0.2,0.9c1.8,4.5,2.7,9.5,3.1,15.9
		c0,0.5,0.4,0.8,0.8,0.8h8.9c0.2,0,0.5-0.1,0.6-0.3c0.2-0.2,0.2-0.4,0.2-0.7c-0.7-7.1-6.1-14.3-12.6-16.9
		C48.7,20.3,48.6,20.3,48.5,20.3z M30.4,20.2c-0.1,0-0.2,0-0.3,0.1C23.5,23,16.9,32.2,17.6,37.4c0.1,0.4,0.4,0.7,0.8,0.7h8.8
		c0.5,0,0.8-0.4,0.8-0.8c0.3-6.4,1.3-11.5,3.1-16c0.1-0.3,0-0.7-0.2-0.9C30.9,20.3,30.7,20.2,30.4,20.2z M39.4,18.2
		c-0.6,0-1.1,0.3-1.7,1c-1,1.2-1.7,2.3-2.2,3.4c-1.3,2.9-2.2,6.1-2.7,10.5c-0.1,1-0.2,1.9-0.3,2.9c0,0.4-0.1,0.9-0.1,1.3
		c0,0.2,0.1,0.5,0.2,0.7c0.2,0.2,0.4,0.3,0.6,0.3h12.1c0.2,0,0.5-0.1,0.6-0.3c0.2-0.2,0.2-0.4,0.2-0.6l-0.1-0.9
		c0-0.6-0.1-1.2-0.1-1.8c-0.4-4.7-1.2-8.2-2.6-11.4c-0.7-1.6-1.7-3-2.5-4.1C40.6,18.5,40,18.2,39.4,18.2z"/>
	<path class="st0" d="M38.8,78.8c-5.2-0.1-10.2-1.1-14.9-3.1c-1.3-0.6-1.9-1.7-1.4-2.9c0.3-0.9,1.1-1.4,2-1.4c0.3,0,0.7,0.1,1,0.2
		c4.3,1.8,8.7,2.7,13.1,2.7c0.3,0,0.6,0,0.9,0c16.4-0.4,30-11.8,33.1-27.7c2.2-11.3-0.7-21.5-8.6-30.3c-0.5-0.6-1.1-1.3-1.3-2
		c-0.3-1,0.3-1.9,1.1-2.3c0.3-0.2,0.7-0.3,1-0.3c0.6,0,1.1,0.2,1.6,0.7c3,2.9,5.4,6.3,7.3,10.1c3.1,6.1,4.4,12.7,4,19.6
		c-1,17.5-13.7,32.2-30.9,35.9C46,78.1,45,78.3,44,78.4c-1.2,0.1-2.5,0.2-3.7,0.3L38.8,78.8z"/>
</g>
</svg>
