<?xml version="1.0" encoding="utf-8"?>
<!-- Generator: Adobe Illustrator 28.0.0, SVG Export Plug-In . SVG Version: 6.00 Build 0)  -->
<svg version="1.1" id="圖層_1" xmlns="http://www.w3.org/2000/svg" xmlns:xlink="http://www.w3.org/1999/xlink" x="0px" y="0px"
	 viewBox="0 0 80 80" style="enable-background:new 0 0 80 80;" xml:space="preserve">
<style type="text/css">
	.st0{fill:#0D0A8A;}
</style>
<g>
	<g>
		<path class="st0" d="M78.8,62.1c-0.1,0.5-0.3,0.9-0.4,1.4c-1.1,3.3-4.1,5.5-7.6,5.6c-0.5,0-1.1,0-1.7,0c0,1.6,0,3.2,0,4.8
			c0,1.2-1.1,2-2.1,1.6c-0.7-0.3-1.1-0.8-1.1-1.6c0-1.3,0-2.6,0-3.9c0-0.3,0-0.5,0-0.9c-17.3,0-34.5,0-51.8,0c0,0.5,0,1,0,1.5
			c0,1.1,0,2.2,0,3.3c0,0.9-0.7,1.6-1.6,1.6c-0.9,0-1.6-0.7-1.6-1.6c0-1.3,0-2.7,0-4c0-0.2,0-0.5,0-0.7c-1.3-0.1-2.5-0.2-3.7-0.4
			c-3.5-0.8-6-4-6-7.6c0-4.3,0-8.7,0-13c0-4.6,3.6-8.1,8.2-8.2c9.3,0,18.6,0,27.9,0c6,0,11.9,0,17.9,0c0.3,0,0.6,0,1,0
			c0-0.3,0-0.6,0-0.9c0-4.5,0-8.9,0-13.4c0-1.3,1-2.1,2.1-1.7c0.7,0.2,1.1,0.8,1.1,1.8c0,3.1,0,6.3,0,9.4c0,1.6,0,3.2,0,4.9
			c0.3,0,0.6,0,0.8,0c3.4,0,6.7,0,10.1,0c4.4,0,7.4,2.5,8.4,6.8c0,0.1,0.1,0.1,0.1,0.2C78.8,52,78.8,57.1,78.8,62.1z M40.1,43.3
			C40.1,43.3,40.1,43.2,40.1,43.3c-10.1,0-20.2,0-30.3,0c-3.3,0-5.3,2-5.3,5.3c0,4.1,0,8.1,0,12.2c0,3,2.1,5.1,5.1,5.1
			c1.3,0,2.7,0,4,0c18.9,0,37.8,0,56.7,0c3.4,0,5.4-2,5.4-5.4c0-4,0-7.9,0-11.9c0-3.4-2-5.4-5.4-5.4c-4.1,0-8.3,0-12.4,0
			C51.9,43.3,46,43.3,40.1,43.3z"/>
		<path class="st0" d="M12.5,76.1c-1.2,0-2.1-0.9-2.1-2.1c0-0.9,0-1.9,0-2.8c0-0.4,0-0.8,0-1.2v-0.2c-0.2,0-0.5,0-0.7-0.1
			c-0.9-0.1-1.7-0.1-2.5-0.3c-3.7-0.9-6.4-4.2-6.4-8.1c0-4.6,0-9.2,0-13.1c0-4.9,3.8-8.6,8.7-8.7c6.6,0,13.3,0,19.8,0
			c2.7,0,5.4,0,8.1,0h18.4v-4.1c0-3.2,0-6.5,0-9.7c0-0.8,0.3-1.6,0.9-2c0.5-0.4,1.2-0.5,1.9-0.2c0.7,0.2,1.5,0.8,1.5,2.3
			c0,2.3,0,4.6,0,6.9v6.9h3.4c2.3,0,4.7,0,7,0c4.6,0,7.9,2.6,8.9,7.1c0,0,0,0.1,0.1,0.1l0.1,0.1v15.4v0.1c0,0.1-0.1,0.3-0.1,0.4
			c-0.1,0.3-0.2,0.6-0.3,0.9c-1.2,3.5-4.3,5.9-8.1,6c-0.4,0-0.8,0-1.2,0h-0.1c0,0.3,0,0.6,0,1c0,1.1,0,2.2,0,3.3
			c0,0.8-0.4,1.5-0.9,1.9s-1.2,0.5-1.9,0.2c-0.9-0.3-1.4-1.1-1.4-2.1v-4.2h-51c0,0.3,0,0.7,0,1s0,0.6,0,1c0,0.8,0,1.5,0,2.3
			C14.6,75.2,13.7,76.1,12.5,76.1L12.5,76.1z M21.2,40.5c-3.9,0-7.9,0-11.8,0c-4.4,0-7.7,3.3-7.7,7.6c0,3.8,0,8.4,0,13
			c0,3.4,2.4,6.3,5.6,7.1c0.8,0.2,1.5,0.2,2.4,0.3c0.4,0,0.8,0.1,1.2,0.1h0.5v1.1c0,0.4,0,0.8,0,1.2c0,0.9,0,1.9,0,2.8
			c0,0.7,0.5,1.2,1.1,1.1c0.6,0,1.1-0.5,1.1-1.1c0-0.8,0-1.5,0-2.3c0-0.3,0-0.6,0-1s0-0.7,0-1.1v-1h52.8v5.2c0,0.6,0.2,0.9,0.7,1.1
			c0.3,0.1,0.7,0.1,1-0.1s0.5-0.6,0.5-1c0-1.1,0-2.1,0-3.3c0-0.5,0-1,0-1.5v-0.5h0.5c0.2,0,0.4,0,0.6,0c0.4,0,0.8,0,1.1,0
			c3.3-0.1,6.1-2.1,7.1-5.3c0.1-0.3,0.2-0.6,0.3-0.9c0-0.1,0.1-0.2,0.1-0.4V47.1c0-0.1-0.1-0.1-0.1-0.2c-0.9-4.1-3.7-6.4-7.9-6.4
			c-2.3,0-4.7,0-7,0h-4.4v-7.9c0-2.3,0-4.6,0-6.9c0-0.9-0.4-1.2-0.8-1.3c-0.4-0.1-0.7-0.1-1,0.1s-0.5,0.6-0.5,1.2c0,3.2,0,6.5,0,9.7
			v5.2H37.3c-2.7,0-5.4,0-8.1,0C26.5,40.5,23.8,40.5,21.2,40.5z M11,66.4c-0.5,0-1,0-1.5,0c-3.3,0-5.6-2.3-5.6-5.6c0-3.3,0-6.7,0-10
			v-2.3c0-3.6,2.2-5.9,5.8-5.9c7.3,0,14.5,0,21.8,0h9.1l0,0h4.8c4.1,0,8.3,0,12.4,0c2.1,0,4.1,0,6.2,0s4.2,0,6.2,0l0,0
			c1.8,0,3.3,0.5,4.3,1.6c1,1,1.6,2.5,1.6,4.3c0,4,0,7.9,0,11.9c0,3.6-2.3,5.9-5.9,5.9c-14.2,0-28.4,0-42.5,0H13.5
			c-0.4,0-0.8,0-1.2,0C11.9,66.4,11.5,66.4,11,66.4z M23,43.7c-4.4,0-8.8,0-13.2,0c-3,0-4.8,1.8-4.8,4.8v2.3c0,3.3,0,6.6,0,9.9
			c0,2.7,1.9,4.6,4.6,4.6c0.9,0,1.9,0,2.8,0c0.4,0,0.8,0,1.2,0h14.2c14.2,0,28.4,0,42.5,0c3.1,0,4.9-1.8,4.9-4.9c0-4,0-7.9,0-11.9
			c0-1.5-0.4-2.8-1.3-3.6c-0.8-0.8-2.1-1.3-3.6-1.3l0,0c-2.1,0-4.2,0-6.2,0c-2.1,0-4.1,0-6.2,0c-4.1,0-8.3,0-12.4,0h-5.9l0,0h-8
			C28.7,43.7,25.8,43.7,23,43.7z"/>
	</g>
	<g>
		<path class="st0" d="M58.3,4.4c6.1,0.1,11.6,2.7,15.8,7.8c0.7,0.9,0.7,1.9,0,2.5s-1.7,0.5-2.4-0.4C67.8,9.7,63,7.5,57.1,7.7
			C52,7.9,47.7,10,44.3,13.8c-0.2,0.2-0.3,0.4-0.5,0.6c-0.7,0.7-1.6,0.8-2.3,0.3c-0.7-0.6-0.9-1.6-0.2-2.3c1.4-1.4,2.8-2.9,4.3-4.1
			C49.3,5.6,53.4,4.5,58.3,4.4z"/>
		<path class="st0" d="M73.1,15.6c-0.1,0-0.1,0-0.2,0c-0.6-0.1-1.2-0.4-1.7-1C67.5,10.2,62.7,8,57,8.2c-4.9,0.2-9,2.2-12.4,6
			c-0.1,0.1-0.1,0.2-0.2,0.2c-0.1,0.1-0.2,0.2-0.3,0.3c-0.9,0.9-2.1,1.1-3,0.3c-0.5-0.4-0.8-0.9-0.8-1.5s0.2-1.1,0.6-1.6
			c0.2-0.2,0.4-0.4,0.6-0.6c1.2-1.2,2.4-2.5,3.8-3.5c3.5-2.6,7.7-3.9,12.8-4l0,0l0,0c6.4,0.1,12,2.9,16.2,8c0.9,1.1,0.9,2.4-0.1,3.2
			C74,15.4,73.6,15.6,73.1,15.6z M57.8,7.2c5.7,0,10.4,2.3,14.2,6.8c0.3,0.4,0.7,0.6,1,0.6s0.5-0.1,0.7-0.3c0.5-0.4,0.5-1.1,0-1.8
			c-4-4.8-9.3-7.5-15.5-7.6C53.3,5,49.4,6.2,46,8.7c-1.3,1-2.5,2.2-3.7,3.4c-0.2,0.2-0.4,0.4-0.6,0.6c-0.2,0.2-0.3,0.5-0.3,0.8
			s0.2,0.6,0.4,0.8c0.5,0.4,1.1,0.3,1.6-0.2c0.1-0.1,0.2-0.2,0.3-0.3s0.2-0.2,0.2-0.3c3.5-4,7.9-6.1,13.1-6.3
			C57.3,7.2,57.6,7.2,57.8,7.2z"/>
	</g>
	<g>
		<path class="st0" d="M58.1,14.1c3.8,0.1,7,1.8,9.2,5.2c0.6,1,0.5,1.9-0.3,2.5c-0.8,0.5-1.7,0.2-2.4-0.7c-3.3-4.9-10.2-4.9-13.6,0
			c-0.7,1-1.8,1.2-2.6,0.5c-0.6-0.6-0.6-1.3-0.1-2.2C50.3,16.1,53.9,14.1,58.1,14.1z"/>
		<path class="st0" d="M66.1,22.5c-0.7,0-1.4-0.4-2-1.2c-1.5-2.2-3.8-3.5-6.3-3.5l0,0c-2.5,0-4.9,1.3-6.4,3.5
			c-0.4,0.7-1.1,1.1-1.8,1.1c-0.6,0.1-1.2-0.1-1.6-0.6C47.2,21,47.2,20,47.8,19c2.1-3.4,5.9-5.5,10.2-5.5l0,0l0,0
			c4.1,0.1,7.4,2,9.6,5.4c0.4,0.6,0.6,1.3,0.4,1.9c-0.1,0.5-0.4,1-0.9,1.3C66.9,22.4,66.5,22.5,66.1,22.5z M57.8,16.8L57.8,16.8
			c2.9,0,5.5,1.4,7.2,3.9c0.4,0.6,1,1,1.7,0.6c0.3-0.2,0.4-0.4,0.5-0.7c0.1-0.3,0-0.7-0.3-1.1c-2.1-3.2-5-4.8-8.8-5l0,0
			c-3.9,0-7.4,1.9-9.3,5c-0.5,0.9-0.2,1.3,0,1.6c0.2,0.2,0.5,0.3,0.8,0.3c0.4,0,0.8-0.3,1-0.7C52.3,18.3,54.9,16.8,57.8,16.8z"/>
	</g>
	<g>
		<path class="st0" d="M27.1,54.6c0-2.7,2.2-4.9,4.8-4.9c2.7,0,4.9,2.2,4.8,4.9c0,2.6-2.2,4.8-4.8,4.8
			C29.3,59.4,27.1,57.3,27.1,54.6z M33.5,54.6c0-0.9-0.7-1.6-1.6-1.6s-1.6,0.7-1.6,1.6c0,0.9,0.7,1.6,1.6,1.6
			C32.8,56.2,33.5,55.5,33.5,54.6z"/>
		<path class="st0" d="M31.9,59.9c-1.4,0-2.8-0.6-3.8-1.6s-1.6-2.4-1.6-3.8l0,0c0-1.4,0.6-2.8,1.6-3.8s2.3-1.6,3.8-1.6l0,0
			c1.4,0,2.8,0.6,3.8,1.6s1.6,2.4,1.6,3.8C37.3,57.5,34.9,59.9,31.9,59.9L31.9,59.9z M31.9,50.2c-1.2,0-2.2,0.4-3.1,1.3
			c-0.8,0.8-1.3,1.9-1.3,3.1l0,0c0,1.2,0.5,2.3,1.3,3.1s1.9,1.3,3.1,1.3l0,0c2.4,0,4.3-1.9,4.3-4.3c0-1.1-0.4-2.2-1.3-3.1
			C34.2,50.7,33.1,50.2,31.9,50.2L31.9,50.2z M31.9,56.7c-0.5,0-1.1-0.2-1.5-0.6c-0.4-0.4-0.6-1-0.6-1.5c0-1.1,0.9-2.1,2.1-2.1
			c0.6,0,1.1,0.2,1.5,0.6c0.4,0.4,0.6,1,0.6,1.5l0,0C34,55.7,33.1,56.7,31.9,56.7L31.9,56.7z M31.9,53.5L31.9,53.5
			c-0.6,0-1.1,0.5-1.1,1.1c0,0.3,0.1,0.6,0.3,0.8c0.2,0.2,0.5,0.3,0.8,0.3c0.6,0,1.1-0.5,1.1-1.1c0-0.3-0.1-0.6-0.3-0.8
			C32.5,53.6,32.2,53.5,31.9,53.5z"/>
	</g>
	<g>
		<path class="st0" d="M20.6,54.5c0,2.7-2.2,4.9-4.9,4.9s-4.9-2.2-4.8-4.9c0-2.6,2.2-4.8,4.8-4.8C18.4,49.7,20.6,51.9,20.6,54.5z
			 M15.7,56.2c0.9,0,1.6-0.8,1.6-1.7s-0.8-1.6-1.6-1.6c-0.9,0-1.6,0.7-1.6,1.6C14.1,55.4,14.9,56.2,15.7,56.2z"/>
		<path class="st0" d="M15.7,59.9L15.7,59.9c-1.4,0-2.8-0.6-3.8-1.6s-1.6-2.4-1.6-3.8c0-2.9,2.4-5.3,5.3-5.3l0,0
			c1.4,0,2.8,0.6,3.8,1.6s1.6,2.4,1.6,3.8l0,0c0,1.4-0.6,2.8-1.6,3.8C18.5,59.4,17.2,59.9,15.7,59.9z M15.7,50.2L15.7,50.2
			c-2.4,0-4.3,2-4.3,4.3c0,1.2,0.4,2.3,1.3,3.1c0.8,0.8,1.9,1.3,3.1,1.3l0,0c1.2,0,2.2-0.5,3.1-1.3c0.8-0.8,1.3-1.9,1.3-3.1l0,0
			c0-1.2-0.5-2.2-1.3-3.1C18,50.7,16.9,50.2,15.7,50.2z M15.7,56.7c-0.6,0-1.1-0.2-1.5-0.6c-0.4-0.4-0.6-1-0.6-1.5
			c0-1.1,1-2.1,2.1-2.1l0,0c1.1,0,2.1,0.9,2.1,2.1c0,0.6-0.2,1.1-0.6,1.5C16.9,56.4,16.3,56.7,15.7,56.7v-0.5V56.7L15.7,56.7z
			 M15.7,53.5L15.7,53.5c-0.6,0-1.1,0.5-1.1,1.1c0,0.3,0.1,0.6,0.3,0.8s0.5,0.3,0.8,0.3l0,0c0.3,0,0.6-0.1,0.8-0.3s0.3-0.5,0.3-0.8
			C16.8,54,16.3,53.5,15.7,53.5z"/>
	</g>
	<g>
		<path class="st0" d="M64.3,49.7c2.7,0,4.9,2.2,4.8,4.9c0,2.7-2.2,4.8-4.9,4.8c-2.6,0-4.8-2.2-4.8-4.8
			C59.4,51.9,61.6,49.7,64.3,49.7z M64.3,56.2c0.9,0,1.6-0.8,1.6-1.6c0-0.9-0.8-1.6-1.6-1.6c-0.9,0-1.6,0.7-1.6,1.6
			C62.6,55.4,63.4,56.2,64.3,56.2z"/>
		<path class="st0" d="M64.3,59.9C64.3,59.9,64.2,59.9,64.3,59.9c-3,0-5.3-2.4-5.3-5.3c0-1.4,0.6-2.8,1.6-3.8s2.4-1.6,3.8-1.6l0,0
			c1.4,0,2.8,0.6,3.8,1.6s1.6,2.4,1.6,3.8c0,1.4-0.6,2.8-1.6,3.8C67,59.4,65.7,59.9,64.3,59.9z M64.3,50.2c-1.2,0-2.2,0.5-3.1,1.3
			c-0.8,0.8-1.3,1.9-1.3,3.1c0,2.4,1.9,4.3,4.3,4.3l0,0c1.2,0,2.2-0.4,3.1-1.3c0.8-0.8,1.3-1.9,1.3-3.1c0-1.2-0.4-2.3-1.3-3.1
			C66.5,50.7,65.4,50.2,64.3,50.2L64.3,50.2z M64.3,56.7L64.3,56.7L64.3,56.7c-0.6,0-1.1-0.2-1.5-0.7c-0.4-0.4-0.6-1-0.6-1.5
			c0-1.1,1-2.1,2.1-2.1l0,0c1.1,0,2.1,1,2.1,2.1c0,0.6-0.2,1.1-0.6,1.5C65.4,56.5,64.8,56.7,64.3,56.7z M64.3,55.7L64.3,55.7
			c0.3,0,0.6-0.1,0.8-0.3c0.2-0.2,0.3-0.5,0.3-0.8c0-0.6-0.5-1.1-1.1-1.1l0,0c-0.6,0-1.1,0.5-1.1,1.1c0,0.3,0.1,0.6,0.3,0.8
			C63.7,55.5,64,55.7,64.3,55.7L64.3,55.7z"/>
	</g>
</g>
</svg>
