<?xml version="1.0" encoding="utf-8"?>
<!-- Generator: Adobe Illustrator 28.0.0, SVG Export Plug-In . SVG Version: 6.00 Build 0)  -->
<svg version="1.1" id="圖層_1" xmlns="http://www.w3.org/2000/svg" xmlns:xlink="http://www.w3.org/1999/xlink" x="0px" y="0px"
	 viewBox="0 0 80 80" style="enable-background:new 0 0 80 80;" xml:space="preserve">
<style type="text/css">
	.st0{fill:#0D0A8A;}
</style>
<g>
	<g>
		<g>
			<path class="st0" d="M77.7,17.8H2.3c-1,0-1.8-0.8-1.8-1.8V8c0-1,0.8-1.8,1.8-1.8h75.4c1,0,1.8,0.8,1.8,1.8v8
				C79.5,17,78.7,17.8,77.7,17.8z M4.1,14.2h71.8V9.8H4.1V14.2z"/>
			<path class="st0" d="M77.7,62.3H2.3c-1,0-1.8-0.8-1.8-1.8v-5c0-1,0.8-1.8,1.8-1.8h75.4c1,0,1.8,0.8,1.8,1.8v5
				C79.5,61.5,78.7,62.3,77.7,62.3z M4.1,58.7h71.8v-1.4H4.1V58.7z"/>
			<path class="st0" d="M75.4,57.4H4.9c-1,0-1.8-0.8-1.8-1.8V16c0-1,0.8-1.8,1.8-1.8h70.5c1,0,1.8,0.8,1.8,1.8v39.6
				C77.2,56.6,76.4,57.4,75.4,57.4z M6.7,53.8h66.9v-36H6.7V53.8z"/>
			<path class="st0" d="M45.5,9h-11c-0.5,0-1-0.2-1.3-0.6C32.8,8,32.6,7.5,32.7,7C33,3.2,36.2,0.3,40,0.3c3.8,0,7,2.9,7.3,6.7
				c0,0.5-0.1,1-0.5,1.4C46.5,8.8,46,9,45.5,9z M37.1,5.4h5.8C42.2,4.5,41.2,4,40,4S37.8,4.5,37.1,5.4z"/>
			<path class="st0" d="M40,67.6c-3.8,0-7-2.9-7.3-6.7c0-0.5,0.1-1,0.5-1.4c0.3-0.4,0.8-0.6,1.3-0.6h11c0.5,0,1,0.2,1.3,0.6
				c0.3,0.4,0.5,0.9,0.5,1.4C46.9,64.7,43.8,67.6,40,67.6z M37.1,62.5c0.7,0.9,1.7,1.4,2.9,1.4c1.2,0,2.2-0.5,2.9-1.4H37.1z"/>
			<path class="st0" d="M40,73.8c-1,0-1.8-0.8-1.8-1.8v-6.3c0-1,0.8-1.8,1.8-1.8s1.8,0.8,1.8,1.8V72C41.8,73,41,73.8,40,73.8z"/>
			<path class="st0" d="M40,79.3c-2.4,0-4.3-2-4.3-4.3s2-4.3,4.3-4.3c2.4,0,4.3,2,4.3,4.3S42.4,79.3,40,79.3z M40,74.3
				c-0.4,0-0.7,0.3-0.7,0.7s0.3,0.7,0.7,0.7s0.7-0.3,0.7-0.7S40.4,74.3,40,74.3z"/>
		</g>
	</g>
	<g>
		<g>
			<path class="st0" d="M38.4,46.5c-0.2-0.1-0.5-0.1-0.7-0.2c-1.8-0.5-3-2.2-3-4.1c0-0.6,0-2.1,0-2.7c0-0.5,0.4-0.8,0.8-0.8
				c0.5,0,0.8,0.4,0.8,0.8c0,0.5,0,2.1,0,2.6c0,1.4,1,2.5,2.3,2.6c1.2,0.1,2.5-0.9,2.6-2.1c0.1-0.7,0.1-1.3,0-2
				c0-1.9,1.3-3.8,3.4-4.2c2.2-0.4,4.4,1.1,4.8,3.2c0.1,0.3,0.1,0.6,0.1,0.9c0,1.6,0,3.2,0,4.7c0,0.5-0.1,0.9-0.6,1.1
				c-0.1,0-0.3,0-0.4,0c-0.5-0.2-0.6-0.6-0.6-1.1c0-1.5,0-3,0-4.5c0-0.2,0-0.4,0-0.6c-0.2-1.2-1.4-2.2-2.6-2.1
				C44,38.3,43,39.4,43,40.8c0,0.5,0,1.1,0,1.6c0,1.9-1.3,3.6-3.2,4c-0.2,0-0.4,0.1-0.5,0.1C39,46.5,38.7,46.5,38.4,46.5z"/>
			<path class="st0" d="M49.1,47l-0.7,0c-0.6-0.2-0.9-0.8-0.9-1.5c0-1.2,0-2.3,0-3.5l0-1c0-0.2,0-0.4,0-0.5c-0.1-1-1.1-1.8-2.1-1.7
				c-1.1,0.1-1.9,1-1.9,2.1l0,1.6c0,2.1-1.4,4-3.5,4.5c-0.1,0-0.3,0.1-0.4,0.1l-0.3,0l-1.2-0.1c-0.2,0-0.3-0.1-0.5-0.1
				c-2-0.6-3.3-2.4-3.3-4.5c0-0.6,0-2.1,0-2.7c0-0.4,0.1-0.7,0.4-0.9c0.2-0.2,0.6-0.4,0.9-0.4c0,0,0,0,0,0c0.7,0,1.3,0.6,1.3,1.3
				l0,2.6c0,1.2,0.8,2.1,1.9,2.2c1,0.1,2-0.7,2.1-1.7c0.1-0.6,0.1-1.2,0-1.9c0-2.2,1.6-4.2,3.8-4.6c2.4-0.5,4.9,1.2,5.3,3.6
				c0.1,0.3,0.1,0.6,0.1,0.9c0,0.6,0,1.3,0,1.9c0,0.9,0,1.9,0,2.8C50.1,46.2,49.8,46.7,49.1,47L49.1,47z M48.7,46h0.2
				c0.2-0.1,0.3-0.2,0.3-0.6c0-0.9,0-1.9,0-2.8c0-0.6,0-1.3,0-1.9c0-0.3,0-0.5-0.1-0.8c-0.4-1.9-2.3-3.2-4.2-2.9
				c-1.8,0.3-3.1,1.9-3.1,3.7c0,0.7,0,1.4,0,2c-0.1,1.5-1.6,2.7-3.1,2.5c-1.6-0.1-2.8-1.5-2.8-3.1l0-2.6c0-0.2-0.1-0.4-0.4-0.4
				c0,0,0,0,0,0c-0.1,0-0.2,0-0.3,0.1c-0.1,0.1-0.1,0.2-0.1,0.3c0,0.6,0,2.1,0,2.7c0,1.7,1.1,3.2,2.7,3.6c0.1,0,0.3,0.1,0.4,0.1
				l0.2,0l0.9,0c0.1,0,0.2-0.1,0.4-0.1c1.6-0.4,2.8-1.9,2.8-3.6l0-1.6c0-1.6,1.2-2.9,2.7-3c1.5-0.1,2.9,1,3.1,2.5c0,0.2,0,0.4,0,0.7
				l0,1c0,1.2,0,2.3,0,3.5C48.5,45.8,48.5,45.9,48.7,46z"/>
		</g>
		<g>
			<path class="st0" d="M31.4,29.9c-0.3,0-0.6,0-0.8,0c-0.5,0-0.8-0.4-0.8-0.8c0-0.5,0.4-0.8,0.8-0.8c0.7,0,1.5,0,2.2,0
				c0.1,0,0.2,0,0.3,0c0-0.1,0-0.2,0-0.2c0-1.2,0-0.9,0-2.1c0-0.4,0.3-0.8,0.7-0.8c0.4-0.1,0.8,0.2,0.9,0.6c0,0.1,0,0.2,0,0.2
				c0,1.2,0,0.8,0,2c0,0.1,0,0.2,0,0.2c0.6,0,1.1,0,1.7,0c0-0.1,0-0.1,0-0.2c0-1.2,0-0.9,0-2c0-0.4,0.3-0.8,0.7-0.8
				c0.4-0.1,0.8,0.2,0.9,0.6c0,0.1,0,0.2,0,0.3c0,1.2,0,0.8,0,2c0,0.1,0,0.2,0,0.3c0.1,0,0.2,0,0.2,0c0.7,0,1.5,0,2.2,0
				c0.5,0,0.9,0.3,0.9,0.8c0,0.5-0.4,0.8-0.9,0.8c-0.3,0-0.5,0-0.8,0c0,0.1,0,0.2,0,0.2c0,0.8,0,1.6,0,2.4c0,2-1.6,3.7-3.6,4
				c-2.2,0.3-4.3-1.2-4.7-3.4c0-0.2-0.1-0.4-0.1-0.7c0-0.8,0-1.6,0-2.3C31.4,30.1,31.4,30,31.4,29.9z M33.1,29.9c0,0.3,0,0.5,0,0.7
				c0,0.7,0,1.4,0,2.2c0.1,1.2,1.4,2.2,2.6,2.1c1.4-0.1,2.3-1.2,2.3-2.5c0-0.7,0-1.5,0-2.2c0-0.1,0-0.1,0-0.2
				C36.4,29.9,34.7,29.9,33.1,29.9z"/>
			<path class="st0" d="M35.6,37c-2.2,0-4.1-1.6-4.5-3.8c0-0.2-0.1-0.5-0.1-0.7c0-0.6,0-1.1,0-1.7l0-0.4l-0.4,0
				c-0.7,0-1.3-0.6-1.3-1.3c0-0.7,0.6-1.3,1.3-1.3l1.5,0l0.5,0l0-1.8c0-0.6,0.5-1.2,1.1-1.3c0.7-0.1,1.3,0.3,1.4,1
				c0,0.1,0,0.2,0,0.3l0,1.8h0.7l0-1.8c0-0.7,0.5-1.2,1.1-1.3c0.7-0.1,1.3,0.3,1.4,1c0,0.1,0,0.3,0,0.4l0,1.8h2
				c0.8,0,1.3,0.6,1.3,1.3c0,0.7-0.6,1.3-1.3,1.3h-0.3l0,0.5c0,0.6,0,1.1,0,1.7c0,2.2-1.8,4.1-4,4.4C36,37,35.8,37,35.6,37z
				 M31.4,29.4h0.5l0,1.3c0,0.6,0,1.1,0,1.7c0,0.2,0,0.4,0.1,0.6c0.3,1.9,2.2,3.2,4.1,3c1.7-0.2,3.2-1.8,3.2-3.5c0-0.5,0-1.1,0-1.6
				l0-1.4l1.3,0c0.2,0,0.4-0.1,0.4-0.4c0-0.3-0.2-0.4-0.4-0.4l-1.5,0l-1.4,0l0-2.7c0,0,0-0.1,0-0.1c-0.1-0.2-0.2-0.3-0.4-0.3
				c-0.2,0-0.3,0.2-0.3,0.4l0,1.2l0,1.5h-2.6l0-2.7c0-0.1,0-0.1,0-0.1c0-0.2-0.2-0.3-0.4-0.3c-0.2,0-0.3,0.2-0.3,0.4l0,1.3l0,1.5
				l-3,0c-0.2,0-0.4,0.2-0.4,0.4c0,0.2,0.1,0.4,0.4,0.4l0.6,0L31.4,29.4z M35.5,35.3c-1.4,0-2.7-1.1-2.9-2.5c-0.1-0.5,0-1,0-1.6
				c0-0.2,0-0.4,0-0.6c0-0.2,0-0.3,0-0.5l0-0.7h5.9l0,0.4c0,0.1,0,0.2,0,0.2v2.2c0,1.6-1.2,2.9-2.8,3C35.7,35.3,35.6,35.3,35.5,35.3
				z M33.5,30.4l0,0.3c0,0.2,0,0.4,0,0.7c0,0.5,0,1,0,1.5c0.1,1,1.1,1.8,2.1,1.7c1.1-0.1,1.9-1,1.9-2.1l0-2H33.5z"/>
		</g>
		<g>
			<path class="st0" d="M47.4,28.4c0.7,0,1.3,0,1.9,0c0.7,0,1.1,0.6,0.8,1.3c-0.5,1.1-1.1,2.1-1.6,3.2c-0.2,0.5-0.7,0.6-1.1,0.4
				c-0.4-0.2-0.6-0.7-0.3-1.2c0.3-0.6,0.6-1.2,0.9-1.8c0-0.1,0.1-0.1,0.1-0.2c-0.1,0-0.2,0-0.2,0c-0.6,0-1.2,0-1.8,0
				c-0.6,0-1-0.6-0.8-1.1c0.6-1.2,1.2-2.4,1.8-3.5c0.2-0.4,0.7-0.5,1.1-0.3c0.4,0.2,0.5,0.7,0.4,1.1c-0.2,0.5-0.5,0.9-0.7,1.4
				C47.7,27.9,47.5,28.1,47.4,28.4z"/>
			<path class="st0" d="M47.7,33.9c-0.2,0-0.4,0-0.6-0.1c-0.7-0.3-0.9-1.1-0.5-1.8l0.7-1.4h0c-0.4,0-0.8,0-1.2,0
				c-0.4,0-0.9-0.2-1.1-0.6c-0.2-0.3-0.2-0.8-0.1-1.1c0.6-1.3,1.3-2.6,1.8-3.5c0.1-0.3,0.4-0.5,0.7-0.6c0.3-0.1,0.7-0.1,1,0.1
				c0.6,0.3,0.8,1.1,0.5,1.7c-0.2,0.3-0.3,0.7-0.5,1L48.1,28l1.2,0c0.5,0,0.9,0.2,1.2,0.6c0.2,0.4,0.2,0.9,0,1.3
				C50,31,49.4,32,48.9,33.1c-0.2,0.3-0.5,0.6-0.8,0.7C48,33.8,47.8,33.9,47.7,33.9z M47.8,29.6h0.9l-1.3,2.7
				c-0.1,0.2-0.1,0.4,0.1,0.6c0.1,0,0.2,0.1,0.3,0c0.1,0,0.2-0.1,0.3-0.2c0.5-1.1,1.1-2.1,1.6-3.2c0.1-0.2,0.1-0.3,0-0.4
				c-0.1-0.1-0.2-0.2-0.4-0.2l-2.6,0l0.9-1.8c0.2-0.3,0.3-0.6,0.5-1c0.1-0.2,0-0.4-0.2-0.5c-0.1-0.1-0.2-0.1-0.3,0
				c0,0-0.1,0-0.1,0.1c-0.5,1-1.1,2.2-1.8,3.5c0,0.1,0,0.2,0,0.2c0.1,0.1,0.2,0.2,0.3,0.2c0.4,0,0.8,0,1.2,0L47.8,29.6z"/>
		</g>
	</g>
</g>
</svg>
