<?xml version="1.0" encoding="utf-8"?>
<!-- Generator: Adobe Illustrator 28.0.0, SVG Export Plug-In . SVG Version: 6.00 Build 0)  -->
<svg version="1.1" id="圖層_1" xmlns="http://www.w3.org/2000/svg" xmlns:xlink="http://www.w3.org/1999/xlink" x="0px" y="0px"
	 viewBox="0 0 80 80" style="enable-background:new 0 0 80 80;" xml:space="preserve">
<style type="text/css">
	.st0{fill:#0D0A8A;}
</style>
<g>
	<g>
		<path class="st0" d="M39.5,41.3c-1.6,0-3.4,0-5.3-0.2c-5.7-0.6-10.6-5.9-10.8-11.7c-0.1-4.8-0.1-9.6,0-14.3
			C23.6,8.9,29,3.5,35.3,3.3c1.6-0.1,3.1-0.1,4.7-0.1c1.6,0,3.2,0,4.7,0.1C50.9,3.5,56.4,9,56.6,15.2c0.1,1.6,0,3.2,0,4.8
			c0,0.7,0,1.5,0,2.2v1.6l0,0c0,0.1,0,0.2,0,0.4c0,1.4,0,2.8,0,4.2c0,3.6-1.4,6.9-3.8,9.3c-2.4,2.4-5.7,3.7-9.3,3.7h-0.2
			c-0.6,0-1.3,0-1.9,0C40.8,41.3,40.1,41.3,39.5,41.3z M40,5.8c-1.4,0-2.9,0-4.3,0.1c-5.3,0.1-9.6,4.4-9.7,9.7
			c-0.1,4.2-0.1,8.7,0,13.4c0.1,4.9,3.8,9.1,8.5,9.5c2,0.2,3.9,0.3,5.8,0.3c1.6,0,3.2-0.1,4.8-0.2c5.2-0.5,8.8-4.6,8.9-10.1
			c0-1.4,0-2.9,0-4.3c0-0.6,0-1.3,0-1.9v-1.6l0,0c0-0.2,0-0.3,0-0.5c0-1.5,0-3.1,0-4.7c-0.2-5.1-4.5-9.4-9.6-9.6
			C42.9,5.9,41.5,5.8,40,5.8z"/>
		<path class="st0" d="M39.5,42.4c-1.6,0-3.5,0-5.4-0.2c-6.2-0.6-11.6-6.5-11.8-12.8c-0.1-4.8-0.1-9.6,0-14.3
			c0.2-6.8,6.1-12.7,12.9-12.9c3.1-0.1,6.3-0.1,9.5,0c6.8,0.2,12.7,6.2,12.9,13c0.1,1.6,0,3.3,0,4.8c0,0.7,0,1.5,0,2.2v0.5l0,0v1.5
			c0,1.4,0,2.8,0,4.2c0,3.9-1.5,7.5-4.1,10.1s-6.2,4-10.1,4h-0.2c-0.6,0-1.3,0-1.9,0C40.8,42.4,40.1,42.4,39.5,42.4z M40,4.3
			c-1.5,0-3.1,0-4.7,0.1c-5.7,0.2-10.6,5.1-10.8,10.8c-0.1,4.7-0.1,9.4,0,14.2c0.2,5.2,4.6,10.1,9.8,10.6c1.8,0.2,3.6,0.2,5.2,0.2
			c0.6,0,1.3,0,1.9,0c0.7,0,1.3,0,2,0h0.2c3.3,0,6.3-1.2,8.5-3.4s3.4-5.2,3.4-8.5c0-1.1,0-2.3,0-3.4l0,0v-2.7c0-0.8,0-1.5,0-2.3
			c0-1.6,0-3.2,0-4.7C55.3,9.6,50.3,4.6,44.7,4.4C43.1,4.3,41.6,4.3,40,4.3z M40.3,39.9c-1.9,0-3.9-0.1-5.9-0.3
			c-5.2-0.5-9.4-5.2-9.5-10.6c-0.1-4.6-0.1-9.1,0-13.4C25,9.7,29.8,4.9,35.7,4.8c2.9-0.1,5.9-0.1,8.7,0C50.1,5,54.9,9.7,55.1,15.4
			c0.1,1.5,0,3.1,0,4.6v0.7v1.6c0,0.6,0,1.3,0,1.9c0,1.4,0,2.9,0,4.3c-0.1,6-4.2,10.6-9.9,11.1C43.6,39.8,42,39.9,40.3,39.9z
			 M40,6.9c-1.4,0-2.8,0-4.3,0.1c-4.7,0.1-8.5,3.9-8.6,8.6c-0.1,4.2-0.1,8.7,0,13.3c0.1,4.3,3.4,8,7.5,8.4c3.6,0.4,7.1,0.4,10.4,0.1
			c4.6-0.4,7.8-4.1,7.9-9c0-1.4,0-2.9,0-4.3c0-0.7,0-1.3,0-1.9v-2.1c0-1.5,0-3.1,0-4.7c-0.2-4.6-4-8.4-8.6-8.5
			C42.9,7,41.5,6.9,40,6.9z"/>
	</g>
	<g>
		<path class="st0" d="M45.4,76.8c-1,0-1.9,0-2.9,0H40c0,0-7.7,0-9.2,0c-0.6,0-0.9-0.2-1.2-0.7c-0.2-0.5-0.2-0.9,0.1-1.3
			c0.2-0.3,0.5-0.6,1.2-0.6c2.2,0,8.1,0,8.1,0V62.5h-1.6c-2.6,0-5.1-0.1-7.5-0.2c-3.5-0.1-6.9-1.7-9.5-4.4s-4-6.2-4.1-9.8
			c0-1.4,0-2.9,0-4.4c0-0.8,0-1.6,0-2.5c0-3.7-1.9-6.4-5.4-7.7c-0.3-0.1-1.4-0.6-1-1.7c0.2-0.7,0.8-0.9,1.2-0.9c0.2,0,0.4,0,0.7,0.1
			c4.1,1.3,7,5.2,7.1,9.5c0,1.3,0,2.6,0,3.9c0,0.5,0,1,0,1.5v1.6h42v-2.4c0-2,0-4,0.2-5.9c0.4-3.7,3.4-7.2,7.1-8.2
			c0.2,0,0.3-0.1,0.5-0.1c0.6,0,1,0.3,1.2,0.9c0.2,0.7-0.1,1.4-0.9,1.7c-3.8,1.5-5.5,3.9-5.5,8.1c0,0.7,0,1.4,0,2.2
			c0,2.1,0,4.1-0.2,6.1c-0.7,6.6-6.6,12.1-13.1,12.4c-2.5,0.1-4.9,0.1-7.4,0.2h-1.6v11.7h2.7c1.7,0,3.4,0,5,0c0.5,0,0.8,0.1,1.1,0.4
			c0.2,0.2,0.3,0.6,0.3,0.9c0,1.1-1,1.3-1.5,1.3C47.8,76.8,46.6,76.8,45.4,76.8z M19.6,51.3c1.5,4.9,5.7,8.2,10.9,8.5
			c1.1,0.1,2.2,0.1,3.6,0.1c1,0,2,0,3,0c0.4,0,0.9,0,1.3,0l0,0h6.8c1.1,0,2.2,0,3.3,0c4.4,0,7.9-1.8,10.3-5.2c0.7-1,1.2-2.1,1.6-3.4
			l0.6-2H19L19.6,51.3z"/>
		<path class="st0" d="M45.4,77.9c-1,0-1.9,0-2.9,0H40c0,0-7.7,0-9.2,0c-1,0-1.7-0.4-2.2-1.3c-0.4-0.8-0.4-1.6,0.1-2.4
			c0.5-0.7,1.2-1.1,2.1-1.1c1.6,0,5.2,0,7,0v-9.5h-0.5c-2.6,0-5.1-0.1-7.6-0.2c-3.8-0.1-7.5-1.8-10.2-4.7c-2.8-2.9-4.3-6.6-4.4-10.5
			c0-1.5,0-2.9,0-4.4c0-0.8,0-1.6,0-2.5c0-3.3-1.6-5.5-4.6-6.7c-1.5-0.5-2.1-1.8-1.7-3.1c0.3-1,1.2-1.6,2.3-1.6c0.3,0,0.7,0.1,1,0.2
			c4.6,1.5,7.7,5.7,7.9,10.5c0,1.3,0,2.7,0,4c0,0.5,0,1,0,1.5v0.5h39.8v-1.3c0-2,0-4,0.2-6c0.4-4.1,3.8-8.1,7.9-9.2
			c0.3-0.1,0.5-0.1,0.8-0.1c1.1,0,1.9,0.6,2.3,1.6c0.4,1.3-0.2,2.5-1.5,3c-3.4,1.3-4.8,3.4-4.8,7.1c0,0.7,0,1.4,0,2.1
			c0,2.2,0,4.2-0.2,6.2c-0.8,7.1-7.2,13.1-14.2,13.3c-2.5,0.1-5,0.1-7.4,0.2h-0.5V73h1.8c1.6,0,3.2,0,4.8,0c0.8,0,1.4,0.3,1.9,0.7
			c0.4,0.4,0.7,1.1,0.7,1.7c0,1.4-1.1,2.4-2.6,2.4C47.8,77.9,46.6,77.9,45.4,77.9z M30.7,75.7h0.1c1.4,0,9.2,0,9.2,0h2.5
			c2.2,0,4.4,0,6.5,0c0.2,0,0.3,0,0.4-0.1c0,0,0,0,0-0.1s0-0.1,0-0.1s-0.1-0.1-0.3-0.1c-1.6,0-3.2,0-4.8,0h-4V61.4h2.6
			c2.4,0,4.9-0.1,7.3-0.2c6-0.2,11.4-5.3,12.1-11.4c0.1-0.5,0.1-1,0.1-1.5l-1,3.3c-0.4,1.3-1,2.6-1.8,3.7C57,59.1,53.2,61,48.4,61
			c-1.1,0-2.2,0-3.3,0h-7.9l0,0c-0.1,0-0.1,0-0.2,0c-1,0-2,0-3,0c-1.4,0-2.6,0-3.7-0.1C24.7,60.6,20,57,18.4,51.6l-1-3.4
			c0.1,3.3,1.4,6.5,3.7,9c2.4,2.5,5.5,3.9,8.7,4.1c2.4,0.1,5,0.1,7.5,0.2H40v13.9h-1.1c0,0-5.9,0-8.1,0c-0.1,0-0.2,0-0.2,0l0,0
			c0,0.1-0.1,0.1-0.1,0.1C30.6,75.5,30.6,75.5,30.7,75.7C30.6,75.6,30.6,75.7,30.7,75.7z M20.5,50.4l0.2,0.6
			c1.3,4.4,5.2,7.5,9.9,7.7c1.1,0.1,2.2,0.1,3.6,0.1c1,0,2,0,2.9,0c0.5,0,0.9,0,1.4,0h1.1l0,0h5.7c1.1,0,2.2,0,3.3,0
			c4,0,7.2-1.6,9.4-4.7c0.6-0.9,1.1-1.9,1.4-3l0.2-0.6L20.5,50.4L20.5,50.4z M62.1,48.1h0.3c0.1-1.4,0.1-2.8,0.1-4.3
			c0-0.7,0-1.4,0-2.2c0-4.6,2-7.4,6.2-9.1c0.3-0.1,0.3-0.2,0.2-0.3c0-0.1-0.1-0.1-0.2-0.1s-0.1,0-0.2,0c-3.3,0.9-6,4-6.3,7.3
			C62,41.3,62,43.3,62,45.2L62.1,48.1z M17.5,48.1h0.4v-2c0-0.5,0-1,0-1.5c0-1.3,0-2.6,0-3.9c-0.1-3.9-2.7-7.3-6.3-8.5
			c-0.1,0-0.2-0.1-0.3-0.1s-0.1,0-0.1,0s0,0,0,0.1s0,0.1,0,0.1s0.2,0.2,0.4,0.2c3.9,1.4,6.1,4.5,6.1,8.7c0,0.8,0,1.6,0,2.5
			C17.5,45.2,17.5,46.7,17.5,48.1L17.5,48.1z"/>
	</g>
</g>
</svg>
