<?xml version="1.0" encoding="utf-8"?>
<!-- Generator: Adobe Illustrator 28.0.0, SVG Export Plug-In . SVG Version: 6.00 Build 0)  -->
<svg version="1.1" id="圖層_1" xmlns="http://www.w3.org/2000/svg" xmlns:xlink="http://www.w3.org/1999/xlink" x="0px" y="0px"
	 viewBox="0 0 80 80" style="enable-background:new 0 0 80 80;" xml:space="preserve">
<style type="text/css">
	.st0{fill:#0D0A8A;}
</style>
<path class="st0" d="M26.8,78.7c-0.1-0.1-0.2-0.1-0.4-0.2c-1-0.5-1.5-1.5-1.3-2.5c0.2-1,1.1-1.7,2.2-1.7l9.1,0
	c0.5,0,0.9-0.4,0.9-0.9v-4.9c0-0.4-0.3-0.7-0.6-0.8c-0.6-0.2-1.3-0.3-1.9-0.5c-1.4-0.3-2.7-0.6-3.9-1.1
	c-9.5-3.6-15.4-10.5-17.4-20.4c-0.3-1.5-0.4-3.2-0.4-4.6c0-0.7,0.2-1.3,0.6-1.7c0.4-0.4,0.9-0.6,1.6-0.6c1.3,0,2.2,0.9,2.2,2.3
	c0.2,9.4,5.7,17.3,14.3,20.7c2.5,1,5.2,1.5,7.8,1.5c10.6,0,20-7.7,21.9-18c0.3-1.5,0.4-3,0.4-4.3c0.1-1.3,1-2.2,2.2-2.2
	c1.3,0,2.2,0.9,2.2,2.2c0.1,12-8.6,23.1-20.2,25.9c-0.8,0.2-1.6,0.3-2.3,0.5c-0.4,0.1-0.8,0.1-1.1,0.2c-0.4,0.1-0.7,0.4-0.7,0.8v5
	c0,0.5,0.4,0.9,0.9,0.9l8.9,0c1.3,0,2.2,0.6,2.4,1.8c0.2,1.1-0.4,2.1-1.6,2.6c0,0-0.1,0-0.1,0.1H26.8z"/>
<path class="st0" d="M75.7,37.2c-0.1,0-0.3,0-0.4,0c-1-0.2-1.7-1.1-1.7-2.2c0-6.1,0-12.2,0-18.3c0-1.2,0.7-2,1.7-2.3
	c0.1,0,0.3,0,0.4,0c0.9,0,1.7,0.5,2.1,1.4c0,0.1,0.1,0.2,0.1,0.3v19.4c-0.1,0.1-0.1,0.2-0.2,0.4C77.3,36.7,76.5,37.2,75.7,37.2z"/>
<path class="st0" d="M39.6,55.5c-7.1,0-13.1-5-14.3-12c-0.1-0.7-0.2-1.4-0.2-2.2c0-3.1,0-6.2,0-9.4l0-7c0-2.8,0-5.6,0-8.4
	c0-7.2,5.4-13.3,12.5-14.2c0.6-0.1,1.3-0.1,1.9-0.1c7,0,13,5,14.2,12c0.1,0.7,0.2,1.4,0.2,2.3c0,8.3,0,16.5,0,24.8
	c0,7.1-5.4,13.2-12.5,14.2C40.9,55.4,40.3,55.5,39.6,55.5z M39.6,6.6c-0.7,0-1.4,0.1-2.1,0.2c-4.8,1.1-7.9,5.1-7.9,10
	c0,2.8,0,5.7,0,8.5l0,7.2c0,2.8,0,5.6,0,8.5c0,5.5,4.5,10,10,10h0c1.2,0,2.4-0.2,3.5-0.6c3.9-1.5,6.5-5.2,6.5-9.5
	c0-7.8,0-15.7,0-23.5c0-0.7,0-1.5-0.1-2.2C48.9,10.4,44.6,6.6,39.6,6.6z"/>
<path class="st0" d="M3.5,37.2c-1.3,0-2.2-1-2.2-2.4v-18c0-1.4,0.9-2.4,2.2-2.4c1.3,0,2.2,0.9,2.2,2.3c0,6,0,12.1,0,18.1
	C5.7,36.2,4.8,37.2,3.5,37.2L3.5,37.2z"/>
<path class="st0" d="M15.1,31c-1.2,0-2.1-0.9-2.2-2.2c0-0.7,0-1.4,0-2.2v-1.9c0-0.7,0-1.4,0-2.1c0-1.2,1-2.2,2.2-2.2
	c1.2,0,2.2,0.9,2.2,2.1c0,2.1,0,4.2,0,6.3C17.3,30.1,16.4,31,15.1,31L15.1,31z"/>
<path class="st0" d="M64,31c-1.2,0-2.2-0.9-2.2-2.1c0-2.1,0-4.2,0-6.3c0-1.2,1-2.1,2.2-2.1c1.2,0,2.2,0.9,2.2,2.1c0,0.7,0,1.5,0,2.2
	l0,1.9c0,0.7,0,1.4,0,2.1C66.2,30.1,65.3,31,64,31L64,31z"/>
</svg>
