<?xml version="1.0" encoding="utf-8"?>
<!-- Generator: Adobe Illustrator 28.0.0, SVG Export Plug-In . SVG Version: 6.00 Build 0)  -->
<svg version="1.1" id="圖層_1" xmlns="http://www.w3.org/2000/svg" xmlns:xlink="http://www.w3.org/1999/xlink" x="0px" y="0px"
	 viewBox="0 0 80 80" style="enable-background:new 0 0 80 80;" xml:space="preserve">
<style type="text/css">
	.st0{fill:#0D0A8A;}
</style>
<g>
	<g>
		<path class="st0" d="M77.6,18H2.3c-1,0-1.8-0.8-1.8-1.8v-8c0-1,0.8-1.8,1.8-1.8h75.3c1,0,1.8,0.8,1.8,1.8v8
			C79.4,17.2,78.6,18,77.6,18z M4.1,14.4h71.8V10H4.1V14.4z"/>
		<path class="st0" d="M77.6,62.5H2.3c-1,0-1.8-0.8-1.8-1.8v-5c0-1,0.8-1.8,1.8-1.8h75.3c1,0,1.8,0.8,1.8,1.8v5
			C79.4,61.7,78.6,62.5,77.6,62.5z M4.1,58.9h71.8v-1.4H4.1V58.9z"/>
		<path class="st0" d="M75.3,57.6H4.9c-1,0-1.8-0.8-1.8-1.8V16.2c0-1,0.8-1.8,1.8-1.8h70.4c1,0,1.8,0.8,1.8,1.8v39.6
			C77.1,56.8,76.3,57.6,75.3,57.6z M6.7,54h66.9V18H6.7V54z"/>
		<path class="st0" d="M45.4,9.2h-11c-0.5,0-1-0.2-1.3-0.6c-0.3-0.4-0.5-0.9-0.5-1.4C33,3.5,36.2,0.6,40,0.6c3.8,0,6.9,2.9,7.3,6.6
			c0,0.5-0.1,1-0.5,1.4C46.4,9,45.9,9.2,45.4,9.2z M37,5.7h5.9c-0.7-0.9-1.8-1.5-3-1.5S37.7,4.8,37,5.7z"/>
		<path class="st0" d="M40,67.7c-3.8,0-6.9-2.9-7.3-6.6c0-0.5,0.1-1,0.5-1.4c0.3-0.4,0.8-0.6,1.3-0.6h11c0.5,0,1,0.2,1.3,0.6
			c0.3,0.4,0.5,0.9,0.5,1.4C46.9,64.9,43.8,67.7,40,67.7z M37,62.7c0.7,0.9,1.8,1.5,3,1.5c1.2,0,2.3-0.6,3-1.5H37z"/>
		<path class="st0" d="M40,74c-1,0-1.8-0.8-1.8-1.8v-6.3c0-1,0.8-1.8,1.8-1.8s1.8,0.8,1.8,1.8v6.3C41.7,73.2,40.9,74,40,74z"/>
		<path class="st0" d="M40,79.5c-2.4,0-4.3-1.9-4.3-4.3s1.9-4.3,4.3-4.3c2.4,0,4.3,1.9,4.3,4.3S42.3,79.5,40,79.5z M40,74.4
			c-0.4,0-0.8,0.3-0.8,0.7c0,0.4,0.3,0.7,0.8,0.7s0.8-0.3,0.8-0.7C40.7,74.8,40.4,74.4,40,74.4z"/>
	</g>
	<g>
		<path class="st0" d="M31.4,32c-0.5,0-1.1,0.2-1.5,0.1c-1.3-0.3-1.8-1.7-0.9-2.6c1-1,2-1.9,3-2.8c0.7-0.6,1.8-0.6,2.5,0.1
			c0.9,0.8,1.8,1.7,2.7,2.5c0.7,0.7,0.8,1.5,0.3,2.2c-0.5,0.6-1.4,0.8-2.3,0.5c-0.1,0-0.1,0-0.3-0.1c0,0.4,0,12,0,12.4
			c0,1-0.8,1.7-1.8,1.7c-1,0-1.8-0.7-1.8-1.7C31.4,43.8,31.4,32.3,31.4,32z"/>
		<path class="st0" d="M33.2,46c-1.1,0-1.9-0.8-1.9-1.8c0-0.2,0-4.1,0-11.7v-0.4c-0.1,0-0.3,0-0.4,0c-0.4,0-0.7,0.1-1.1,0
			c-0.7-0.1-1.2-0.6-1.4-1.2c-0.2-0.6,0-1.2,0.4-1.6c0.8-0.8,1.8-1.7,3-2.8c0.8-0.6,1.8-0.6,2.6,0.1c0.9,0.8,1.8,1.6,2.7,2.5
			c0.7,0.7,0.8,1.6,0.3,2.3c-0.5,0.7-1.5,0.9-2.4,0.5c0,0-0.1,0-0.1,0v0.6c0,7.5,0,11.4,0,11.7C35.1,45.2,34.3,46,33.2,46
			C33.2,46,33.2,46,33.2,46z M31.5,31.9v0.6c0,9.4,0,11.5,0,11.7c0,1,0.7,1.6,1.7,1.6c0,0,0,0,0,0c1,0,1.7-0.7,1.7-1.6
			c0-0.2,0-4.1,0-11.7v-0.8l0.2,0.1c0.1,0,0.1,0,0.1,0.1c0.9,0.3,1.7,0.1,2.2-0.5c0.5-0.7,0.4-1.4-0.2-2.1c-1-0.9-1.9-1.7-2.7-2.5
			c-0.7-0.7-1.7-0.7-2.4-0.1c-1.3,1.1-2.2,1.9-3,2.8c-0.4,0.4-0.5,0.9-0.4,1.4c0.2,0.5,0.6,0.9,1.2,1.1c0.3,0.1,0.6,0,1,0
			c0.2,0,0.3,0,0.5,0L31.5,31.9z"/>
	</g>
	<g>
		<path class="st0" d="M48.5,40.1c0.5,0,1.1-0.2,1.5-0.1c1.3,0.3,1.8,1.7,0.9,2.6c-1,1-2,1.9-3,2.8c-0.7,0.6-1.8,0.6-2.5-0.1
			c-0.9-0.8-1.8-1.7-2.7-2.5c-0.7-0.7-0.8-1.5-0.3-2.2c0.5-0.6,1.4-0.8,2.3-0.5c0.1,0,0.1,0,0.3,0.1c0-0.4,0-12,0-12.4
			c0-1,0.8-1.7,1.8-1.7c1,0,1.8,0.7,1.8,1.7C48.5,28.2,48.5,39.8,48.5,40.1z"/>
		<path class="st0" d="M46.7,46c-0.5,0-1-0.2-1.4-0.6c-0.9-0.8-1.8-1.6-2.7-2.5c-0.7-0.7-0.8-1.6-0.3-2.3c0.5-0.7,1.4-0.9,2.4-0.5
			c0,0,0.1,0,0.1,0l0,0v-0.6c0-7.5,0-11.4,0-11.7c0-1,0.8-1.8,1.9-1.8c0,0,0,0,0,0c1.1,0,1.9,0.8,1.9,1.8c0,0.2,0,2.3,0,11.7V40
			c0.1,0,0.3,0,0.4,0c0.4,0,0.7-0.1,1.1,0c0.7,0.1,1.2,0.6,1.4,1.2c0.2,0.6,0,1.2-0.4,1.6c-1.1,1.1-2.2,2-3,2.8
			C47.6,45.8,47.2,46,46.7,46z M43.8,40.1c-0.6,0-1,0.2-1.4,0.6c-0.5,0.7-0.4,1.4,0.2,2.1c1,0.9,1.8,1.7,2.7,2.5
			c0.7,0.7,1.7,0.7,2.4,0.1c0.9-0.7,2-1.7,3-2.8c0.4-0.4,0.5-0.9,0.4-1.4c-0.2-0.5-0.6-0.9-1.2-1.1c-0.3-0.1-0.6,0-1,0
			c-0.2,0-0.3,0-0.5,0l-0.1,0v-0.6c0-9.4,0-11.6,0-11.7c0-1-0.7-1.6-1.7-1.6c0,0,0,0,0,0c-1,0-1.7,0.7-1.7,1.6c0,0.2,0,4.1,0,11.7
			v0.8l-0.3-0.1c-0.1,0-0.1,0-0.1,0C44.3,40.1,44.1,40.1,43.8,40.1z"/>
	</g>
</g>
</svg>
