<?xml version="1.0" encoding="utf-8"?>
<!-- Generator: Adobe Illustrator 28.0.0, SVG Export Plug-In . SVG Version: 6.00 Build 0)  -->
<svg version="1.1" id="圖層_1" xmlns="http://www.w3.org/2000/svg" xmlns:xlink="http://www.w3.org/1999/xlink" x="0px" y="0px"
	 viewBox="0 0 80 80" style="enable-background:new 0 0 80 80;" xml:space="preserve">
<style type="text/css">
	.st0{fill:#0D0A8A;}
</style>
<path class="st0" d="M51.5,77.4c-7.2,0-13.6-5.6-14.4-12.8c-0.2-1.8-0.2-3.7-0.1-5.5l0-0.2c0-1,1.1-1.9,2.2-1.9c1.2,0,2.2,1,2.3,2.1
	c0,0.5,0,1.1,0,1.6c0,1.1,0,2.2,0.1,3.3c0.6,5,4.8,8.8,9.9,8.9c2.2,0,4.4,0.1,6.6,0.1c2.2,0,4.3,0,6.5-0.1c5.6-0.1,10-4.5,10-10.1
	c0.1-6.1,0.1-12.5,0-19.1c-0.1-5.6-4.6-10.1-10.2-10.2c-1.5,0-3.1,0-4.6,0l-7.9,0c-1.1,0-2.1-0.8-2.3-1.9c-0.2-1.2,0.5-2.2,1.7-2.6
	c0.2-0.1,0.5-0.1,0.7-0.1l7.8,0c1.6,0,3.3,0,4.9,0c7,0,13.4,5.7,14.3,12.7c0,0.2,0.1,0.4,0.1,0.5l0,0v22c-0.1,0.2-0.1,0.5-0.2,0.7
	c-0.1,0.6-0.2,1.1-0.4,1.7c-1.8,6.4-7.5,10.7-14.2,10.7l-7.1,0C55.3,77.4,53.4,77.4,51.5,77.4z"/>
<path class="st0" d="M15.2,52.3c-7.3,0-13.6-5.5-14.5-12.8c-0.1-0.7-0.1-1.3-0.1-1.9c0-2.4,0-4.8,0-7.2l0-5.5c0-2.2,0-4.5,0-6.7
	c0-7,5.7-13.4,12.7-14.2c0.8-0.1,1.6-0.1,2.3-0.1c2.2,0,4.4,0,6.7,0c1.9,0,3.9,0,5.8,0c7.3,0,13.6,5.5,14.5,12.8
	c0.1,0.7,0.1,1.4,0.1,2.1c0,6.2,0,12.4,0,18.6c0,7.4-5.1,13.4-12.3,14.7c-0.7,0.1-1.4,0.2-2.3,0.2c-2.3,0-4.6,0-6.9,0
	C19.2,52.3,17.2,52.3,15.2,52.3z M15.5,8.4c-6,0-10.5,4.5-10.5,10.5c0,2.1,0,4.2,0,6.3c0,0,0,9.8,0,11.9c0,6,4.5,10.6,10.6,10.6
	c2,0,4.1,0,6.1,0c2,0,3.9,0,5.9,0c6,0,10.5-4.5,10.5-10.5c0-6.1,0-12.2,0-18.3c0-0.9-0.1-1.7-0.3-2.4c-1.2-4.9-5.2-8-10.2-8.1
	c-2.1,0-4.2,0-6.3,0C19.4,8.4,17.5,8.4,15.5,8.4z"/>
<path class="st0" d="M64.1,64.8c-1.4,0-2.7-0.4-4-1.1c-0.4-0.2-0.8-0.5-1.1-0.7c-0.1-0.1-0.3-0.2-0.4-0.3c-0.1-0.1-0.3-0.1-0.5-0.1
	c-0.1,0-0.2,0-0.4,0.1c-0.4,0.2-0.9,0.4-1.3,0.6c-1,0.5-1.9,0.9-2.9,1.3c-0.6,0.2-1.4,0.2-2,0.2c-1.2,0-2.2-1-2.2-2.2
	c0-1.3,0.9-2.3,2.1-2.3c2.6-0.1,4.2-1.8,4.2-4.4c0-0.6,0-2.8,0-2.8c0-0.5-0.4-0.9-0.9-0.9l-3,0c-1.4,0-2.4-0.9-2.4-2.3
	c0-1.3,1-2.3,2.4-2.3l3,0c0.5,0,0.9-0.4,0.9-0.9v-1.5c0-3.6,1.1-3.9,2.2-3.9c1.2,0,2.3,0.3,2.3,3.9v1.5c0,0.5,0.4,0.9,0.9,0.9l2,0
	l1.1,0c1.3,0,2.3,0.9,2.3,2.2c0,1.3-1,2.3-2.3,2.3l-3.1,0c-0.5,0-0.9,0.4-0.9,0.9c0,0.4,0,0.7,0,1.1c0,0.8,0,1.7,0,2.5
	c0.2,2.1,1.8,3.4,4.1,3.6c1.3,0.1,2.2,1.1,2.1,2.4c0,1.2-1,2.1-2.2,2.1L64.1,64.8z"/>
<path class="st0" d="M52.3,8.4c-1.2,0-2.2-1-2.2-2.3c0-1.3,1-2.2,2.3-2.2c1.3,0,2.2,1,2.2,2.3C54.6,7.4,53.6,8.4,52.3,8.4L52.3,8.4z
	"/>
<path class="st0" d="M64.8,8.4c-1.2,0-2.2-1-2.2-2.3c0-1.3,1-2.2,2.3-2.2c1.3,0,2.3,1,2.3,2.3c0,0.6-0.2,1.2-0.7,1.6
	C66,8.2,65.5,8.4,64.8,8.4L64.8,8.4z"/>
<path class="st0" d="M64.8,20.9c-1.3,0-2.2-1-2.2-2.3c0-1.3,1-2.2,2.3-2.2c1.3,0,2.2,1,2.2,2.3C67.1,20,66.1,20.9,64.8,20.9
	L64.8,20.9z"/>
<path class="st0" d="M14.7,64.8c-1.3,0-2.2-1-2.2-2.3c0-1.3,1-2.2,2.3-2.2c0.6,0,1.2,0.2,1.6,0.7c0.4,0.4,0.7,1,0.6,1.7
	C17,63.9,16,64.8,14.7,64.8L14.7,64.8z"/>
<path class="st0" d="M14.7,77.4c-1.3,0-2.2-1-2.2-2.3c0-1.3,1-2.2,2.3-2.2c0.6,0,1.2,0.2,1.6,0.7c0.4,0.4,0.7,1,0.6,1.7
	C17,76.4,16,77.4,14.7,77.4L14.7,77.4z"/>
<path class="st0" d="M27.2,77.4c-1.3,0-2.2-1-2.2-2.3c0-1.3,1-2.3,2.2-2.3c1.3,0,2.3,1,2.3,2.2c0,0.6-0.2,1.2-0.6,1.6
	C28.4,77.1,27.9,77.4,27.2,77.4L27.2,77.4z"/>
<path class="st0" d="M27.9,39.8c-1.1,0-2-0.7-2.3-1.7c0-0.1,0-0.3,0-0.5c0-0.7,0-1.5,0-2.2l0-0.9c0-0.5-0.4-0.9-0.9-0.9h-6.3
	c-0.5,0-0.9,0.4-0.9,0.9l0,3c0,1.4-0.9,2.4-2.3,2.4c-1.3,0-2.3-1-2.3-2.4c0-4.2,0-8.4,0-12.5c0-4.2,3.4-8,7.6-8.4c0.3,0,0.5,0,0.8,0
	c4.2,0,7.7,2.9,8.5,6.9c0.1,0.4,0.1,0.8,0.1,1.2c0,4.3,0,8.6,0,12.9c0,1.2-0.9,2.1-1.9,2.2C28.1,39.8,28,39.8,27.9,39.8z M21.5,20.9
	c-1.5,0-3.3,1-3.7,2.8c-0.2,1-0.2,2-0.3,3c0,0.4,0,0.8-0.1,1.3c0,0.2,0.1,0.5,0.2,0.7c0.2,0.2,0.4,0.3,0.6,0.3h6.2
	c0.4,0,0.7-0.3,0.8-0.6c0.3-1,0.2-4-0.2-4.9c-0.6-1.5-2.1-2.5-3.7-2.5C21.6,20.9,21.5,20.9,21.5,20.9z"/>
</svg>
