<?xml version="1.0" encoding="utf-8"?>
<!-- Generator: Adobe Illustrator 28.0.0, SVG Export Plug-In . SVG Version: 6.00 Build 0)  -->
<svg version="1.1" id="圖層_1" xmlns="http://www.w3.org/2000/svg" xmlns:xlink="http://www.w3.org/1999/xlink" x="0px" y="0px"
	 viewBox="0 0 80 80" style="enable-background:new 0 0 80 80;" xml:space="preserve">
<style type="text/css">
	.st0{fill:#0D0A8A;}
</style>
<g>
	<g>
		<path class="st0" d="M78.9,31.6c-0.4,0.4-0.8,0.9-1.3,1.2c-3.7,2.3-7.4,4.5-11.2,6.8c-0.2,0.1-0.3,0.2-0.6,0.4c0.7,2,1.4,4,2.2,6
			c1.8,5,3.6,9.9,5.4,14.9c0.3,0.9,0.5,1.9,0.5,2.8c0,2.3,0.1,4.6-0.1,6.8c-0.3,2.9-3,5.2-5.9,5.2c-8.6,0-17.2,0-25.8,0
			c-2.1,0-3.8-1.7-3.8-3.9c-0.1-3-0.1-6,0-9c0.1-2.4,1.7-3.8,4.1-3.9c1.7,0,3.4,0,5.2,0c0.3,0,0.5,0,0.8,0c0-2.9,0-5.7,0-8.4
			c-2-0.8-4-1.5-6-2.3c-0.7-0.3-1.3-0.6-1.9-1c-0.9-0.5-1.2-1.6-0.4-2.4c1.6-1.8,2.2-3.9,2.5-6.1c0.1-0.5-0.1-0.8-0.6-1
			c-3.3-1.4-6.7-2.9-10-4.3c-0.6-0.3-1.1-0.6-1.2-1.3c-0.1-0.2-0.3-0.4-0.5-0.5c-1.7-0.6-3.4-1.1-5.1-1.6c-0.3,0-0.6,0-0.9,0
			c-2.8,0-5.5,0-8.3,0c-0.5,0-1-0.2-1.4-0.4c-1.3-0.9-2.6-1.9-3.9-2.8c-0.7-0.5-1-1.1-1-1.9c0-0.6,0-1.2,0-1.9c-1.9,0-3.8,0-5.7,0
			c-0.4,0-0.9,0-1.3,0c-1,0-1.7-0.6-1.7-1.5s0.6-1.6,1.6-1.6c1.9,0,3.8,0,5.7,0c0.4,0,0.8,0,1.3,0c0-0.6,0-1.2,0-1.8
			c0-0.8,0.3-1.3,0.9-1.8c1.3-0.9,2.6-1.8,4-2.7c0.4-0.3,1-0.4,1.5-0.4c2.6,0,5.3,0,7.9,0c0.6,0,1.2-0.1,1.8-0.3
			c1.5-0.4,2.9-0.9,4.4-1.4c0.2-0.1,0.5-0.2,0.5-0.3c0.2-0.8,0.9-1.2,1.5-1.6c2.3-1.6,4.5-3.2,6.8-4.7c0.4-0.3,1-0.5,1.5-0.5
			c9.9,0,19.8,0,29.6,0c0.5,0,1.1,0.2,1.5,0.5c2.1,1.6,4.2,3.3,6.2,5c0.4,0.3,0.7,0.7,1,1C78.9,17.8,78.9,24.7,78.9,31.6z
			 M70.8,66.3c-0.1-1.6,0.3-3.2-0.4-4.7c-4.9,0.6-9.4-2.5-10.5-7.2c-0.4-1.8-0.7-3.7-1.1-5.5c-1.2-4.9,1.1-9.1,4.9-11.2
			c4-2.2,7.8-4.7,11.6-7c0.2-0.1,0.6-0.4,0.6-0.6c0-1.7,0-3.5,0-5.3c-0.4,0-0.6,0-0.9,0c-1.9,0-3.7,0-5.6,0c-0.9,0-1.6-0.7-1.6-1.5
			c0-0.9,0.6-1.5,1.5-1.5c1.4,0,2.8,0,4.3,0c0.8,0,1.5,0,2.3,0c0-0.9,0-1.7,0-2.6c-0.3,0-0.5,0-0.7,0c-1.8,0-3.7,0-5.5,0
			c-1.2,0-1.9-0.6-1.9-1.6c0-0.9,0.7-1.5,1.9-1.6c0.7,0,1.4,0,2.1,0c1.4,0,2.7,0,4.1,0c0-1.2,0-2.3,0-3.4c0-0.3-0.2-0.7-0.4-0.9
			c-1.6-1.4-3.3-2.7-5-4c-0.3-0.2-0.7-0.4-1.1-0.4c-9.3,0-18.7,0-28,0c-0.4,0-0.8,0.1-1.1,0.3c-1.9,1.3-3.9,2.7-5.8,4
			c-0.4,0.3-0.6,0.6-0.6,1.1c0,5.8,0,11.6,0,17.3c0,0.5,0.2,0.8,0.7,1c5.2,2.2,10.4,4.5,15.6,6.8c1.1,0.5,1.5,1.1,1.5,2.3
			c0,6.6,0,13.1,0,19.7c0,1.6-0.5,2.1-2.1,2.1c-2.3,0-4.7,0-7,0c-0.5,0-1,0.1-1,0.8c0,1.2,0,2.3,0,3.5c0.4,0,0.6,0,0.9,0
			c2.3,0,4.7,0,7,0c1.1,0,1.8,0.8,1.7,1.8c-0.1,0.8-0.7,1.3-1.8,1.3c-2.3,0-4.7,0-7,0c-0.3,0-0.5,0-0.8,0c0,0.6,0,1.2,0,1.7
			c0,1.3,0.2,1.5,1.4,1.5c8.1,0,16.2,0,24.3,0c0.5,0,0.9,0,1.4-0.1c1.4-0.3,2.5-1.8,2.2-3.1c-1.5,0-3,0-4.5,0c-1,0-2.1,0-3.1,0
			c-0.9,0-1.4-0.7-1.4-1.5s0.5-1.4,1.4-1.6c0.3,0,0.6,0,0.8,0C66.1,66.3,68.4,66.3,70.8,66.3z M23.6,16.2c-1.4,0-2.7,0.1-4,0
			c-2.4-0.3-4.4,0.3-6.2,1.9c0,0-0.1,0-0.1,0.1c-0.2,0.3-0.4,0.6-0.4,0.9c0,1.6,0,3.2,0,4.9c0,0.2,0,0.5,0.2,0.6
			c1,0.8,2.1,1.5,3.1,2.2c0.2,0.1,0.5,0.1,0.7,0.1c2,0,3.9,0,5.9,0c0.2,0,0.5,0,0.8,0C23.6,23.3,23.6,19.8,23.6,16.2z M63.2,41.7
			c-1.5,1.7-2.1,3.5-1.7,5.6c0.2,1.4,0.6,2.9,0.9,4.3c0.3,1.5,0.5,3.1,1.5,4.3c1.3,1.8,3.1,2.7,5.5,2.7
			C67.3,52.9,65.3,47.4,63.2,41.7z M30.7,28.5c0-4.7,0-9.3,0-14c-1.3,0.4-2.5,0.8-3.7,1.2c-0.2,0.1-0.4,0.4-0.4,0.6
			c0,3.5,0,7,0,10.5c0,0.2,0.1,0.5,0.3,0.5C28.1,27.8,29.4,28.1,30.7,28.5z M45.8,39.5c-0.7,2-1.3,4-2,6.1c1.4,0.5,3,1.1,4.6,1.8
			c0-2.3,0-4.3,0-6.4c0-0.2-0.2-0.4-0.3-0.5C47.3,40.1,46.5,39.8,45.8,39.5z"/>
		<path class="st0" d="M55.2,76.2c-4.6,0-9.1,0-13.1,0c-2.4,0-4.3-1.9-4.3-4.4c-0.1-3.2-0.1-6.1,0-9c0.1-2.6,1.9-4.3,4.6-4.4
			c1.2,0,2.4,0,3.6,0c0.5,0,1.1,0,1.6,0h0.3v-7.5c-0.5-0.2-0.9-0.4-1.4-0.5c-1.5-0.6-2.9-1.1-4.3-1.7c-0.7-0.3-1.4-0.6-2-1
			s-1-0.9-1.1-1.5s0.1-1.2,0.5-1.7c1.3-1.5,2.1-3.3,2.4-5.9c0-0.3,0-0.3-0.3-0.4c-1.9-0.8-3.9-1.7-5.8-2.5c-1.4-0.6-2.8-1.2-4.2-1.8
			c-0.5-0.2-1.3-0.6-1.5-1.6l-0.1-0.1c-1.5-0.5-3.2-1-5.1-1.6c-0.2-0.1-0.4-0.1-0.6-0.1l0,0c-0.8,0-1.7,0-2.5,0c-1.9,0-3.8,0-5.8,0
			c-0.6,0-1.2-0.2-1.7-0.5c-0.8-0.5-1.5-1.1-2.3-1.6c-0.5-0.4-1.1-0.8-1.6-1.2c-0.9-0.6-1.3-1.4-1.2-2.4c0-0.4,0-0.8,0-1.2v-0.1H4.1
			c-0.1,0-0.3,0-0.4,0c-0.3,0-0.6,0-0.9,0c-1.3,0-2.1-0.8-2.2-2c0-0.6,0.2-1.1,0.5-1.5c0.4-0.4,0.9-0.6,1.6-0.6c1.3,0,2.7,0,4,0
			c0.6,0,1.1,0,1.7,0h0.8v-0.1c0-0.4,0-0.8,0-1.2c-0.1-0.9,0.3-1.7,1.2-2.2c0.5-0.3,1-0.7,1.5-1c0.8-0.5,1.6-1.1,2.5-1.6
			c0.5-0.3,1.2-0.5,1.7-0.5c1.4,0,2.9,0,4.3,0c1.2,0,2.4,0,3.6,0c0.5,0,1.1-0.1,1.6-0.3c1.3-0.4,2.7-0.8,4-1.3l0.4-0.1
			c0.1,0,0.2-0.1,0.2-0.1c0.2-0.8,0.9-1.2,1.4-1.6c0.1,0,0.1-0.1,0.2-0.1c0.5-0.4,1-0.7,1.5-1.1C35,7,36.8,5.7,38.6,4.5
			c0.5-0.4,1.2-0.6,1.8-0.6c9.8,0,19.8,0,29.6,0c0.6,0,1.4,0.2,1.8,0.6c2.1,1.6,4.1,3.3,6.1,4.9L78,9.5c0.3,0.2,0.5,0.5,0.7,0.8
			c0.1,0.1,0.2,0.2,0.3,0.3l0.1,0.1v21.2l0.2,0.1c-0.1,0.1-0.3,0.2-0.4,0.4c-0.3,0.3-0.6,0.6-1,0.9c-2.8,1.7-5.6,3.4-8.3,5.1
			c-0.9,0.6-1.9,1.1-2.8,1.7c-0.1,0-0.1,0.1-0.2,0.1l0.5,1.5c0.5,1.4,1,2.8,1.5,4.1c0.5,1.4,1,2.7,1.5,4.1c1.3,3.5,2.6,7.2,3.9,10.8
			c0.3,0.9,0.5,1.9,0.5,3v0.5c0,2.1,0.1,4.2-0.2,6.3c-0.3,3.1-3.2,5.6-6.4,5.6C63.6,76.2,59.3,76.2,55.2,76.2z M44.4,59.4
			c-0.7,0-1.4,0-2,0c-2.2,0-3.5,1.4-3.6,3.4c-0.1,2.8-0.1,5.8,0,8.9c0,2,1.4,3.4,3.3,3.4c7.6,0,16.6,0,25.8,0c2.7,0,5.1-2.1,5.4-4.7
			c0.2-2.1,0.2-4.2,0.1-6.2v-0.5c0-0.9-0.2-1.9-0.4-2.7c-1.3-3.6-2.6-7.3-3.9-10.8c-0.5-1.4-1-2.7-1.5-4.1c-0.5-1.4-1-2.8-1.5-4.1
			l-0.8-2.3l0.6-0.4c0.1-0.1,0.2-0.2,0.4-0.2c0.9-0.6,1.9-1.1,2.8-1.7c2.7-1.6,5.6-3.4,8.3-5.1c0.3-0.2,0.5-0.4,0.8-0.7
			c0.1-0.1,0.2-0.2,0.3-0.3V11c-0.1-0.1-0.1-0.1-0.2-0.2c-0.2-0.2-0.4-0.5-0.6-0.6l-0.1-0.1c-2-1.6-4.1-3.3-6.1-4.9
			c-0.3-0.2-0.8-0.4-1.2-0.4c-9.8,0-19.8,0-29.6,0c-0.4,0-0.9,0.2-1.3,0.4c-1.8,1.2-3.6,2.4-5.3,3.6c-0.5,0.4-1,0.7-1.5,1.1
			c-0.1,0.1-0.2,0.1-0.2,0.2c-0.6,0.4-0.9,0.6-1,1.1c-0.1,0.3-0.4,0.5-0.9,0.7L30,12c-1.3,0.4-2.7,0.9-4,1.3
			c-0.7,0.2-1.3,0.3-1.9,0.3c-1.2,0-2.4,0-3.6,0c-1.4,0-2.9,0-4.3,0c-0.4,0-0.9,0.1-1.2,0.4c-0.8,0.5-1.6,1.1-2.4,1.6
			c-0.5,0.3-1,0.7-1.5,1c-0.5,0.4-0.7,0.7-0.7,1.3c0,0.4,0,0.8,0,1.3c0,0.2,0,0.4,0,0.6v0.5h-2c-0.6,0-1.1,0-1.7,0c-1.3,0-2.7,0-4,0
			c-0.4,0-0.7,0.1-0.9,0.3c-0.2,0.2-0.3,0.4-0.2,0.8c0,0.6,0.5,1,1.2,1c0.3,0,0.6,0,0.9,0c0.1,0,0.3,0,0.4,0l0,0h6.2v0.5
			c0,0.2,0,0.4,0,0.6c0,0.4,0,0.9,0,1.3c0,0.6,0.2,1.1,0.8,1.5s1.1,0.8,1.7,1.2c0.7,0.5,1.5,1.1,2.2,1.6c0.3,0.2,0.8,0.4,1.1,0.4
			c1.9,0,3.9,0,5.8,0c0.8,0,1.7,0,2.5,0l0,0c0.3,0,0.6,0,0.9,0.1c1.9,0.6,3.6,1.1,5.1,1.6c0.3,0.1,0.7,0.4,0.8,0.8
			c0.1,0.5,0.4,0.8,1,1c1.4,0.6,2.8,1.2,4.2,1.8c1.9,0.8,3.8,1.7,5.8,2.5c0.7,0.3,0.9,0.8,0.9,1.5c-0.3,2.7-1.2,4.8-2.6,6.4
			c-0.2,0.3-0.3,0.5-0.3,0.8s0.3,0.6,0.6,0.8c0.6,0.3,1.2,0.7,1.8,0.9c1.4,0.6,2.8,1.1,4.2,1.7c0.6,0.2,1.1,0.4,1.7,0.7l0.3,0.1v9.2
			h-1.4c-0.5,0-1.1,0-1.6,0C45.4,59.4,44.9,59.4,44.4,59.4z M52.1,73.2c-2.6,0-5.2,0-7.8,0h-1.5c-1.5,0-1.9-0.4-1.9-2V70v-1h0.5
			c0.1,0,0.2,0,0.3,0c0.2,0,0.4,0,0.6,0c0.8,0,1.7,0,2.5,0c1.5,0,3,0,4.5,0c0.4,0,1.2-0.1,1.3-0.9c0-0.3,0-0.6-0.2-0.8
			c-0.2-0.2-0.6-0.4-1-0.4c-1.6,0-3.3,0-4.9,0c-0.7,0-1.4,0-2,0h-1.4v-0.5c0-0.4,0-0.7,0-1.1c0-0.9,0-1.7,0-2.5
			c0-0.4,0.2-1.2,1.5-1.2l0,0c1.9,0,3.7,0,5.6,0h1.4c1.3,0,1.6-0.3,1.6-1.6c0-1.9,0-3.8,0-5.6c0-4.6,0-9.4,0-14.1
			c0-1-0.3-1.4-1.2-1.8c-3.1-1.3-6.2-2.7-9.2-4c-2.1-0.9-4.2-1.8-6.3-2.7c-0.7-0.3-1-0.7-1-1.5c0-5.5,0-11.1,0-17.3
			c0-0.7,0.2-1.2,0.8-1.5c0.9-0.6,1.9-1.3,2.8-2c1-0.7,2-1.4,3-2.1C40.5,7.1,41,7,41.5,7c9.5,0,19,0,28,0c0.5,0,1,0.2,1.4,0.5
			c1.7,1.3,3.3,2.6,5,4c0.3,0.3,0.6,0.8,0.6,1.2c0,0.8,0,1.6,0,2.5c0,0.3,0,0.6,0,1v0.5h-5.3c-0.5,0-1,0-1.5,0c-0.4,0-1.4,0.1-1.4,1
			s1,1,1.4,1c1.3,0,2.6,0,3.9,0c0.5,0,1.1,0,1.6,0l0,0h1.2v3.6h-1.2c-0.5,0-1,0-1.5,0c-0.4,0-0.8,0-1.2,0c-1,0-2,0-3,0
			c-0.6,0-1.1,0.4-1,1c0,0.6,0.4,1,1.1,1c1.3,0,2.7,0,4,0c0.5,0,1.1,0,1.6,0h1.4v0.5c0,0.4,0,0.8,0,1.2c0,1.4,0,2.7,0,4
			c0,0.4-0.3,0.7-0.8,1c-1.1,0.7-2.1,1.3-3.2,2c-2.7,1.7-5.6,3.4-8.4,5c-4,2.2-5.8,6.3-4.7,10.7c0.3,1,0.5,2.1,0.7,3.1
			c0.2,0.8,0.3,1.6,0.5,2.4c1,4.5,5.3,7.4,10,6.8h0.4l0.2,0.3c0.5,1.1,0.5,2.2,0.5,3.3c0,0.5,0,1,0,1.6v0.6h-2.2c-1.8,0-3.6,0-5.4,0
			c-0.1,0-0.1,0-0.2,0c-0.2,0-0.4,0-0.6,0c-0.6,0.1-0.9,0.5-0.9,1c0,0.6,0.4,1,0.9,1c0.8,0,1.5,0,2.3,0c0.3,0,0.5,0,0.8,0
			c1.1,0,2.1,0,3.2,0h1.7l0.1,0.4c0.4,1.6-0.8,3.3-2.6,3.7C68.5,73,68,73,67.4,73C62.1,73.2,57.1,73.2,52.1,73.2z M41.8,69.9v1.3
			c0,1,0,1,0.9,1h1.5c7.6,0,15.2,0,22.9,0c0.5,0,0.9,0,1.2-0.1c1-0.2,1.8-1.2,1.8-2.1h-0.9c-1.1,0-2.1,0-3.2,0c-0.3,0-0.5,0-0.8,0
			c-0.8,0-1.6,0-2.3,0c-1.1-0.1-1.9-0.9-1.9-2s0.7-1.9,1.8-2.1c0.2,0,0.5,0,0.7,0c0.1,0,0.1,0,0.2,0c1.8,0,3.5,0,5.4,0h1.1
			c0-0.4,0-0.8,0-1.1c0-0.9,0.1-1.7-0.2-2.5c-0.3,0-0.6,0-1,0c-4.6,0-8.7-3.1-9.7-7.7c-0.2-0.8-0.3-1.7-0.5-2.5c-0.2-1-0.4-2-0.6-3
			c-1.2-4.8,0.8-9.3,5.2-11.8c2.8-1.6,5.7-3.3,8.4-5c1.1-0.7,2.1-1.3,3.2-2c0.2-0.1,0.3-0.2,0.3-0.3c0-1.3,0-2.6,0-3.9
			c0-0.2,0-0.5,0-0.7h-0.4c-0.5,0-1.1,0-1.6,0c-1.3,0-2.7,0-4,0c-1.2,0-2.1-0.9-2.1-2s0.9-2,2-2c1,0,2,0,3,0c0.4,0,0.8,0,1.2,0
			c0.5,0,1,0,1.5,0h0.2v-1.6H75c-0.6,0-1.1,0-1.6,0c-1.3,0-2.6,0-3.9,0c-1.4,0-2.4-0.8-2.4-2.1c0-1.2,0.9-2.1,2.4-2.1
			c0.5,0,1,0,1.5,0h4.3c0-0.2,0-0.3,0-0.5c0-0.8,0-1.6,0-2.4c0-0.2-0.1-0.4-0.2-0.5c-1.6-1.4-3.3-2.7-5-4c-0.2-0.2-0.5-0.3-0.8-0.3
			c-9.1,0-18.5,0-28,0c-0.3,0-0.6,0.1-0.8,0.3c-1,0.7-2,1.4-3,2c-0.9,0.6-1.9,1.3-2.8,2c-0.3,0.2-0.4,0.3-0.4,0.7
			c0,6.2,0,11.9,0,17.3c0,0.3,0,0.4,0.4,0.5c2.1,0.9,4.2,1.8,6.3,2.8c3,1.3,6.2,2.7,9.2,4c1.2,0.5,1.8,1.4,1.8,2.7c0,4.7,0,9.4,0,14
			c0,1.9,0,3.8,0,5.6c0,1.9-0.7,2.6-2.6,2.7H48c-1.9,0-3.7,0-5.6,0l0,0c-0.5,0-0.5,0.1-0.5,0.3c0,0.8,0,1.6,0,2.4c0,0.2,0,0.4,0,0.6
			h0.4c0.7,0,1.4,0,2,0c1.6,0,3.3,0,5,0c0.7,0,1.3,0.3,1.7,0.7c0.4,0.4,0.5,1,0.5,1.6c-0.1,1.1-1,1.8-2.3,1.8c-1.5,0-3,0-4.5,0
			c-0.8,0-1.7,0-2.5,0C42.1,69.9,42,69.9,41.8,69.9z M75.4,29.9L75.4,29.9L75.4,29.9z M69.2,59.1c-2.4,0-4.3-0.9-5.7-2.9
			c-0.9-1.1-1.1-2.5-1.4-3.7C62,52.2,62,52,61.9,51.7c-0.3-1.4-0.6-2.8-0.9-4.3c-0.4-2.2,0.2-4.2,1.8-6l0.6-0.6L70,59.1h-0.7H69.2z
			 M63,42.7c-1,1.4-1.3,2.8-1,4.5c0.3,1.5,0.6,2.9,0.9,4.3c0.1,0.3,0.1,0.5,0.2,0.8c0.2,1.2,0.5,2.4,1.2,3.3
			c1.1,1.5,2.5,2.3,4.3,2.4L63,42.7z M48.9,48l-5.8-2.2l2.4-7.1L46,39c0.2,0.1,0.3,0.1,0.5,0.2c0.5,0.2,1.1,0.5,1.7,0.8
			c0.3,0.1,0.6,0.5,0.6,0.9c0,1.6,0,3.3,0,5L48.9,48z M44.4,45.3l3.5,1.3v-0.7c0-1.7,0-3.3,0-4.9c0,0,0-0.1-0.1-0.1
			c-0.6-0.3-1.1-0.5-1.7-0.7l0,0L44.4,45.3z M47.9,41L47.9,41L47.9,41z M31.2,29.2L30.5,29c-0.3-0.1-0.6-0.2-0.9-0.3
			c-1-0.3-2-0.6-2.9-0.9c-0.5-0.2-0.6-0.8-0.6-1c0-4,0-7.3,0-10.5c0-0.4,0.3-0.9,0.7-1.1c0.9-0.3,1.8-0.6,2.7-0.9
			c0.3-0.1,0.6-0.2,0.9-0.3l0.7-0.2L31.2,29.2L31.2,29.2z M27.2,26.9c0.9,0.3,1.8,0.6,2.8,0.9c0.1,0,0.2,0,0.2,0.1V15.2
			c-0.1,0-0.2,0.1-0.3,0.1c-0.9,0.3-1.8,0.6-2.7,0.9c0,0-0.1,0.1-0.1,0.2c0,3.1,0,6.5,0,10.5C27.2,26.8,27.2,26.9,27.2,26.9z
			 M27.3,16.1L27.3,16.1L27.3,16.1z M20,27.4c-1,0-2.1,0-3.1,0h-0.1c-0.3,0-0.6,0-0.9-0.2c-1-0.7-2.1-1.5-3.2-2.3
			c-0.3-0.3-0.4-0.7-0.4-1l0,0c0-1.6,0-3.2,0-4.8c0-0.3,0.2-0.6,0.4-0.9c0-0.1,0.1-0.1,0.1-0.2c0.1-0.1,0.2-0.2,0.3-0.3
			c1.8-1.7,4-2.3,6.5-2c0.9,0.1,1.7,0.1,2.6,0c0.4,0,0.9,0,1.3,0H24v11.7h-2.7C20.9,27.4,20.5,27.4,20,27.4z M16.9,26.4L16.9,26.4
			c1.5,0,3,0,4.5,0h1.7v-9.6c-0.3,0-0.5,0-0.8,0c-1,0-1.9,0.1-2.8-0.1c-2.3-0.3-4.2,0.3-5.8,1.8c0,0-0.1,0-0.1,0.1s-0.1,0.1-0.1,0.2
			c-0.1,0.1-0.2,0.3-0.2,0.3c0,1.6,0,3.2,0,4.8l0,0c0,0.1,0,0.2,0,0.2c1,0.8,2.1,1.5,3.1,2.2c0,0,0.2,0,0.3,0
			C16.8,26.4,16.8,26.4,16.9,26.4z"/>
	</g>
	<g>
		<path class="st0" d="M49.9,15.2c2.1,0,4.2,0,6.2,0c2.7,0,4.7,1.7,5.2,4.3c0.6,3-1.8,6-4.9,6.1c-4.3,0.1-8.7,0.1-13,0
			c-2.7,0-4.9-2.3-5-5c0-2.9,2-5.2,4.8-5.3C45.5,15.1,47.7,15.2,49.9,15.2L49.9,15.2z M50,18.2c-2,0-4.1,0-6.1,0
			c-1.4,0-2.4,0.9-2.4,2.1s0.9,2.1,2.3,2.1c4.1,0,8.2,0,12.2,0c1.4,0,2.3-0.9,2.2-2.1c0-1.2-0.9-2.1-2.3-2.1
			C54,18.2,52,18.2,50,18.2z"/>
		<path class="st0" d="M50.3,26.1c-2.1,0-4.3,0-6.8,0c-2.9,0-5.4-2.5-5.5-5.5c0-3.2,2.2-5.7,5.3-5.9c1.5-0.1,3.1,0,4.6,0
			c0.5,0,1,0,1.5,0l0,0h0.5c0.6,0,1.3,0,1.9,0c1.4,0,2.9,0,4.3,0c3,0.1,5.2,1.9,5.7,4.7c0.3,1.6-0.1,3.3-1.2,4.6c-1,1.3-2.6,2-4.1,2
			C54.5,26.1,52.5,26.1,50.3,26.1z M45.8,15.7c-0.8,0-1.7,0-2.5,0c-2.5,0.1-4.3,2.2-4.3,4.8c0,2.4,2.1,4.4,4.5,4.5
			c5.1,0.1,9.2,0.1,13,0c1.3,0,2.5-0.6,3.4-1.7s1.2-2.5,1-3.8c-0.4-2.3-2.2-3.8-4.7-3.9c-1.4,0-2.9,0-4.3,0c-0.5,0-0.9,0-1.4,0l0,0
			H50c-0.7,0-1.4,0-2,0C47.2,15.7,46.5,15.7,45.8,15.7z M50,23c-2,0-4,0-6.2,0c-1.6,0-2.8-1.1-2.8-2.6s1.2-2.6,2.9-2.6
			c1.4,0,2.9,0,4.3,0H50h1.8c1.4,0,2.8,0,4.2,0c1.7,0,2.8,1,2.8,2.6c0,0.7-0.2,1.4-0.7,1.9s-1.2,0.8-2,0.8C54.1,23,52.1,23,50,23z
			 M46.4,18.8c-0.8,0-1.6,0-2.5,0c-1.1,0-1.9,0.7-1.9,1.6s0.7,1.6,1.8,1.6c4.4,0,8.4,0,12.2,0c0.6,0,1-0.2,1.3-0.5s0.4-0.7,0.4-1.1
			c0-1-0.7-1.6-1.8-1.6c-1.4,0-2.8,0-4.2,0h-1.8h-1.8C47.6,18.8,47,18.8,46.4,18.8z"/>
	</g>
	<g>
		<path class="st0" d="M57.6,67.9c0,0.9-0.7,1.5-1.5,1.5s-1.5-0.7-1.5-1.6c0-0.8,0.7-1.5,1.5-1.5C57,66.3,57.6,67,57.6,67.9z"/>
		<path class="st0" d="M56.1,69.9L56.1,69.9c-0.6,0-1.1-0.2-1.5-0.6S54,68.4,54,67.8c0-1.1,0.9-2,2-2c0.6,0,1.1,0.2,1.5,0.6
			s0.6,0.9,0.6,1.5l0,0c0,0.6-0.2,1.1-0.6,1.5C57.2,69.7,56.7,69.9,56.1,69.9z M56.1,66.9L56.1,66.9c-0.6,0-1,0.5-1,1
			c0,0.3,0.1,0.5,0.3,0.7s0.5,0.3,0.7,0.3c0.3,0,0.5-0.1,0.7-0.3c0.2-0.2,0.3-0.5,0.3-0.7c0-0.3-0.1-0.5-0.3-0.7
			C56.7,67,56.4,66.9,56.1,66.9z"/>
	</g>
	<g>
		<path class="st0" d="M19.7,20.1c0.9,0,1.5,0.6,1.5,1.5s-0.7,1.6-1.5,1.5c-0.8,0-1.5-0.8-1.5-1.5C18.1,20.7,18.8,20,19.7,20.1z"/>
		<path class="st0" d="M19.7,23.6C19.7,23.6,19.6,23.6,19.7,23.6c-1.2-0.1-2.1-1-2.1-2c0-0.5,0.2-1,0.6-1.4s0.9-0.6,1.5-0.6l0,0
			c1.1,0,2,0.9,2,2c0,0.6-0.2,1.1-0.7,1.5C20.6,23.4,20.2,23.6,19.7,23.6z M19.7,20.6c-0.3,0-0.6,0.1-0.8,0.3
			c-0.2,0.2-0.3,0.4-0.3,0.7c0,0.5,0.5,1,1,1c0.2,0,0.5-0.1,0.7-0.3c0.2-0.2,0.3-0.5,0.3-0.8C20.7,21,20.3,20.6,19.7,20.6L19.7,20.6
			z"/>
	</g>
</g>
</svg>
