<?xml version="1.0" encoding="utf-8"?>
<!-- Generator: Adobe Illustrator 28.0.0, SVG Export Plug-In . SVG Version: 6.00 Build 0)  -->
<svg version="1.1" id="圖層_1" xmlns="http://www.w3.org/2000/svg" xmlns:xlink="http://www.w3.org/1999/xlink" x="0px" y="0px"
	 viewBox="0 0 80 80" style="enable-background:new 0 0 80 80;" xml:space="preserve">
<style type="text/css">
	.st0{fill:#0D0A8A;}
</style>
<g>
	<g>
		<path class="st0" d="M46.1,78.9c-1.1-0.8-1.2-1.1-0.9-2.5c0.4-1.7,0.9-3.3,1.3-5c0.3-1.1,1-1.6,1.9-1.4s1.3,1,1,2.1
			c-0.4,1.7-0.9,3.3-1.3,5c-0.2,0.7-0.5,1.4-1.2,1.7C46.7,78.9,46.4,78.9,46.1,78.9z"/>
		<path class="st0" d="M47.2,79.4H46l-0.1-0.1c-1.3-0.9-1.5-1.5-1.1-3.1l0.2-0.7c0.4-1.4,0.7-2.8,1.1-4.2c0.4-1.4,1.4-2.1,2.6-1.8
			c0.5,0.1,1,0.4,1.2,0.9c0.3,0.5,0.4,1.2,0.2,1.9c-0.2,0.7-0.3,1.3-0.5,2c-0.3,1-0.5,2-0.8,3c-0.2,0.6-0.5,1.6-1.5,2.1L47.2,79.4z
			 M46.3,78.3h0.6c0.4-0.3,0.6-0.7,0.8-1.3c0.2-1,0.5-2,0.8-3c0.2-0.7,0.3-1.3,0.5-2c0.1-0.4,0.1-0.8-0.1-1.1
			c-0.1-0.2-0.3-0.3-0.5-0.4c-0.6-0.1-1,0.2-1.2,1c-0.4,1.4-0.8,2.8-1.1,4.2l-0.2,0.7C45.5,77.6,45.5,77.7,46.3,78.3z"/>
	</g>
	<g>
		<path class="st0" d="M62.6,26.3c1.2,1.2,2.5,2.3,3.7,3.5c1.7,1.8,2.4,3.9,1.6,6.2c-0.3,1-1,1.9-1.7,2.6
			c-3.5,3.7-7.1,7.3-10.6,10.9c-0.3,0.3-0.5,0.7-0.6,1.1c-1.2,4.3-2.5,8.6-3.7,13c0,0.1-0.1,0.3-0.1,0.4c-0.4,1.4-1.7,1.7-2.7,0.7
			c-0.9-0.9-1.8-1.9-2.8-2.8c-0.2-0.2-0.4-0.3-0.6-0.6c-0.6,1.2-1.1,2.3-1.6,3.5c-0.4,0.8-1,1.1-1.8,1c-1-0.2-1.4-1.2-1-2.2
			c0.6-1.3,1.2-2.6,1.8-3.9c0.2-0.5,0.2-0.8-0.2-1.2c-0.8-1-1.7-1.4-3.1-1.3c-5.8,0.2-10.9-4.3-11.5-10.1c-0.1-0.9-0.1-1.8,0-2.6
			c0-0.6,0-1-0.5-1.4c-1.4-1.4-1.4-1.4-3.1-0.5c-2.2,1-4.3,2.1-6.5,3.1c-0.8,0.4-1.5,0.2-2-0.4c-0.4-0.5-0.4-1.3,0-1.8
			c0.3-0.3,0.6-0.5,1-0.7c2.3-1.1,4.6-2.2,6.9-3.3c-0.1-0.2-0.2-0.3-0.4-0.5c-1-1-2-2-2.9-3c-1.1-1.1-0.8-2.4,0.7-2.8
			c4.3-1.3,8.6-2.5,12.8-3.8c0.5-0.1,1-0.4,1.3-0.8c3.3-3.3,6.5-6.6,9.7-9.9c1.4-1.5,2.9-2.9,5.2-2.9c0-0.3,0-0.6,0-0.9
			c0-3.9,0-7.8,0-11.7c0-1.5,0.5-2,2.1-2c1.4,0,2.7,0,4.1,0c1.6,0,2.1,0.5,2.1,2.1c0,5.7,0,11.5,0,17.2c0,1.4,1,2,1.8,2.7
			c0.4,0.3,1.2,0.1,1.8-0.1c0.9-0.2,1.9-0.4,2.7-0.9c2.2-1.1,3.1-3.3,2.3-5.7c-0.5-1.6-1.3-3.1-2-4.7s-1.3-3.2-1.5-4.9
			c-0.2-1.8,0.2-3.5,1.1-5c0.5-0.8,1.3-1,2-0.6s1.1,1.2,0.6,2c-1.3,2.5-0.7,4.9,0.4,7.3c0.8,1.6,1.6,3.3,2.2,5c1.5,4.7-1,9-5.8,10.2
			c-0.4,0.1-0.7,0.2-1.1,0.3C62.7,26.1,62.7,26.2,62.6,26.3z M49.9,18.8c-0.9,0-1.6,0.5-2.1,1.1c-3.3,3.4-6.6,6.7-9.9,10.1
			c-0.2,0.2-0.3,0.3-0.5,0.5c5.4,5.6,10.9,11.1,16.3,16.6c3.6-3.6,7.1-7.2,10.6-10.8c1.3-1.3,1.2-3-0.1-4.3
			c-1.9-1.9-3.7-3.8-5.6-5.7c-0.1-0.1-0.2-0.2-0.4-0.4c0,0.4,0,0.7,0,0.9c0,1.6,0,3.2,0,4.8c0,1.3-0.6,1.8-1.8,1.8
			c-1.5,0-2.9,0-4.4,0s-2-0.5-2-2.1c0-3.9,0-7.8,0-11.8C49.9,19.4,49.9,19.1,49.9,18.8z M48.9,61C50,57.2,51,53.7,52,50.1
			c0-0.2-0.1-0.5-0.2-0.6c-5.5-5.6-11-11.2-16.5-16.8c-0.1-0.1-0.4-0.3-0.6-0.3c-1.2,0.3-2.4,0.7-3.6,1c0,0.1-0.1,0.2-0.1,0.2
			c0.5,0.4,1,0.8,1.4,1.2c0.2,0.2,0.3,0.3,0.5,0.5c0.5,0.7,0.5,1.5,0,2.1c-0.6,0.6-1.4,0.6-2.1,0c-0.9-0.9-1.8-1.8-2.7-2.7
			c-0.2-0.2-0.4-0.4-0.6-0.3c-1.2,0.3-2.3,0.7-3.6,1.1C32.2,44,40.5,52.5,48.9,61z M55.1,30.4c0-8.8,0-17.5,0-26.2
			c-0.7,0-1.4,0-2.1,0c0,8.8,0,17.5,0,26.2C53.7,30.4,54.4,30.4,55.1,30.4z M37.8,53.9c-2.4-2.3-4.8-4.6-7.1-6.7
			C31,50.4,34.3,53.9,37.8,53.9z"/>
		<path class="st0" d="M42,66.5c-0.2,0-0.4,0-0.5-0.1c-0.6-0.2-1.1-0.5-1.4-1.1c-0.3-0.6-0.3-1.2,0-1.9c0.6-1.3,1.2-2.6,1.8-3.9
			c0.1-0.2,0.1-0.3-0.1-0.6c-0.7-0.9-1.5-1.2-2.7-1.1c-0.1,0-0.3,0-0.4,0c-5.9,0-11-4.6-11.7-10.6c-0.1-0.9-0.1-1.8,0-2.7
			c0-0.5,0-0.7-0.3-1l-0.1-0.1c-0.5-0.5-0.9-0.8-1.1-0.9c-0.2,0-0.7,0.2-1.3,0.5l-1.6,0.8c-1.6,0.8-3.2,1.5-4.9,2.3
			c-1,0.5-2.1,0.3-2.7-0.5c-0.6-0.8-0.6-1.9,0-2.6c0.3-0.3,0.7-0.6,1.2-0.8c1.7-0.8,3.4-1.6,5.2-2.5l1.1-0.5c-0.3-0.4-0.7-0.7-1-1.1
			c-0.6-0.6-1.2-1.2-1.7-1.8c-0.7-0.7-0.9-1.5-0.7-2.2c0.2-0.7,0.8-1.3,1.7-1.6c1.5-0.5,3-0.9,4.6-1.3c2.7-0.8,5.5-1.6,8.3-2.5
			c0.4-0.1,0.8-0.4,1.1-0.6c3.8-3.8,6.9-6.9,9.7-9.9c1.2-1.3,2.7-2.8,5-3v-3.6c0-2.8,0-5.6,0-8.5c0-1.9,0.8-2.6,2.6-2.6
			c1.4,0,2.7,0,4.1,0c1.9,0,2.7,0.8,2.7,2.7c0,1.5,0,2.9,0,4.4c0,4.2,0,8.6,0,12.8c0,0.9,0.5,1.4,1.3,2c0.1,0.1,0.2,0.2,0.3,0.2
			c0.2,0.1,0.9-0.1,1.2-0.2h0.1c1-0.2,1.8-0.4,2.6-0.8c1.9-1,2.7-2.9,2-5c-0.4-1.2-1-2.4-1.5-3.6c-0.2-0.3-0.3-0.7-0.5-1
			c-0.7-1.4-1.4-3.2-1.5-5.1C62.6,5.1,63,3.3,64,1.7c0.6-1,1.8-1.4,2.8-0.8c0.5,0.3,0.9,0.7,1,1.2c0.2,0.5,0.1,1-0.1,1.5
			C66.3,6,67.1,8.2,68,10.3c0.1,0.3,0.3,0.5,0.4,0.8c0.7,1.4,1.3,2.8,1.8,4.3c0.7,2.4,0.5,4.8-0.6,6.8s-3.1,3.5-5.6,4.2
			c-0.2,0-0.3,0.1-0.5,0.1c0.2,0.2,0.4,0.4,0.6,0.6c0.9,0.8,1.7,1.6,2.6,2.5c2,2,2.6,4.4,1.7,6.8c-0.3,1-1,2-1.8,2.9
			c-2.2,2.3-4.5,4.6-6.7,6.9c-1.3,1.3-2.6,2.7-3.9,4c-0.2,0.2-0.4,0.5-0.5,0.8c-1,3.3-1.9,6.8-2.9,10.1L51.8,64
			c0,0.1-0.1,0.3-0.1,0.4l0,0c-0.3,0.9-0.8,1.5-1.5,1.6c-0.7,0.2-1.5-0.1-2.1-0.7s-1.3-1.3-1.9-1.9c-0.3-0.3-0.6-0.6-0.9-0.9l0,0
			c-0.1,0.1-0.1,0.2-0.2,0.4c-0.4,0.8-0.7,1.6-1.1,2.4C43.5,66.1,42.8,66.5,42,66.5z M39.3,56.7c1.4,0,2.4,0.5,3.4,1.5
			c0.4,0.4,0.7,1,0.3,1.8c-0.6,1.3-1.2,2.6-1.8,3.9c-0.2,0.4-0.2,0.7,0,1c0.1,0.2,0.3,0.4,0.6,0.5s0.8,0.1,1.1-0.7
			c0.4-0.8,0.7-1.6,1.1-2.4c0.2-0.4,0.3-0.7,0.5-1.1l0.3-0.7l0.6,0.5c0.1,0.1,0.2,0.1,0.2,0.2c0.1,0.1,0.3,0.3,0.4,0.4
			c0.3,0.3,0.6,0.6,0.9,0.9c0.6,0.6,1.2,1.2,1.8,1.9c0.4,0.4,0.7,0.5,1.1,0.4c0.3-0.1,0.6-0.4,0.7-0.9l0,0c0-0.1,0.1-0.3,0.1-0.4
			l0.8-2.9c0.9-3.3,1.9-6.7,2.9-10.1c0.1-0.5,0.4-1,0.8-1.3c1.3-1.3,2.6-2.7,3.9-4c2.2-2.2,4.5-4.6,6.7-6.9c0.7-0.8,1.3-1.6,1.6-2.4
			c0.7-2.1,0.2-4-1.4-5.7c-0.8-0.8-1.7-1.6-2.6-2.4c-0.4-0.4-0.8-0.7-1.2-1.1l-0.4-0.3l0.6-0.8l0.5-0.1c0.3-0.1,0.5-0.1,0.8-0.2
			c2.2-0.6,3.9-1.9,4.9-3.6s1.1-3.8,0.5-5.9c-0.4-1.4-1.1-2.8-1.7-4.1c-0.1-0.3-0.3-0.5-0.4-0.8c-1-2.2-1.9-4.9-0.4-7.8
			c0.1-0.2,0.1-0.4,0.1-0.6c-0.1-0.2-0.2-0.4-0.5-0.5c-0.5-0.2-1-0.1-1.3,0.4c-0.8,1.4-1.2,3-1,4.7c0.1,1.7,0.8,3.4,1.4,4.7
			c0.1,0.3,0.3,0.7,0.5,1c0.6,1.2,1.1,2.4,1.6,3.7c0.9,2.6-0.2,5.2-2.6,6.4c-0.9,0.4-1.8,0.7-2.9,0.9h-0.1C61,24,60,24.2,59.5,23.7
			c-0.1-0.1-0.2-0.1-0.3-0.2c-0.8-0.6-1.7-1.4-1.7-2.9c0.1-4.3,0-8.6,0-12.8c0-1.5,0-2.9,0-4.4c0-1.3-0.2-1.6-1.5-1.6
			c-1.4,0-2.7,0-4.1,0c-1.2,0-1.5,0.3-1.5,1.5c0,2.8,0,5.6,0,8.5v4.7h-0.6c-2,0-3.3,1.2-4.8,2.7c-2.9,3-6,6.1-9.7,9.9
			c-0.4,0.4-1,0.8-1.6,0.9c-2.8,0.8-5.6,1.7-8.3,2.5c-1.5,0.4-3,0.9-4.6,1.3c-0.5,0.2-0.9,0.4-0.9,0.8c-0.1,0.3,0.1,0.7,0.5,1.1
			c0.6,0.6,1.2,1.2,1.7,1.8c0.4,0.4,0.8,0.8,1.2,1.2c0.1,0.1,0.2,0.2,0.3,0.4c0,0.1,0.1,0.1,0.1,0.2l0.4,0.6L21.7,41
			c-1.8,0.8-3.5,1.6-5.2,2.5c-0.4,0.2-0.6,0.4-0.8,0.6c-0.2,0.3-0.2,0.8,0,1.1c0.3,0.4,0.8,0.4,1.3,0.2c1.6-0.8,3.3-1.5,4.9-2.3
			l1.6-0.8c1.9-0.9,2.2-0.9,3.7,0.6l0.1,0.1c0.6,0.6,0.7,1.3,0.6,1.9c-0.1,0.9-0.1,1.7,0,2.5c0.6,5.6,5.4,9.8,10.9,9.6
			C39.2,56.7,39.3,56.7,39.3,56.7z M49.1,62.1L22.8,35.2l0.9-0.3c0.3-0.1,0.6-0.2,0.9-0.3c0.9-0.3,1.8-0.6,2.7-0.8
			c0.5-0.1,1,0.3,1.2,0.5c0.4,0.4,0.7,0.7,1.1,1.1c0.5,0.5,1,1.1,1.6,1.6c0.4,0.4,0.9,0.4,1.3,0c0.3-0.4,0.3-0.9,0-1.3
			c-0.1-0.2-0.3-0.3-0.4-0.4c-0.3-0.3-0.7-0.6-1-0.9l-0.7-0.6l0.4-0.9l0.3-0.1c0.3-0.1,0.6-0.2,0.8-0.2c0.9-0.3,1.8-0.6,2.8-0.8
			c0.5-0.1,0.9,0.2,1.1,0.5c6.1,6.2,11.5,11.7,16.5,16.8c0.2,0.2,0.5,0.7,0.4,1.2c-0.8,3-1.7,5.9-2.6,9.1L49.1,62.1z M24.9,35.8
			L48.6,60l0.3-0.9c0.9-3.1,1.7-6,2.5-9L51.3,50c-5-5.2-10.4-10.7-16.5-16.8l-0.1-0.1c-0.9,0.2-1.7,0.5-2.6,0.8H32
			c0.3,0.2,0.6,0.5,0.8,0.7s0.4,0.4,0.5,0.6c0.7,0.9,0.7,2.1-0.1,2.8c-0.8,0.8-2,0.9-2.9,0c-0.6-0.5-1.1-1.1-1.6-1.6
			c-0.3-0.4-0.7-0.7-1.1-1.1c-0.1-0.1-0.1-0.1-0.2-0.1C26.7,35.2,25.8,35.5,24.9,35.8C24.9,35.7,24.9,35.8,24.9,35.8z M51.4,50
			L51.4,50L51.4,50z M39.2,54.5h-1.4c-3.6,0-7.4-3.5-7.7-7.2L30,45.8L39.2,54.5z M31.7,49c0.8,1.8,2.5,3.4,4.3,4L31.7,49z M53.8,48
			L36.7,30.5l0.4-0.4c0.1-0.1,0.1-0.1,0.2-0.2c0.1-0.1,0.2-0.2,0.3-0.4c1.4-1.5,2.9-2.9,4.3-4.4c1.9-1.9,3.7-3.8,5.6-5.7
			c0.6-0.7,1.4-1.3,2.5-1.3h0.6v4.7c0,2.8,0,5.6,0,8.5c0,1.2,0.2,1.5,1.5,1.5h0.7c1.2,0,2.5,0,3.7,0c0.9,0,1.2-0.3,1.3-1.2
			c0-1,0-2.1,0-3.1c0-0.6,0-1.1,0-1.7c0-0.2,0-0.4,0-0.6c0-0.1,0-0.2,0-0.4l0.1-1.2l0.9,0.8c0.1,0.1,0.1,0.1,0.2,0.2
			c0.1,0.1,0.2,0.2,0.3,0.2c0.5,0.5,1,1.1,1.6,1.6c1.3,1.4,2.7,2.8,4.1,4.2c1.5,1.5,1.5,3.6,0.1,5.1c-2.5,2.6-5.1,5.2-7.5,7.7
			c-1,1-2,2.1-3,3.1L53.8,48z M38.2,30.5l15.5,15.9c0.9-0.9,1.8-1.8,2.6-2.7c2.5-2.5,5-5.1,7.5-7.7c1-1.1,1-2.4-0.1-3.5
			c-1.3-1.4-2.7-2.8-4.1-4.2c-0.3-0.4-0.7-0.7-1-1.1c0,0.4,0,0.9,0,1.3c0,1,0,2.1,0,3.1c0,1.6-0.8,2.4-2.4,2.4c-1.2,0-2.5,0-3.7,0
			h-0.7c-1.9,0-2.6-0.8-2.6-2.6c0-2.8,0-5.6,0-8.5v-3.5c-0.4,0.1-0.8,0.4-1.2,0.8c-1.9,1.9-3.7,3.8-5.6,5.7
			C41.2,27.5,39.7,28.9,38.2,30.5C38.3,30.4,38.3,30.5,38.2,30.5z M55.6,31h-3.2V3.7h3.2V31z M53.6,29.9h0.9v-25h-0.9V29.9z"/>
	</g>
	<g>
		<path class="st0" d="M14.8,72c-1.4,0-2.1-1.2-1.6-2.2c0.2-0.3,0.4-0.5,0.6-0.8c2.8-2.8,5.6-5.7,8.3-8.5c0.2-0.2,0.5-0.5,0.7-0.6
			c0.6-0.4,1.2-0.3,1.7,0.2c0.5,0.4,0.6,1.2,0.3,1.8c-0.1,0.2-0.3,0.5-0.5,0.6c-2.8,2.9-5.6,5.8-8.5,8.7C15.5,71.6,15,71.9,14.8,72z
			"/>
		<path class="st0" d="M15,72.6h-0.2c-0.9,0-1.7-0.4-2.1-1.1c-0.3-0.6-0.4-1.3,0-1.9c0.2-0.3,0.5-0.6,0.7-0.9
			c2.7-2.8,5.5-5.7,8.3-8.5c0.3-0.3,0.5-0.5,0.9-0.7c0.8-0.5,1.7-0.4,2.4,0.3c0.7,0.6,0.9,1.7,0.4,2.5c-0.2,0.3-0.4,0.6-0.6,0.8
			l-1.1,1.1c-2.4,2.5-4.9,5.1-7.4,7.6c-0.3,0.3-0.7,0.5-1,0.7C15.2,72.5,15.1,72.6,15,72.6L15,72.6z M23.6,60.3
			c-0.2,0-0.3,0.1-0.4,0.1c-0.2,0.1-0.4,0.3-0.6,0.5c-2.8,2.8-5.6,5.7-8.3,8.5c-0.2,0.2-0.4,0.4-0.5,0.6c-0.1,0.3-0.1,0.5,0,0.8
			c0.2,0.3,0.5,0.5,0.9,0.5c0,0,0.1,0,0.1-0.1c0.2-0.1,0.5-0.3,0.8-0.5c2.5-2.5,5-5.1,7.4-7.6l1.1-1.1c0.1-0.1,0.3-0.3,0.4-0.5
			c0.2-0.4,0.1-0.8-0.2-1.1C24,60.4,23.8,60.3,23.6,60.3z"/>
	</g>
	<g>
		<path class="st0" d="M27.5,73.6c-1.3,0-2-1.1-1.6-2.1c0.1-0.2,0.2-0.4,0.3-0.6c1.6-2.3,3.1-4.5,4.7-6.8c0.1-0.2,0.3-0.4,0.4-0.5
			c0.5-0.5,1.3-0.6,1.9-0.1c0.6,0.4,0.9,1.2,0.5,1.8c-1.8,2.7-3.6,5.3-5.4,7.9C28.1,73.5,27.7,73.5,27.5,73.6z"/>
		<path class="st0" d="M27.5,74.2c-0.8,0-1.5-0.3-1.9-0.9s-0.5-1.3-0.2-1.9c0.1-0.2,0.2-0.5,0.4-0.7c1.5-2.2,3.1-4.5,4.7-6.8
			c0.2-0.2,0.3-0.5,0.5-0.6c0.7-0.7,1.8-0.8,2.6-0.2s1.2,1.7,0.6,2.6c-1.5,2.3-3.2,4.8-5.4,7.9c-0.2,0.3-0.6,0.5-0.9,0.6h-0.1
			l-0.1,0.1L27.5,74.2L27.5,74.2z M32.4,63.8c-0.2,0-0.4,0.1-0.6,0.3c-0.1,0.1-0.2,0.2-0.4,0.4c-1.6,2.3-3.2,4.6-4.7,6.8
			c-0.1,0.2-0.2,0.3-0.3,0.5c-0.1,0.3-0.1,0.6,0.1,0.8c0.2,0.3,0.5,0.4,0.9,0.4h0.1c0.1,0,0.3-0.1,0.3-0.2c2.2-3.1,3.8-5.5,5.4-7.9
			c0.2-0.3,0-0.8-0.3-1C32.7,63.9,32.5,63.8,32.4,63.8z"/>
	</g>
	<g>
		<path class="st0" d="M12.8,59.2c-0.4-0.3-1-0.6-1.1-1c-0.2-0.4,0-1,0.1-1.5c0.1-0.2,0.4-0.4,0.6-0.6c2.2-1.6,4.4-3.1,6.5-4.7
			c0.2-0.2,0.5-0.3,0.8-0.4c0.6-0.2,1.4,0.1,1.7,0.6c0.3,0.6,0.3,1.2-0.2,1.8c-0.2,0.2-0.4,0.3-0.6,0.5c-2.2,1.6-4.4,3.1-6.6,4.7
			C13.8,58.8,13.4,58.9,12.8,59.2z"/>
		<path class="st0" d="M12.7,59.9l-0.3-0.2c-0.1-0.1-0.2-0.2-0.4-0.3c-0.4-0.2-0.7-0.5-0.9-1c-0.2-0.6-0.1-1.3,0.1-1.9
			c0.1-0.4,0.5-0.6,0.7-0.8l0.1-0.1c2.2-1.6,4.4-3.1,6.5-4.7c0.2-0.2,0.6-0.4,0.9-0.5c0.9-0.3,1.9,0.1,2.4,0.9
			c0.5,0.8,0.4,1.7-0.2,2.4c-0.2,0.2-0.5,0.4-0.7,0.6l-0.6,0.4c-2,1.4-4,2.9-6,4.3c-0.3,0.2-0.6,0.3-0.9,0.5
			c-0.2,0.1-0.3,0.1-0.5,0.2L12.7,59.9z M12.3,56.8c-0.1,0.3-0.2,0.9-0.1,1.2c0,0.1,0.3,0.3,0.5,0.4l0.1,0.1c0.1,0,0.1-0.1,0.2-0.1
			c0.3-0.1,0.5-0.2,0.7-0.4c2-1.4,4-2.9,6-4.3l0.6-0.4c0.2-0.1,0.3-0.2,0.5-0.4c0.3-0.3,0.3-0.7,0.1-1.1c-0.2-0.3-0.6-0.5-1-0.4
			c-0.2,0.1-0.5,0.2-0.6,0.4c-2.2,1.5-4.4,3.1-6.5,4.7l-0.1,0.1C12.5,56.7,12.4,56.8,12.3,56.8z M12.3,56.8L12.3,56.8L12.3,56.8z"/>
	</g>
	<g>
		<path class="st0" d="M13.5,34.7c0.8,0.1,1.4,0.6,1.5,1.3s-0.2,1.5-1,1.7c-1.5,0.5-3,0.8-4.4,1.2c-0.5,0.1-1,0.3-1.5,0.4
			c-0.7,0.1-1.4-0.3-1.7-1c-0.3-0.7,0-1.6,0.7-1.8C9.3,35.9,11.4,35.3,13.5,34.7z"/>
		<path class="st0" d="M7.8,39.9c-0.9,0-1.6-0.5-1.9-1.4C5.7,38,5.7,37.4,6,36.9c0.2-0.4,0.6-0.7,1-0.9c1.5-0.5,3.1-0.9,4.6-1.4
			c0.6-0.2,1.2-0.3,1.8-0.5h0.1h0.1c1.1,0.1,1.8,0.8,2,1.8c0.2,1.1-0.4,2-1.4,2.4c-1.1,0.3-2.2,0.6-3.2,0.9
			c-0.4,0.1-0.8,0.2-1.2,0.3c-0.1,0-0.2,0.1-0.3,0.1c-0.4,0.1-0.8,0.2-1.2,0.3C8.1,39.9,8,39.9,7.8,39.9z M13.6,35.3
			c-0.6,0.2-1.1,0.3-1.7,0.5c-1.5,0.4-3.1,0.9-4.6,1.3c-0.1,0-0.2,0.1-0.3,0.3c-0.1,0.2-0.1,0.5,0,0.8c0.2,0.4,0.6,0.7,1,0.6
			c0.4-0.1,0.7-0.2,1.1-0.3c0.1,0,0.2-0.1,0.4-0.1c0.4-0.1,0.8-0.2,1.2-0.3c1.1-0.3,2.1-0.6,3.2-0.9c0.5-0.2,0.7-0.6,0.7-1
			C14.4,35.5,13.9,35.3,13.6,35.3z"/>
	</g>
	<g>
		<path class="st0" d="M38.7,68.3c0-0.8,0.7-1.6,1.5-1.6s1.5,0.7,1.5,1.6s-0.7,1.6-1.6,1.5C39.3,69.8,38.7,69.1,38.7,68.3z"/>
		<path class="st0" d="M40.2,70.4L40.2,70.4c-1.2,0-2.1-1-2.1-2.1l0,0c0-1.1,1-2.1,2.1-2.1l0,0c0.5,0,1.1,0.2,1.5,0.6s0.6,1,0.6,1.5
			c0,0.6-0.3,1.1-0.7,1.5C41.2,70.2,40.7,70.4,40.2,70.4z M39.3,68.3c0,0.5,0.4,0.9,0.9,0.9c0.2,0,0.4-0.1,0.6-0.2
			c0.2-0.2,0.3-0.5,0.3-0.7c0-0.3-0.1-0.5-0.3-0.7s-0.4-0.3-0.7-0.3C39.7,67.3,39.3,67.8,39.3,68.3L39.3,68.3z"/>
	</g>
	<g>
		<path class="st0" d="M36.4,39.5c0,0.8-0.6,1.5-1.5,1.5c-0.8,0-1.6-0.7-1.6-1.5S34,38,34.8,38C35.7,38,36.4,38.7,36.4,39.5z"/>
		<path class="st0" d="M35,41.6c-0.5,0-1.1-0.2-1.5-0.6c-0.4-0.4-0.6-0.9-0.6-1.5c0-1.1,1-2.1,2.1-2.1s2,0.9,2.1,2.1l0,0
			c0,0.6-0.2,1.1-0.6,1.5C36,41.4,35.5,41.6,35,41.6L35,41.6z M34.9,38.6c-0.5,0-0.9,0.5-0.9,0.9c0,0.2,0.1,0.5,0.3,0.7
			s0.4,0.3,0.7,0.3l0,0c0.2,0,0.5-0.1,0.6-0.3c0.2-0.2,0.3-0.4,0.3-0.7l0,0C35.9,39.1,35.4,38.6,34.9,38.6L34.9,38.6z"/>
	</g>
</g>
</svg>
