<?xml version="1.0" encoding="utf-8"?>
<!-- Generator: Adobe Illustrator 28.0.0, SVG Export Plug-In . SVG Version: 6.00 Build 0)  -->
<svg version="1.1" id="圖層_1" xmlns="http://www.w3.org/2000/svg" xmlns:xlink="http://www.w3.org/1999/xlink" x="0px" y="0px"
	 viewBox="0 0 80 80" style="enable-background:new 0 0 80 80;" xml:space="preserve">
<style type="text/css">
	.st0{fill:#0D0A8A;}
</style>
<g>
	<g>
		<path class="st0" d="M51.2,78.7c-0.8-0.3-1.3-1-1.8-1.8c-3-4.6-6-9.2-9-13.7l-2.6-4c-0.1-0.2-0.2-0.3-0.3-0.5l-0.2-0.2
			c-0.2-0.2-0.4-0.4-0.7-0.4c0,0,0,0,0,0c-0.3,0-0.5,0.1-0.7,0.4l-0.2,0.3c-0.1,0.2-0.2,0.4-0.4,0.5l-2.7,4.1c-3,4.5-6,9.1-8.9,13.6
			c-0.6,0.9-1.1,1.5-1.8,1.8h-1.1c0,0-0.1,0-0.1-0.1c-0.8-0.3-1.4-0.9-1.5-1.5c-0.2-0.6,0-1.4,0.4-2.1c1.3-2,2.7-4,4-6.1l7.6-11.5
			c0.1-0.1,0.2-0.3,0.3-0.4l0.2-0.3c0.2-0.3,0.2-0.6,0-0.8c-0.1-0.3-0.4-0.4-0.7-0.5l-0.3,0c-0.2,0-0.4,0-0.6,0l-5.1,0
			c-1.1,0-2.1,0-3.2,0c-4.4,0-8.1-3.7-8.1-8.1l0-3.2c0-7.1,0-14.3,0-21.4c0-3.5,1.7-6.1,5-7.7c0.8-0.4,1.1-0.9,1.1-1.7
			c0-0.4,0-0.9,0-1.3c0-1.3,0-2.6,0.3-3.8c0.8-3.5,4.1-6.2,7.8-6.2l35.4,0c1.4,0,2.3,0.9,2.3,2.2C65.6,5,65.4,5.6,65,6
			c-0.4,0.4-1,0.6-1.7,0.6l-22.5,0c-2.9,0-4.5,1.6-4.5,4.4l0,1.9c0,1.2,0,2.4,0,3.6c0,1.4-0.9,2.3-2.3,2.3l-11.7,0
			c-2.8,0-4.4,1.6-4.4,4.4c0,7.8,0,15.7,0,23.5c0,2.7,1.6,4.4,4.3,4.4h28.5c2.7,0,4.3-1.6,4.3-4.3c0-7.9,0-15.8,0-23.7
			c0-2.7-1.6-4.3-4.3-4.3l-2.9,0c-0.5,0-1.1,0-1.6,0c-1.2,0-2.2-1-2.2-2.2c0-1.2,0.9-2.2,2.2-2.2c0.8,0,1.6,0,2.3,0l2.7,0
			c4.4,0,8.2,3.7,8.2,8.2v1c0,0.3,0.2,0.6,0.4,0.7c0.1,0.1,0.3,0.1,0.4,0.1s0.3,0,0.4-0.1l4.4-2.6c1.4-0.8,2.7-1.2,4.1-1.2
			c4.2,0,7.5,2.7,8.4,6.7c0,0.2,0.1,0.3,0.1,0.4v14.7c-0.1,0.2-0.1,0.4-0.2,0.7c-0.2,0.5-0.3,1.1-0.5,1.5c-1.4,3-4.3,4.9-7.6,4.9
			c-1.4,0-2.8-0.4-4.1-1.1c-1-0.6-2.1-1.2-3.1-1.8l-1.5-0.9c-0.1-0.1-0.3-0.1-0.4-0.1c-0.1,0-0.3,0-0.4,0.1
			c-0.3,0.2-0.4,0.4-0.4,0.7v0.9c0,4.5-3.7,8.2-8.2,8.2l-9,0c-0.3,0-0.6,0.2-0.7,0.4s-0.1,0.6,0,0.9l0.2,0.3
			c0.1,0.2,0.2,0.3,0.3,0.4l7.7,11.7c1.3,1.9,2.6,3.9,3.8,5.8c0.5,0.7,0.6,1.5,0.4,2.1c-0.2,0.6-0.7,1.2-1.5,1.5c0,0-0.1,0-0.1,0.1
			H51.2z M69.7,25c-0.8,0-1.5,0.2-2.3,0.6c-1,0.6-2,1.2-3,1.8c-1.3,0.7-2.5,1.5-3.8,2.2c-0.4,0.2-1,0.7-1,1.6c0,2.5,0,5,0,7.5
			c0,0.7,0.3,1.3,1,1.6c1.3,0.8,2.6,1.5,4,2.3c1,0.6,1.9,1.1,2.9,1.7c0.7,0.4,1.5,0.7,2.3,0.7c2.2,0,3.8-1.8,3.8-4.2
			c0-1.3,0-2.6,0-3.9v-3.7c0-1.3,0-2.7,0-4C73.5,26.7,71.9,25,69.7,25z M29.2,6.6c-0.5,0-1,0-1.5,0c-1.9,0.1-3.3,1.4-3.6,3.2
			c-0.1,0.9-0.1,1.7-0.1,2.6c0,0.4,0,0.7,0,1.1c0,0.5,0.4,0.9,0.9,0.9h5.9c0.5,0,0.8-0.4,0.8-0.8l0.4-6.1c0-0.2-0.1-0.5-0.2-0.6
			c-0.2-0.2-0.4-0.3-0.6-0.3c-0.3,0-0.6,0-1,0C30,6.6,29.6,6.6,29.2,6.6z"/>
		<path class="st0" d="M3.5,37.2c-1.3,0-2.2-1-2.2-2.3c0-1.5,0-6.1,0-6.1s0-4.5,0-6c0-1.3,0.9-2.3,2.2-2.3c1.3,0,2.2,0.9,2.2,2.2
			c0,4,0,8.1,0,12.1C5.7,36.2,4.8,37.2,3.5,37.2L3.5,37.2z"/>
		<path class="st0" d="M28,31c-0.6,0-1.2-0.2-1.6-0.6c-0.4-0.4-0.6-1-0.6-1.6c0-1.2,1-2.2,2.2-2.2c1.3,0,2.2,0.9,2.2,2.2
			C30.2,30.1,29.2,31,28,31L28,31z"/>
	</g>
	<g>
		<g>
			<path class="st0" d="M28.1,37.2c0-0.3,0.1-0.4,0.4-0.4h0.9c0.3,0,0.4,0.1,0.4,0.4v3.1c0,0.2,0.1,0.3,0.3,0.3h3.5
				c0.2,0,0.3-0.1,0.3-0.3v-3.1c0-0.3,0.1-0.4,0.4-0.4h0.9c0.3,0,0.4,0.1,0.4,0.4v8.8c0,0.3-0.1,0.4-0.4,0.4h-0.9
				c-0.3,0-0.4-0.1-0.4-0.4v-3.4c0-0.2-0.1-0.3-0.3-0.3h-3.5c-0.2,0-0.3,0.1-0.3,0.3v3.4c0,0.3-0.1,0.4-0.4,0.4h-0.9
				c-0.3,0-0.4-0.1-0.4-0.4V37.2z"/>
			<path class="st0" d="M35.2,47.1h-0.9c-0.7,0-1.1-0.5-1.1-1.1v-3h-2.6v3c0,0.7-0.5,1.1-1.1,1.1h-0.9c-0.7,0-1.1-0.5-1.1-1.1v-8.8
				c0-0.7,0.5-1.2,1.1-1.2h0.9c0.7,0,1.1,0.5,1.1,1.1v2.7h2.6v-2.7c0-0.7,0.5-1.1,1.1-1.1h0.9c0.7,0,1.1,0.5,1.1,1.1v8.8
				C36.3,46.6,35.8,47.1,35.2,47.1z M34.6,45.6h0.2v-8.1h-0.2v2.8c0,0.6-0.4,1.1-1.1,1.1h-3.5c-0.6,0-1.1-0.4-1.1-1.1v-2.8h-0.2v8.1
				h0.2v-3.1c0-0.6,0.4-1.1,1.1-1.1h3.5c0.6,0,1.1,0.4,1.1,1.1V45.6z M28.9,37.2l-0.8,0L28.9,37.2C28.9,37.2,28.9,37.2,28.9,37.2z"
				/>
		</g>
		<g>
			<path class="st0" d="M39,37.2c0-0.3,0.1-0.4,0.4-0.4h2.9c1.1,0,2.1,0.4,3.1,1c0.7,0.5,1.2,1.2,1.5,1.9c0.5,1.6,0.4,3.2-0.3,4.6
				c-0.7,1.1-1.7,1.7-2.9,1.9c-0.4,0.1-0.8,0.2-1.4,0.2h-2.8c-0.3,0-0.4-0.1-0.4-0.4V37.2z M42.8,38.4c-0.6-0.1-1.3-0.1-1.8-0.1
				c-0.2,0-0.3,0.1-0.3,0.3v5.8c0,0.2,0.1,0.3,0.3,0.3h1.4c0.8,0,1.5-0.3,2-0.8c0.8-0.9,1-2,0.8-3.3C44.8,39.4,44.1,38.6,42.8,38.4z
				"/>
			<path class="st0" d="M39.4,47.1c-0.7,0-1.1-0.5-1.1-1.1v-8.8c0-0.7,0.5-1.2,1.1-1.2h2.9c1.3,0,2.4,0.4,3.5,1.1
				c0.9,0.7,1.5,1.4,1.8,2.4c0.6,1.8,0.4,3.6-0.4,5.1c-0.9,1.3-2,2.1-3.4,2.3c-0.4,0.1-0.9,0.2-1.5,0.2L39.4,47.1z M39.7,45.6h2.4
				c0.4,0,0.9-0.1,1.2-0.2c1.1-0.2,1.8-0.7,2.4-1.6c0.6-1.2,0.7-2.5,0.2-3.9c-0.2-0.6-0.6-1.1-1.2-1.6c-0.8-0.5-1.7-0.8-2.6-0.8
				l-2.4,0V45.6z M39.7,37.2l-0.8,0L39.7,37.2C39.7,37.2,39.7,37.2,39.7,37.2z M41,45.5c-0.6,0-1.1-0.4-1.1-1.1v-5.8
				c0-0.6,0.4-1.1,1.1-1.1c0.6,0,1.3,0,2,0.1c0,0,0,0,0,0c1.5,0.2,2.6,1.2,2.9,2.8c0.3,1.6,0,2.9-0.9,4c0,0,0,0.1-0.1,0.1
				c-0.7,0.6-1.6,1-2.5,1H41z M41.4,44h0.9c0.6,0,1.1-0.2,1.5-0.6c0.6-0.7,0.8-1.6,0.6-2.6c-0.2-1-0.8-1.5-1.7-1.7
				c-0.4-0.1-0.9-0.1-1.3-0.1V44z M41,39.1C41,39.1,41,39.1,41,39.1L41,39.1C41,39.1,41,39.1,41,39.1z"/>
		</g>
	</g>
</g>
</svg>
