<?xml version="1.0" encoding="utf-8"?>
<!-- Generator: Adobe Illustrator 28.0.0, SVG Export Plug-In . SVG Version: 6.00 Build 0)  -->
<svg version="1.1" id="圖層_1" xmlns="http://www.w3.org/2000/svg" xmlns:xlink="http://www.w3.org/1999/xlink" x="0px" y="0px"
	 viewBox="0 0 80 80" style="enable-background:new 0 0 80 80;" xml:space="preserve">
<style type="text/css">
	.st0{fill:#0D0A8A;}
</style>
<g>
	<g>
		<path class="st0" d="M50.5,62.4c-4.7,0-9.2-1.9-12.6-5.3c-0.5-0.5-1.4-0.7-1.9-0.7c-6.7,0-13.6,0-19.5,0H8.8
			c-3.3,0-5.3-1.5-6.1-4.7c0-0.1,0-0.2-0.1-0.2V31.9c0-0.1,0-0.2,0.1-0.2c0.1-0.3,0.1-0.5,0.2-0.8C3.6,28.6,5.8,27,8.2,27
			c1.3,0,2.6,0,4.3,0c1,0,2.1,0,3.1,0s2.1,0,3.1,0h2l0.1-1.1c0-0.4,0-0.8,0-1.1c0-0.8,0-1.5,0.1-2.2c0.4-2.6,2.7-4.6,5.4-4.6
			c0.7,0,1.5,0,2.4,0c0.6,0,1.2,0,1.7,0c0.6,0,1.2,0,1.7,0h2.1v-5.4c0-2.8,0-5.7,0-8.5c0-1.1,0.4-1.5,1.5-1.5c1.5,0,3,0,4.4,0
			c1.3,0,2.7,0,4,0c1,0,1.4,0.4,1.4,1.4c0,3,0,6,0,9.1V18h1.9c0.6,0,3,0,3.6,0c0.7,0,1.5,0,2.2,0c3.4,0,5.8,2.4,5.8,5.8
			c0,0.5,0,0.9,0,1.4V27h8.6c1.3,0,2.5,0,3.8,0c3.5,0,5.9,2.4,5.9,5.9c0,6.2,0,11.9,0,17.6c0,3.4-2.4,5.8-5.8,5.9
			c-0.4,0-0.8,0-1.2,0h-2.4c-0.8,0-2,0-3.1,0c-0.7,0-1.4,0.3-1.8,0.8C59.7,60.5,55.2,62.4,50.5,62.4z M50.5,29.2
			c-8.5,0-15.4,6.9-15.4,15.4S42,60,50.5,60l0,0C59,60.1,66,53.2,66,44.7c0-4.1-1.6-8-4.5-10.9C58.5,30.8,54.7,29.2,50.5,29.2
			L50.5,29.2z M68.3,29.2c-1.6,0-3.1,0-4.7,0c-0.2,0-0.4,0-0.5,0s-0.1,0-0.2,0l-2.5,0.2l1.8,1.8c6.2,6.2,7.6,13.1,4.3,21.3l-0.6,1.6
			H70c0.5,0,1,0,1.5,0c2.3,0,3.7-1.4,3.7-3.7c0-5.8,0-11.6,0-17.4c0-2.3-1.4-3.7-3.7-3.7C70.4,29.2,69.3,29.2,68.3,29.2z M8.6,29.2
			c-2.4,0-3.8,1.4-3.8,3.8c0,5.7,0,11.5,0,17.2c0,2.5,1.4,3.9,3.8,3.9h26.7l-0.7-1.6c-1.8-3.8-2.2-7.5-1.4-11.3s2.7-7.1,5.8-9.9
			l2.2-2H22L8.6,29.2z M28.1,20.2c-0.5,0-1.1,0-1.6,0c-1.8,0-3.2,1.2-3.4,2.8C23,23.7,23,24.4,23,25c0,0.3,0,0.5,0,0.8V27h33.8v-2.7
			c0-2.8-1.3-4.1-4-4.1H30.5c-0.4,0-0.8,0-1.2,0C28.9,20.2,28.5,20.2,28.1,20.2z M36.7,17.9h6.7v-13h-6.7V17.9z"/>
		<path class="st0" d="M50.5,63.2L50.5,63.2c-4.9,0-9.6-2-13.2-5.5c-0.3-0.3-0.9-0.5-1.3-0.5c-6.7,0-13.6,0-19.5,0H8.8
			c-3.7,0-6-1.7-6.9-5.3v-0.1l-0.1-0.1V31.8l0.1-0.3C2,31.1,2,30.9,2.1,30.6C3,28,5.4,26.2,8.2,26.2c1.3,0,2.7,0,4.3,0
			c0.9,0,1.8,0,2.8,0h0.3c1,0,2.1,0,3.1,0h1.2v-0.3c0-0.4,0-0.8,0-1.1c0-0.8,0-1.5,0.2-2.3c0.5-3,3.1-5.3,6.2-5.3c0.7,0,1.5,0,2.4,0
			c0.6,0,1.2,0,1.7,0c0.6,0,1.2,0,1.7,0h1.3v-5c0-2.7,0-5.4,0-8.1c0-1.5,0.7-2.3,2.3-2.3c2.8,0,5.6,0,8.4,0c1.4,0,2.2,0.8,2.2,2.2
			c0,3,0,6,0,9.1v4.1H51c0.7,0,1.5,0,2.2,0c3.9,0,6.6,2.7,6.6,6.6c0,0.4,0,0.9,0,1.4v1.1h7.8c1.3,0,2.5,0,3.8,0
			c3.9,0,6.7,2.8,6.7,6.7c0,6.2,0,11.9,0,17.6c0,3.9-2.7,6.6-6.6,6.7c-0.4,0-0.8,0-1.2,0h-2.4c-0.8,0-1.9,0-3,0
			c-0.4,0-1,0.2-1.3,0.5C60.1,61.2,55.5,63.2,50.5,63.2L50.5,63.2z M16.5,55.5c5.9,0,12.8,0,19.5,0c0.7,0,1.8,0.3,2.5,1
			c3.3,3.3,7.6,5,12,5l0,0c4.5,0,8.7-1.8,12-5c0.6-0.6,1.5-1,2.4-1c1.1,0,2.2,0,3.1,0h2.4c0.4,0,0.8,0,1.1,0c3,0,5-2,5-5
			c0-5.7,0-11.4,0-17.6c0-3-2.1-5.1-5.1-5.1c-1.3,0-2.5,0-3.8,0h-9.4v-2.6c0-0.5,0-0.9,0-1.4c0-3-2-5-5-5c-0.7,0-1.5,0-2.2,0h-6.3
			v-5.7c0-3.1,0-6.1,0-9.1c0-0.5,0-0.6-0.6-0.6c-2.8,0-5.6,0-8.4,0c-0.6,0-0.7,0-0.7,0.7c0,2.7,0,5.4,0,8.1v6.6h-2.9
			c-0.6,0-1.2,0-1.7,0c-0.6,0-1.2,0-1.7,0c-0.9,0-1.7,0-2.4,0c-2.3,0-4.3,1.7-4.6,4c-0.1,0.6-0.1,1.3-0.1,2c0,0.4,0,0.8,0,1.2
			l-0.1,1.8h-2.8c-1,0-2.1,0-3.1,0h-0.3c-0.9,0-1.8,0-2.8,0c-1.7,0-3,0-4.3,0c-2.1,0-3.9,1.3-4.5,3.3c-0.1,0.2-0.1,0.5-0.2,0.7v0.1
			v19.2c0,0.1,0,0.1,0.1,0.2c0.7,2.9,2.4,4.1,5.3,4.1L16.5,55.5z M50.5,60.9L50.5,60.9c-9,0-16.2-7.3-16.2-16.3s7.3-16.2,16.3-16.2
			l0,0c4.3,0,8.4,1.7,11.5,4.8s4.8,7.2,4.7,11.5C66.8,53.6,59.5,60.9,50.5,60.9z M50.6,30L50.6,30c-8.1,0-14.7,6.6-14.7,14.6
			s6.5,14.6,14.6,14.6h0.1c8.1,0,14.6-6.5,14.7-14.6c0-3.9-1.5-7.6-4.3-10.4C58.1,31.6,54.5,30,50.6,30z M70,54.9h-5.3l1.1-2.7
			c3.2-7.8,1.8-14.5-4.2-20.4l-3-3l4.3-0.3c0.1,0,0.1,0,0.2,0c0.2,0,0.4,0,0.6,0c2.6,0,5.3,0,7.9,0c2.7,0,4.5,1.8,4.5,4.5
			c0,5.8,0,11.6,0,17.4c0,2.7-1.8,4.5-4.5,4.5C71,54.9,70.5,54.9,70,54.9z M67,53.3h2.9c0.5,0,1,0,1.5,0c1.8,0,2.9-1.1,2.9-2.9
			c0-5.8,0-11.6,0-17.4c0-1.8-1.1-2.9-2.9-2.9c-2.6,0-5.3,0-7.9,0c-0.2,0-0.3,0-0.5,0c-0.1,0-0.1,0-0.2,0l-0.7,0.1l0.5,0.5
			c6.5,6.4,8,13.7,4.5,22.2L67,53.3z M36.7,54.9h-28c-2.9,0-4.6-1.7-4.6-4.7C4,44.5,4,38.7,4,33c0-2.8,1.8-4.6,4.6-4.6h13.5h21.2
			l-3.7,3.4c-3,2.7-4.8,5.8-5.6,9.5s-0.3,7.2,1.4,10.8L36.7,54.9z M8.6,29.2V30c-1.9,0-3,1-3,3c0,5.7,0,11.5,0,17.2c0,2.1,1,3,3,3
			h25.5l-0.2-0.5c-1.8-3.9-2.3-7.8-1.5-11.8s2.8-7.4,6.1-10.3l0.6-0.6H22L8.6,30V29.2z M57.7,27.8H22.3v-1.9c0-0.3,0-0.5,0-0.8
			c0-0.7,0-1.4,0.1-2.2c0.3-2,2-3.5,4.2-3.5c0.9,0,1.9,0,2.8,0c0.4,0,0.8,0,1.2,0H53c3.2,0,4.8,1.6,4.8,4.9L57.7,27.8L57.7,27.8z
			 M23.9,26.2h32.2v-1.9c0-2.3-0.9-3.2-3.2-3.2H30.5c-0.4,0-0.8,0-1.2,0c-0.9,0-1.9,0-2.8,0c-1.4,0-2.4,0.9-2.6,2.1
			c-0.1,0.6-0.1,1.3,0,1.9c0,0.3,0,0.6,0,0.8V26.2z M44.2,18.7h-8.3V4.1h8.3V18.7z M37.5,17.1h5.1V5.7h-5.1V17.1z"/>
	</g>
	<g>
		<path class="st0" d="M50.2,77.4c-0.5-0.3-0.9-0.8-0.8-1.8c0.1-1.1,0-2.3,0-3.4c0-0.6,0-1.1,0-1.7s0.3-1.3,1.1-1.3s1.1,0.7,1.1,1.3
			c0,0.6,0,1.1,0,1.7c0,1.1,0,2.3,0,3.4c0.1,1.1-0.3,1.5-0.8,1.8H50.2z"/>
		<path class="st0" d="M51.1,78.2H50l-0.2-0.1c-0.9-0.5-1.3-1.3-1.2-2.6c0.1-1.1,0-2.3,0-3.4l0,0c0-0.6,0-1.1,0-1.7
			c0-1.3,0.8-2.1,1.9-2.1c1.1,0,1.9,0.9,1.9,2.1c0,0.6,0,1.1,0,1.7c0,1.1,0,2.3,0,3.4c0.1,1.3-0.3,2.1-1.2,2.6L51.1,78.2z
			 M50.4,76.6h0.2c0.1-0.1,0.3-0.4,0.2-1c-0.1-1.2,0-2.3,0-3.4c0-0.6,0-1.1,0-1.7c0-0.5-0.2-0.5-0.3-0.5s-0.3,0-0.3,0.5s0,1.1,0,1.6
			l0,0c0,1.1,0,2.3,0,3.5C50.2,76.2,50.3,76.5,50.4,76.6z"/>
	</g>
	<g>
		<path class="st0" d="M34.7,73.2c-0.2,0-0.4-0.1-0.6-0.2c-0.6-0.3-0.7-1-0.3-1.7c1.1-2,2.1-3.6,2.9-5c0.2-0.3,0.5-0.6,0.9-0.6
			c0.1,0,0.3,0,0.4,0.1c0.4,0.1,0.7,0.5,0.8,1c0,0.1,0,0.1,0,0.2c-0.1,0.2-0.1,0.4-0.2,0.6c-0.9,1.6-1.9,3.3-2.9,5
			C35.5,72.9,35.1,73.2,34.7,73.2z"/>
		<path class="st0" d="M34.7,74c-0.3,0-0.7-0.1-1-0.3c-0.9-0.6-1.2-1.7-0.6-2.7c1.1-2,2.1-3.6,2.9-5.1c0.4-0.6,1-1,1.6-1
			c0.2,0,0.4,0,0.6,0.1c0.7,0.2,1.2,0.8,1.4,1.6v0.2l-0.1,0.3c-0.1,0.3-0.2,0.5-0.3,0.7c-0.9,1.6-1.9,3.3-2.9,5
			C36,73.6,35.4,74,34.7,74z M37.7,66.5c0,0-0.1,0-0.3,0.2c-0.9,1.4-1.8,3-2.9,5c-0.1,0.2-0.2,0.4,0,0.6c0.1,0,0.1,0,0.1,0
			c0.1,0,0.2-0.1,0.3-0.3c1-1.7,2-3.3,2.9-5c0-0.1,0.1-0.2,0.1-0.3C37.8,66.6,37.8,66.5,37.7,66.5C37.8,66.5,37.7,66.5,37.7,66.5z"
			/>
	</g>
	<g>
		<path class="st0" d="M66.3,73.2c-0.4,0-0.8-0.2-1-0.6c-1-1.6-2-3.3-2.9-5.1c-0.2-0.4-0.2-0.8,0-1.2c0.2-0.3,0.6-0.5,1-0.6
			c0.4,0,0.7,0.2,1,0.6l0.5,0.8c0.8,1.4,1.7,2.9,2.5,4.3c0.3,0.6,0.2,1.3-0.4,1.6C66.7,73.1,66.5,73.2,66.3,73.2z"/>
		<path class="st0" d="M66.3,74c-0.7,0-1.3-0.4-1.7-1c-1-1.6-2-3.4-3-5.1c-0.3-0.6-0.4-1.4,0-2c0.3-0.6,0.9-0.9,1.6-0.9l0,0l0,0
			c0.7,0.1,1.2,0.4,1.6,1l0.5,0.8c0.8,1.4,1.7,2.9,2.5,4.4c0.6,1,0.3,2.1-0.7,2.7C67,73.9,66.7,74,66.3,74z M63.3,66.5
			c-0.1,0-0.2,0.1-0.3,0.2s0,0.3,0,0.4c1,1.7,2,3.5,2.9,5.1c0.1,0.2,0.2,0.2,0.3,0.2c0,0,0.1,0,0.2,0c0.2-0.1,0.2-0.3,0.1-0.5
			c-0.8-1.4-1.7-2.9-2.5-4.3l-0.5-0.8C63.5,66.6,63.5,66.5,63.3,66.5z"/>
	</g>
	<g>
		<path class="st0" d="M19,38.3c-2,0-3.9,0-5.9,0c-0.4,0-0.8-0.1-1-0.4c-0.2-0.2-0.3-0.5-0.3-0.8c0-0.8,0.7-1.1,1.4-1.1
			c0.8,0,1.5,0,2.3,0H19h3.4c0.8,0,1.5,0,2.3,0c0.7,0,1.3,0.3,1.4,1.1c0,0.3-0.1,0.6-0.3,0.8c-0.2,0.2-0.6,0.4-1,0.4
			C22.8,38.3,20.9,38.3,19,38.3z"/>
		<path class="st0" d="M19,39.1c-2,0-3.9,0-5.9,0c-0.6,0-1.2-0.2-1.6-0.6c-0.3-0.3-0.5-0.8-0.5-1.3c0-1.1,0.9-1.9,2.2-1.9
			c0.8,0,1.6,0,2.3,0H19h3.4c0.8,0,1.5,0,2.3,0c1.3,0,2.1,0.8,2.2,1.9c0,0.5-0.2,1-0.5,1.3c-0.4,0.4-1,0.6-1.6,0.6
			C22.8,39.1,20.9,39.1,19,39.1z M15.5,36.8c-0.8,0-1.5,0-2.3,0c-0.6,0-0.6,0.2-0.6,0.3s0,0.2,0.1,0.2c0.1,0.1,0.2,0.1,0.5,0.1
			c3.9,0,7.8,0,11.6,0c0.2,0,0.4-0.1,0.5-0.1c0,0,0.1-0.1,0.1-0.2c0-0.1,0-0.3-0.6-0.3c-0.8,0-1.5,0-2.3,0h-3.4H15.5z"/>
	</g>
	<g>
		<path class="st0" d="M19,47.3c-1.9,0-3.9,0-5.8,0c-0.5,0-0.9-0.1-1.1-0.4c-0.2-0.2-0.3-0.4-0.3-0.7c0-1,1.1-1.1,1.4-1.1
			c0.8,0,1.5,0,2.3,0H19h3.5c0.8,0,1.5,0,2.3,0c0.7,0,1.4,0.3,1.4,1.1c0,0.3-0.1,0.6-0.3,0.7c-0.2,0.2-0.6,0.4-1.1,0.4
			C22.8,47.3,20.9,47.3,19,47.3z"/>
		<path class="st0" d="M19,48.1c-1.9,0-3.9,0-5.8,0c-0.7,0-1.3-0.2-1.7-0.6c-0.3-0.3-0.5-0.8-0.5-1.3c0-1.1,0.9-1.9,2.2-1.9
			c0.8,0,1.5,0,2.3,0H19h3.5c0.8,0,1.5,0,2.3,0c1.3,0,2.1,0.8,2.2,1.9c0,0.5-0.2,1-0.5,1.3c-0.4,0.4-1,0.6-1.7,0.6
			C22.8,48.1,20.9,48.1,19,48.1z M15.5,45.9c-0.8,0-1.5,0-2.3,0c-0.4,0-0.6,0.1-0.6,0.3c0,0.1,0,0.2,0,0.2c0.1,0.1,0.2,0.1,0.5,0.1
			c3.8,0,7.7,0,11.5,0c0.3,0,0.5-0.1,0.5-0.1s0,0,0-0.2s-0.2-0.3-0.6-0.3c-0.8,0-1.5,0-2.3,0h-3.5H15.5z"/>
	</g>
	<g>
		<path class="st0" d="M50.4,53.3c-4.7,0-8.6-3.9-8.6-8.7c0-4.7,3.9-8.6,8.7-8.6h0.1c4.7,0,8.6,3.9,8.6,8.7
			C59.2,49.5,55.3,53.3,50.4,53.3L50.4,53.3z M50.5,38.3c-1.7,0-3.3,0.7-4.5,1.9s-1.9,2.8-1.9,4.5c0,3.5,2.9,6.4,6.4,6.4l0,0
			c3.5,0,6.4-2.9,6.4-6.4C56.9,41.1,54.1,38.3,50.5,38.3L50.5,38.3L50.5,38.3z"/>
		<path class="st0" d="M50.5,54.1L50.5,54.1c-5.2,0-9.4-4.3-9.4-9.5s4.3-9.4,9.5-9.4h0.1c5.2,0,9.4,4.3,9.4,9.5
			C60,49.9,55.7,54.1,50.5,54.1z M50.5,52.5L50.5,52.5c4.4,0,7.9-3.5,7.9-7.8s-3.5-7.9-7.8-7.9h-0.1c-4.3,0-7.9,3.5-7.9,7.8
			C42.7,48.9,46.2,52.5,50.5,52.5z M50.5,51.9c-4,0-7.2-3.2-7.2-7.2c0-1.9,0.7-3.7,2.1-5.1c1.4-1.4,3.2-2.1,5.1-2.1l0,0
			c4,0,7.2,3.2,7.2,7.2C57.8,48.6,54.5,51.9,50.5,51.9L50.5,51.9z M50.5,38.3v0.8c-1.5,0-2.9,0.6-3.9,1.7c-1.1,1.1-1.6,2.5-1.6,4
			c0,3.1,2.5,5.6,5.6,5.6l0,0c3.1,0,5.6-2.5,5.6-5.6s-2.5-5.6-5.6-5.6L50.5,38.3z"/>
	</g>
</g>
</svg>
