<?xml version="1.0" encoding="utf-8"?>
<!-- Generator: Adobe Illustrator 28.0.0, SVG Export Plug-In . SVG Version: 6.00 Build 0)  -->
<svg version="1.1" id="圖層_1" xmlns="http://www.w3.org/2000/svg" xmlns:xlink="http://www.w3.org/1999/xlink" x="0px" y="0px"
	 viewBox="0 0 80 80" style="enable-background:new 0 0 80 80;" xml:space="preserve">
<style type="text/css">
	.st0{fill:#0D0A8A;}
</style>
<g>
	<g>
		<path class="st0" d="M13.3,39.9c0-11.5,0-22.9,0-34.4c0-3,1.5-4.5,4.5-4.5c14.9,0,29.7,0,44.6,0c2.9,0,4.4,1.5,4.4,4.4
			c0,23,0,46.1,0,69.1c0,2.9-1.5,4.4-4.4,4.4c-14.9,0-29.8,0-44.7,0c-2.9,0-4.4-1.5-4.4-4.4C13.3,63,13.3,51.5,13.3,39.9z M15.8,40
			c0,11.5,0,23,0,34.5c0,1.5,0.3,1.9,1.8,1.9c14.8,0,29.7,0,44.5,0c1.6,0,1.9-0.3,1.9-1.9c0-22.9,0-45.9,0-68.8
			c0-1.6-0.3-1.9-1.9-1.9c-14.8,0-29.7,0-44.5,0c-1.6,0-1.9,0.3-1.9,1.9C15.8,17,15.8,28.5,15.8,40z"/>
		<path class="st0" d="M40,79.6c-7.4,0-14.9,0-22.3,0c-3.3,0-5.1-1.8-5.1-5c0-8.7,0-17.3,0-26v-43c0-3.4,1.7-5.1,5.1-5.1h44.6
			c3.3,0,5.1,1.8,5.1,5c0,23,0,46.1,0,69.1c0,3.2-1.8,5-5.1,5C54.9,79.6,47.4,79.6,40,79.6z M17.7,1.7c-2.7,0-3.8,1.1-3.8,3.8v43
			c0,8.7,0,17.3,0,26c0,2.5,1.2,3.7,3.7,3.7c14.9,0,29.8,0,44.7,0c2.6,0,3.7-1.2,3.7-3.7c0-23,0-46.1,0-69.1c0-2.5-1.2-3.7-3.7-3.7
			L17.7,1.7z M62.2,77H17.7c-1.9,0-2.5-0.6-2.5-2.5V31.4V5.6c0-1.9,0.6-2.5,2.6-2.5h44.5c1.9,0,2.5,0.6,2.5,2.6v68.8
			C64.8,76.4,64.2,77,62.2,77z M17.8,4.3c-1.2,0-1.2,0-1.2,1.2v43.1v25.8c0,1.2,0,1.2,1.2,1.2h44.5c1.3,0,1.3,0,1.3-1.3V5.6
			c0-1.2,0-1.3-1.2-1.3H17.8z"/>
	</g>
	<g>
		<path class="st0" d="M40.1,40.9c9,0,16.4,7.5,16.3,16.5c-0.1,9.1-7.4,16.4-16.3,16.4c-9.3-0.1-16.5-7.4-16.5-16.6
			C23.6,48.1,31.1,40.8,40.1,40.9z M53.8,57.3c0-7.7-6.2-13.9-13.8-13.9c-7.7,0-13.8,6.2-13.9,13.9c0,7.6,6.2,13.8,13.8,13.8
			C47.6,71.1,53.8,64.9,53.8,57.3z"/>
		<path class="st0" d="M40.2,74.4C40.1,74.4,40.1,74.4,40.2,74.4c-9.7-0.1-17.3-7.7-17.2-17.3c0-4.5,1.8-8.7,5.1-11.9
			c3.2-3.2,7.5-4.9,12-4.9h0.1c4.5,0,8.8,1.8,12,5.1c3.2,3.2,5,7.5,4.9,12.1C57,66.8,49.4,74.4,40.2,74.4z M40,41.5
			c-4.2,0-8.1,1.6-11.1,4.6s-4.7,6.9-4.7,11c0,8.9,6.9,15.9,15.8,16h0.1c8.5,0,15.5-7,15.6-15.7c0-4.2-1.6-8.1-4.5-11.1
			C48.2,43.2,44.3,41.5,40,41.5L40,41.5C40.1,41.5,40,41.5,40,41.5z M40.1,71.8C40,71.8,40,71.8,40.1,71.8c-3.9,0-7.5-1.5-10.3-4.2
			c-2.7-2.7-4.2-6.4-4.2-10.2c0-3.9,1.5-7.5,4.2-10.3c2.7-2.7,6.4-4.2,10.3-4.2l0,0c3.8,0,7.4,1.5,10.1,4.2
			c2.8,2.8,4.3,6.4,4.3,10.3c0,3.8-1.5,7.5-4.3,10.2C47.5,70.3,43.9,71.8,40.1,71.8z M40.1,44.1L40.1,44.1c-3.6,0-6.9,1.4-9.4,3.9
			s-3.8,5.8-3.9,9.4c0,3.5,1.4,6.8,3.9,9.3s5.8,3.9,9.3,3.9l0,0c3.5,0,6.7-1.4,9.2-3.9s3.9-5.8,3.9-9.3c0-3.6-1.4-6.9-3.9-9.4
			C46.8,45.5,43.5,44.1,40.1,44.1z"/>
	</g>
	<g>
		<path class="st0" d="M40.4,34.1c-6.7,0.4-12.6-5.2-13-12c-0.3-6.8,5-12.8,11.7-13.2c7.1-0.4,13.1,4.8,13.5,12
			C53,27.8,47.6,33.7,40.4,34.1z M40.1,11.4c-5.5,0-10.1,4.5-10.1,9.9c0,5.5,4.5,10.1,10,10.1s10-4.5,10.1-9.9
			C50.1,16,45.6,11.5,40.1,11.4z"/>
		<path class="st0" d="M39.7,34.8c-3.1,0-6.1-1.2-8.5-3.4c-2.7-2.4-4.3-5.8-4.5-9.3C26.4,15,32,8.6,39.1,8.2
			c7.5-0.4,13.8,5.1,14.2,12.6c0.2,3.5-1,6.8-3.3,9.4c-2.4,2.7-5.8,4.3-9.6,4.6l0,0C40.2,34.8,40,34.8,39.7,34.8z M39.9,9.5
			c-0.3,0-0.5,0-0.8,0C32.8,9.9,27.7,15.6,28,22c0.2,3.2,1.6,6.2,4.1,8.4c2.3,2.1,5.3,3.2,8.3,3l0,0c3.4-0.2,6.5-1.7,8.7-4.1
			c2.1-2.3,3.1-5.3,2.9-8.4C51.6,14.4,46.3,9.5,39.9,9.5z M40,32.2L40,32.2c-6,0-10.7-4.9-10.7-10.8c0-2.8,1.1-5.5,3.2-7.5
			c2-2,4.7-3.1,7.6-3.1c2.9,0,5.5,1.1,7.6,3.2c2,2,3.1,4.7,3.1,7.6C50.6,27.4,45.9,32.2,40,32.2z M40,12.1c-2.5,0-4.8,1-6.6,2.7
			c-1.8,1.8-2.8,4.1-2.8,6.6c0,5.2,4.2,9.4,9.3,9.5c0,0,0,0,0.1,0c5.1,0,9.3-4.2,9.4-9.3c0-2.5-0.9-4.9-2.7-6.7
			C44.9,13.1,42.6,12.1,40,12.1L40,12.1z"/>
	</g>
	<g>
		<path class="st0" d="M50.8,35.9c0-3,2.4-5.4,5.3-5.4c3,0,5.4,2.4,5.4,5.3s-2.4,5.4-5.4,5.4C53.2,41.3,50.8,38.9,50.8,35.9z
			 M53.4,35.9c0,1.5,1.2,2.8,2.8,2.8c1.5,0,2.7-1.3,2.7-2.8s-1.3-2.8-2.8-2.7C54.6,33.2,53.4,34.4,53.4,35.9z"/>
		<path class="st0" d="M56.2,42L56.2,42c-3.3,0-6-2.7-6-6l0,0c0-1.6,0.6-3.1,1.8-4.3c1.1-1.1,2.6-1.7,4.2-1.7l0,0c3.3,0,6,2.7,6,6
			c0,1.6-0.6,3.1-1.8,4.2C59.3,41.3,57.8,42,56.2,42z M56.1,31.2c-1.2,0-2.4,0.5-3.3,1.4c-0.9,0.9-1.4,2.1-1.4,3.3l0,0
			c0,2.6,2.1,4.7,4.7,4.7c1.3,0,2.4-0.5,3.3-1.4c0.9-0.9,1.4-2.1,1.4-3.3C60.9,33.4,58.7,31.2,56.1,31.2
			C56.2,31.2,56.1,31.2,56.1,31.2z M56.2,39.4c-0.9,0-1.8-0.3-2.4-1c-0.7-0.6-1-1.5-1-2.4l0,0c0-1.9,1.5-3.4,3.3-3.4c0,0,0,0,0.1,0
			c0.9,0,1.8,0.3,2.4,1c0.7,0.6,1,1.5,1,2.4C59.6,37.8,58.1,39.3,56.2,39.4L56.2,39.4z M56.2,33.8C56.1,33.8,56.1,33.8,56.2,33.8
			c-1.2,0-2.1,0.9-2.1,2.1l0,0c0,0.6,0.2,1.1,0.6,1.5c0.4,0.4,0.9,0.6,1.5,0.6c1.1,0,2.1-1,2.1-2.1c0-0.6-0.2-1.1-0.6-1.5
			C57.2,34.1,56.7,33.8,56.2,33.8z"/>
	</g>
	<g>
		<path class="st0" d="M40,47.2c5.5,0,10,4.5,10.1,10c0,5.6-4.4,10.1-10,10.1c-5.5,0.1-10.1-4.5-10.1-10
			C29.9,51.8,34.4,47.3,40,47.2z M32.5,57.3c0,4.1,3.3,7.4,7.4,7.5c4.2,0,7.5-3.4,7.5-7.5s-3.4-7.4-7.5-7.4
			C35.9,49.8,32.5,53.2,32.5,57.3z"/>
		<path class="st0" d="M40,68c-2.8,0-5.5-1.1-7.5-3.1c-2.1-2-3.2-4.7-3.2-7.5c0-2.9,1.1-5.6,3.1-7.6s4.7-3.2,7.6-3.2l0,0
			c0,0,0,0,0.1,0c2.8,0,5.5,1.1,7.5,3.1s3.2,4.7,3.2,7.5c0,2.9-1.1,5.6-3.1,7.6c-2,2-4.7,3.2-7.5,3.2C40,68,40,68,40,68z M40,47.9
			L40,47.9c-2.5,0-4.9,1-6.7,2.8s-2.7,4.2-2.7,6.7s1,4.8,2.8,6.6c1.8,1.8,4.1,2.7,6.6,2.7h0.1c2.5,0,4.9-1,6.6-2.8
			c1.8-1.8,2.7-4.2,2.7-6.7s-1-4.8-2.8-6.6C44.8,48.9,42.5,47.9,40,47.9z M40,65.4L40,65.4c-4.5,0-8.1-3.6-8.1-8.1l0,0
			c0-4.5,3.6-8.1,8.1-8.1l0,0c4.5,0,8.1,3.6,8.1,8.1c0,2.2-0.8,4.3-2.4,5.8C44.2,64.6,42.1,65.4,40,65.4z M40,50.5L40,50.5
			c-3.8,0-6.8,3.1-6.8,6.8l0,0c0,3.7,3,6.8,6.8,6.8l0,0c1.8,0,3.5-0.7,4.8-2s2-3,2-4.9C46.8,53.5,43.8,50.5,40,50.5z"/>
	</g>
	<g>
		<path class="st0" d="M40,15.5c3.3,0,6,2.7,6,6s-2.7,5.9-5.9,6c-3.3,0-6.1-2.7-6-6C34,18.2,36.7,15.5,40,15.5z M40,18.1
			c-1.8,0-3.4,1.5-3.4,3.3c0,1.9,1.5,3.4,3.3,3.5c1.8,0,3.4-1.4,3.4-3.3C43.4,19.7,41.9,18.1,40,18.1z"/>
		<path class="st0" d="M40,28.1c-1.7,0-3.4-0.7-4.7-1.9c-1.3-1.3-2-3-2-4.7c0-3.6,3-6.6,6.6-6.6v0.7v-0.7c1.8,0,3.4,0.7,4.7,1.9
			c1.3,1.3,1.9,2.9,1.9,4.7C46.6,25.1,43.7,28.1,40,28.1L40,28.1z M40,16.2L40,16.2c-2.9,0-5.3,2.4-5.3,5.3c0,1.4,0.6,2.8,1.6,3.8
			s2.4,1.6,3.8,1.6c2.9,0,5.3-2.4,5.3-5.3c0-1.4-0.6-2.7-1.6-3.7C42.7,16.7,41.4,16.2,40,16.2z M40,25.5L40,25.5
			c-1.1,0-2.2-0.5-2.9-1.2c-0.8-0.8-1.2-1.8-1.1-2.9c0.1-2.2,1.9-4,4.1-3.9c1.1,0,2.1,0.5,2.9,1.3c0.7,0.8,1.1,1.8,1.1,2.9
			C44,23.7,42.2,25.5,40,25.5z M40,18.8c-1.4,0-2.7,1.2-2.7,2.6c0,0.7,0.3,1.4,0.8,1.9s1.2,0.8,1.9,0.8l0,0c1.5,0,2.7-1.2,2.7-2.7
			c0-0.7-0.2-1.4-0.7-1.9C41.5,19.1,40.8,18.8,40,18.8L40,18.8L40,18.8z"/>
	</g>
</g>
</svg>
