<?xml version="1.0" encoding="utf-8"?>
<!-- Generator: Adobe Illustrator 28.0.0, SVG Export Plug-In . SVG Version: 6.00 Build 0)  -->
<svg version="1.1" id="圖層_1" xmlns="http://www.w3.org/2000/svg" xmlns:xlink="http://www.w3.org/1999/xlink" x="0px" y="0px"
	 viewBox="0 0 34.4 34.5" style="enable-background:new 0 0 34.4 34.5;" xml:space="preserve">
<style type="text/css">
	.st0{fill:#FFFFFF;}
</style>
<path class="st0" d="M16.1,16.1c-0.3,0.3-0.6,0.4-0.9,0.4c-0.3,0-0.7-0.1-0.9-0.4L2.6,4.5v10.8c0,0.7-0.6,1.3-1.3,1.3
	c-0.7,0-1.3-0.6-1.3-1.3V1.5C0,1.1,0.1,0.7,0.4,0.4c0,0,0,0,0,0C0.6,0.1,1,0,1.3,0h13.9c0.7,0,1.3,0.6,1.3,1.3
	c0,0.7-0.6,1.3-1.3,1.3H4.4l11.7,11.7C16.6,14.8,16.6,15.6,16.1,16.1z"/>
<path class="st0" d="M34.1,34.1L34.1,34.1c-0.2,0.2-0.6,0.4-0.9,0.4H19.3c-0.7,0-1.3-0.6-1.3-1.3c0-0.7,0.6-1.3,1.3-1.3H30
	L18.3,20.2c-0.5-0.5-0.5-1.3,0-1.8c0.5-0.5,1.3-0.5,1.8,0L31.8,30V19.3c0-0.7,0.6-1.3,1.3-1.3c0.7,0,1.3,0.6,1.3,1.3V33
	C34.5,33.4,34.4,33.8,34.1,34.1"/>
</svg>
