<?xml version="1.0" encoding="utf-8"?>
<!-- Generator: Adobe Illustrator 28.0.0, SVG Export Plug-In . SVG Version: 6.00 Build 0)  -->
<svg version="1.1" id="圖層_1" xmlns="http://www.w3.org/2000/svg" xmlns:xlink="http://www.w3.org/1999/xlink" x="0px" y="0px"
	 viewBox="0 0 15.8 15.8" style="enable-background:new 0 0 15.8 15.8;" xml:space="preserve">
<style type="text/css">
	.st0{fill:#3E3A39;}
</style>
<g>
	<path class="st0" d="M7.9,2c3.3,0,5.9,2.6,5.9,5.9c0,3.3-2.6,5.9-5.9,5.9C4.6,13.8,2,11.2,2,7.9C2,4.6,4.6,2,7.9,2L7.9,2z M7.9,0
		C3.5,0,0,3.5,0,7.9s3.5,7.9,7.9,7.9c4.4,0,7.9-3.5,7.9-7.9S12.3,0,7.9,0L7.9,0z"/>
	<path class="st0" d="M11.5,6.9H9C8.7,6.6,8.3,6.4,7.9,6.4c-0.1,0-0.3,0-0.4,0.1L5.3,3.6C5.1,3.4,4.8,3.3,4.6,3.5
		C4.4,3.7,4.3,4,4.5,4.2l2.2,2.9C6.5,7.3,6.4,7.6,6.4,7.9c0,0.8,0.7,1.5,1.5,1.5c0.4,0,0.8-0.2,1.1-0.5h2.5c0.5,0,1-0.5,1-1
		C12.5,7.3,12,6.9,11.5,6.9z"/>
</g>
</svg>
