<?xml version="1.0" encoding="utf-8"?>
<!-- Generator: Adobe Illustrator 28.0.0, SVG Export Plug-In . SVG Version: 6.00 Build 0)  -->
<svg version="1.1" id="圖層_1" xmlns="http://www.w3.org/2000/svg" xmlns:xlink="http://www.w3.org/1999/xlink" x="0px" y="0px"
	 viewBox="0 0 80 80" style="enable-background:new 0 0 80 80;" xml:space="preserve">
<style type="text/css">
	.st0{stroke:#000000;stroke-width:0.5963;stroke-miterlimit:10;}
	
		.st1{fill:url(#SVGID_1_);stroke:url(#SVGID_00000101093393506385130180000005708764157252373910_);stroke-width:1.5902;stroke-miterlimit:10;}
</style>
<path class="st0" d="M40.4,47c-10.3,0-19.9,0-29.1,0c-4.1,0-7.6-3.5-7.7-7.7c0-10.4,0-19.8,0-28.8c0-2.4,1-4.4,3.1-6
	c1.1-0.9,2.4-1.3,3.7-1.6h60.4c0.1,0,0.3,0.1,0.4,0.1c2.4,0.5,4.2,1.8,5.3,3.7c0.3,0.6,0.6,1.3,0.8,2c0.1,0.3,0.2,0.6,0.3,0.9v30.6
	c0,0.1-0.1,0.3-0.1,0.4c-0.8,3.7-3.9,6.3-7.6,6.3C60,47,50.2,47,40.4,47z M69.3,43.3c2.9,0,4.6-1.7,4.6-4.5c0-9.2,0-18.4,0-27.7
	c0-2.9-1.7-4.6-4.6-4.6H11.9c-2.9,0-4.6,1.7-4.6,4.5c0,9.2,0,18.4,0,27.7c0,2.9,1.7,4.6,4.6,4.6l28.6,0L69.3,43.3z"/>
<path class="st0" d="M74.9,76.8c-14.4,0-28.9,0-41.1,0l-28,0c-1.7,0-2-0.9-2.1-1.2c-0.2-0.6-0.1-1.2,0.2-1.7
	c0.3-0.5,0.9-0.8,1.6-0.8c1.2,0,2.3,0,3.5,0c0.6,0,1.1,0,1.7,0l0,0c0.3,0,0.6-0.1,0.6-0.2c0,0,0,0,0.1,0l0.6-0.3v-0.7
	c0-0.3,0-0.6,0-0.9c0-0.6,0-1.3,0-1.9c0-0.5,0-1.1,0-1.6c0-1.3,0-2.5,0.2-3.6c0.8-4.2,3.4-6.9,7.4-8.2c1.1-0.3,2.2-0.5,3.3-0.5
	c2.7,0,5.2,1.1,7.5,3.3c0,0,0.1,0.1,0.1,0.1c0.1,0.1,0.1,0.1,0.2,0.2c0.1,0.1,0.3,0.2,0.4,0.2l0,0l0.8,0.4l0.6-0.6
	c2.3-2.4,5-3.6,8.1-3.6h0c3.1,0,5.8,1.2,8,3.6l0.7,0.8l0.8-0.7c0.3-0.2,0.5-0.4,0.8-0.7c0.5-0.4,1-0.9,1.5-1.2
	c1.8-1.2,3.8-1.8,6-1.8c4.5,0,8.5,2.7,10.1,7c0.4,1.1,0,2.1-1,2.5c-0.2,0.1-0.5,0.1-0.7,0.1c-0.7,0-1.4-0.5-1.7-1.3
	c-1.2-2.8-3.8-4.7-6.7-4.7c-1.5,0-3,0.5-4.3,1.5c-1.7,1.3-2.6,3-2.7,5c-0.1,1.5-0.1,3,0,4.5c0,0.7,0,1.3,0,2V73h2c2,0,3.9,0,5.9,0
	c2,0,3.9,0,5.9,0c3.9,0,7,0,9.9,0l0,0c1.4,0,2.1,0.4,2.5,1.5v0.8C77.2,76.2,76.6,76.8,74.9,76.8L74.9,76.8z M40.6,58.9
	c-3.9,0-7,3.1-7.1,7.1c0,1.4,0,2.8,0,4.1l0,1.2c0,0.2,0,0.4,0,0.5c0,0.1,0,0.1,0,0.2l0.1,1h14v-1.1c0-0.6,0-1.2,0-1.9
	c0-1.4,0-2.7,0-4.1C47.6,62,44.5,58.9,40.6,58.9L40.6,58.9z M22.7,58.9c-3.4,0-6.4,2.4-7,5.8c-0.1,0.8-0.1,1.6-0.1,2.3
	c0,0.2,0,0.3,0,0.5c0,1,0,2.1,0,3.1c0,0.4,0,0.9,0,1.3V73h14.1v-1.1c0-0.7,0-1.4,0-2c0-1.5,0-3,0-4.5c-0.2-3.5-3.1-6.3-6.6-6.5
	C23,58.9,22.9,58.9,22.7,58.9z"/>
<g>
	<linearGradient id="SVGID_1_" gradientUnits="userSpaceOnUse" x1="30.1695" y1="24.6746" x2="52.6526" y2="24.6746">
		<stop  offset="0" style="stop-color:#231C1C"/>
		<stop  offset="1" style="stop-color:#040000"/>
	</linearGradient>
	
		<linearGradient id="SVGID_00000116206235686714867230000000493943655955786418_" gradientUnits="userSpaceOnUse" x1="29.3744" y1="24.6746" x2="53.4477" y2="24.6746">
		<stop  offset="0" style="stop-color:#231C1C"/>
		<stop  offset="1" style="stop-color:#040000"/>
	</linearGradient>
	
		<path style="fill:url(#SVGID_1_);stroke:url(#SVGID_00000116206235686714867230000000493943655955786418_);stroke-width:1.5902;stroke-miterlimit:10;" d="
		M52.5,32.4c-0.4-1.1-1-2.2-1.9-3.1c-1.2-1.2-2.7-2.2-4.6-2.8c-0.1,0-0.2-0.1-0.3-0.1c0.2-0.1,0.4-0.3,0.5-0.4c2.6-2.3,3.3-6,1.7-9
		c-1.3-2.4-3.8-3.9-6.5-3.9c-1.6,0-3.1,0.5-4.4,1.5c-2.3,1.8-3.3,4.1-2.8,7c0.3,2,1.3,3.6,2.9,4.8c-1.8,0.5-3.3,1.4-4.6,2.5
		c-1,0.9-1.7,2-2.2,3.3c-0.5,1.6,0.2,3.2,1.7,3.8c0.4,0.1,0.7,0.2,1.2,0.2l16.4,0l0.1,0c0.1,0,0.1,0,0.2,0c1.4-0.1,2.5-1.1,2.7-2.5
		C52.7,33.3,52.6,32.9,52.5,32.4z M41.4,14.8v0.3c1.4,0,2.8,0.6,3.8,1.6c1,1,1.6,2.4,1.6,3.8c0,2.9-2.4,5.3-5.4,5.3
		c-3.3,0-5.4-2.8-5.4-5.3c0-3,2.4-5.4,5.4-5.4L41.4,14.8L41.4,14.8z M37.7,28.3c3-0.9,6-0.7,8.8,0.5c1.5,0.6,2.7,1.6,3.5,2.9
		c0.2,0.3,0.4,0.7,0.6,1.1c0.2,0.4,0.1,0.7-0.1,1c-0.2,0.3-0.5,0.5-0.9,0.5c-1.2,0-2.3,0-3.5,0l-4.7,0l-2,0l-6,0c-0.1,0-0.3,0-0.5,0
		c-0.3-0.1-0.5-0.2-0.6-0.5c-0.1-0.2-0.2-0.5-0.1-0.8c0.3-1,0.9-1.9,1.7-2.6C34.9,29.5,36.1,28.8,37.7,28.3z"/>
</g>
</svg>
