<?xml version="1.0" encoding="utf-8"?>
<!-- Generator: Adobe Illustrator 28.0.0, SVG Export Plug-In . SVG Version: 6.00 Build 0)  -->
<svg version="1.1" id="圖層_1" xmlns="http://www.w3.org/2000/svg" xmlns:xlink="http://www.w3.org/1999/xlink" x="0px" y="0px"
	 viewBox="0 0 80 80" style="enable-background:new 0 0 80 80;" xml:space="preserve">
<style type="text/css">
	.st0{stroke:#000000;stroke-width:0.456;stroke-miterlimit:10;}
</style>
<path class="st0" d="M48.8,53.6c-7.9,0-15.2,0-22.3,0c-3.3,0-6.1-2.8-6.1-6.1l0-1.3c0-6,0-6,0-12.9c0-1.9,0.8-3.5,2.4-4.8
	c0.9-0.7,1.9-1,2.9-1.3h46.2c0,0,0,0,0,0c0.1,0,0.2,0.1,0.3,0.1c1.9,0.4,3.3,1.4,4.2,3c0.3,0.5,0.4,1,0.6,1.6
	c0.1,0.2,0.2,0.5,0.2,0.7v15.6c0,0,0,0,0,0c0,0.1-0.1,0.2-0.1,0.3c-0.6,3-3.1,5-6,5C63.8,53.6,56.3,53.6,48.8,53.6z M70.9,50.4
	c2.1,0,3.3-1.2,3.3-3.3V47c0-6.3,0-6.3,0-11.4l0-1.8c0-2.1-1.2-3.3-3.3-3.3H27c-2.1,0-3.3,1.2-3.3,3.3c0,6.4,0,13.3,0,13.3
	c0,2.1,1.2,3.3,3.3,3.3l21.9,0L70.9,50.4z"/>
<path class="st0" d="M71.5,23.2c-9.5,0-19,0-27,0l-18.3,0c-1.2,0-1.4-0.6-1.5-0.9c-0.1-0.4-0.1-0.8,0.1-1.2c0.2-0.4,0.6-0.6,1.1-0.6
	c0.8,0,1.5,0,2.3,0c0.4,0,0.7,0,1.1,0c0.2,0,0.3-0.1,0.4-0.1c0,0,0,0,0,0l0.3-0.2v-0.4c0-0.2,0-0.4,0-0.6c0-0.4,0-0.8,0-1.3
	c0-0.3,0-0.7,0-1c0-0.8,0-1.6,0.2-2.4c0.6-2.8,2.2-4.6,5-5.4c0.7-0.2,1.5-0.3,2.2-0.3c1.8,0,3.5,0.7,5,2.2c0,0,0.1,0.1,0.1,0.1
	c0,0,0.1,0.1,0.1,0.1c0.1,0.1,0.2,0.1,0.2,0.1l0,0l0.4,0.2l0.3-0.4c1.5-1.6,3.3-2.4,5.4-2.4h0c2.1,0,3.9,0.8,5.3,2.4l0.4,0.4
	l0.5-0.4c0.2-0.1,0.3-0.3,0.5-0.4c0.3-0.3,0.7-0.6,1-0.8c1.2-0.8,2.6-1.2,4-1.2c3,0,5.6,1.8,6.7,4.6c0.3,0.8,0,1.5-0.7,1.8
	c-0.2,0.1-0.3,0.1-0.5,0.1c-0.5,0-1-0.3-1.2-0.9c-0.8-1.9-2.4-3-4.3-3c-1,0-1.9,0.3-2.8,1c-1.1,0.8-1.7,1.9-1.7,3.2c0,1,0,2,0,3
	c0,0.4,0,0.9,0,1.3v0.6h1.2c1.3,0,2.6,0,3.8,0c1.3,0,2.6,0,3.8,0c2.5,0,4.6,0,6.5,0l0,0c1,0,1.5,0.3,1.8,1v0.6
	C73,22.9,72.5,23.2,71.5,23.2L71.5,23.2z M49,11.5c-2.5,0-4.5,2-4.6,4.6c0,0.9,0,1.8,0,2.7l0,0.8c0,0.1,0,0.2,0,0.3c0,0,0,0.1,0,0.1
	l0.1,0.6h9v-0.6c0-0.4,0-0.8,0-1.2c0-0.9,0-1.8,0-2.7C53.5,13.5,51.5,11.5,49,11.5L49,11.5z M37.3,11.5c-2.2,0-4.1,1.6-4.5,3.7
	c-0.1,0.5-0.1,1-0.1,1.5c0,0.1,0,0.2,0,0.3c0,0.7,0,1.4,0,2c0,0.3,0,0.6,0,0.9v0.6h9.1v-0.6c0-0.4,0-0.9,0-1.3c0-1,0-2,0-3
	c-0.1-2.2-2-4-4.3-4.2C37.4,11.5,37.3,11.5,37.3,11.5z"/>
<path class="st0" d="M14.5,51.2c-0.7,0-1.3-0.6-1.3-1.3c0-0.5,0-0.7,0.1-0.9c0.1-0.2,0.1-0.5,0.1-1.1l0-0.6l-6.9,0
	c-0.5,0-1.3-0.4-2.4-1.3c-0.1-0.1-0.2-0.1-0.2-0.2c-1.6-1.5-2.4-3.3-2.4-5.3c0-2.1,0.8-3.9,2.4-5.3c1.4-1.2,3.2-1.8,5.1-1.8
	c0.7,0,1.4,0,2.1,0c0.6,0,1.1,0,1.5,0h0.7l0-0.7c0-0.2,0-0.6,0-1c0-0.1,0-0.2,0-0.3l0,0v0h0c0.1-0.7,0.4-1.2,1-1.4l0.6,0
	c0.7,0.3,1,0.8,1,1.8c0,5.5,0,7.4,0,8.3c0,0.8,0,0.8,0,2.1c0,1.1,0,3.2,0,7.7c0,1.2-0.6,1.4-0.9,1.5C14.8,51.1,14.6,51.2,14.5,51.2z
	 M10.1,35.8c-0.5,0-1,0-1.5,0c-2.6,0-4.6,2-4.6,4.5c0,2.5,2,4.5,4.6,4.6c0.5,0,0.9,0,1.4,0c0.4,0,0.9,0,1.3,0l0.8,0
	c0.1,0,0.2,0,0.3,0c0,0,0.1,0,0.1,0l0.6-0.1v-9h-0.6c-0.4,0-0.8,0-1.2,0C10.9,35.8,10.5,35.8,10.1,35.8z"/>
<path class="st0" d="M61.2,72.1c-1.8,0-3.5-0.7-5-2.2c0,0-0.1-0.1-0.1-0.1c0,0-0.1-0.1-0.1-0.1c-0.1-0.1-0.2-0.1-0.2-0.1l0,0
	l-0.4-0.2L55,69.6c-1.5,1.6-3.3,2.4-5.4,2.4h0c-2.1,0-3.9-0.8-5.3-2.4l-0.4-0.4l-0.5,0.4c-0.2,0.1-0.4,0.3-0.5,0.4
	c-0.3,0.3-0.7,0.6-1,0.8c-1.2,0.8-2.6,1.2-4,1.2c-3,0-5.6-1.8-6.7-4.6c-0.3-0.8,0-1.5,0.7-1.8c0.2-0.1,0.3-0.1,0.5-0.1
	c0.5,0,1,0.3,1.2,0.9c0.8,1.9,2.4,3,4.3,3c1,0,1.9-0.3,2.8-1c1.1-0.8,1.7-1.9,1.7-3.2c0-1,0-2,0-3c0-0.4,0-0.9,0-1.3v-0.6h-1.2
	c-1.3,0-2.6,0-3.8,0c-1.3,0-2.6,0-3.8,0c-2.6,0-4.6,0-6.5,0l0,0c-1,0-1.5-0.3-1.8-1v-0.6c0.3-0.7,0.8-1,1.8-1c9.5,0,19,0,27.1,0
	l18.3,0c1.2,0,1.4,0.6,1.5,0.9c0.1,0.4,0.1,0.8-0.1,1.2c-0.2,0.4-0.6,0.6-1.1,0.6c-0.8,0-1.5,0-2.3,0c-0.4,0-0.7,0-1.1,0
	c-0.2,0-0.3,0.1-0.4,0.1c0,0,0,0,0,0l-0.3,0.2V61c0,0.2,0,0.4,0,0.6c0,0.4,0,0.8,0,1.3c0,0.3,0,0.7,0,1c0,0.8,0,1.6-0.2,2.4
	c-0.6,2.8-2.2,4.6-5,5.4C62.6,71.9,61.9,72.1,61.2,72.1z M45.1,61c0,0.4,0,0.8,0,1.2c0,0.9,0,1.8,0,2.7c0,2.6,2,4.6,4.5,4.6
	c2.5,0,4.5-2,4.6-4.6c0-0.9,0-1.8,0-2.7l0-0.8c0-0.1,0-0.2,0-0.3c0,0,0-0.1,0-0.1l-0.1-0.6h-9V61z M56.8,61c0,0.4,0,0.9,0,1.3
	c0,1,0,2,0,3c0.1,2.2,2,4,4.3,4.2c0.1,0,0.2,0,0.2,0c2.2,0,4.1-1.6,4.5-3.7c0.1-0.5,0.1-1,0.1-1.5c0-0.1,0-0.2,0-0.3
	c0-0.7,0-1.4,0-2c0-0.3,0-0.6,0-0.9v-0.6h-9.1V61z"/>
</svg>
