<?xml version="1.0" encoding="utf-8"?>
<!-- Generator: Adobe Illustrator 28.0.0, SVG Export Plug-In . SVG Version: 6.00 Build 0)  -->
<svg version="1.1" id="圖層_1" xmlns="http://www.w3.org/2000/svg" xmlns:xlink="http://www.w3.org/1999/xlink" x="0px" y="0px"
	 viewBox="0 0 80 80" style="enable-background:new 0 0 80 80;" xml:space="preserve">
<g>
	<g>
		<path d="M40.1,16.3l0,3.6c5.4,0,10.4,2.1,14.2,5.9c3.8,3.8,5.9,9,5.9,14.4c0,11.1-9.1,20.1-20.3,20.1c-5.4,0-10.4-2.1-14.3-5.9
			c-3.8-3.8-5.9-8.9-5.9-14.3c0-11.2,9.1-20.2,20.3-20.2L40.1,16.3 M40.1,16.3c-13.2,0-23.8,10.6-23.8,23.8
			c0,13.1,10.7,23.8,23.7,23.8c0,0,0,0,0,0c13.1,0,23.8-10.6,23.8-23.7C63.8,26.9,53.2,16.3,40.1,16.3
			C40.1,16.3,40.1,16.3,40.1,16.3L40.1,16.3z"/>
	</g>
	<g>
		<path d="M71.6,34.2c0.9,0,1.7,0,2.6,0c0.2,0,0.3,0,0.3,0c0,0,0,0,0,0c0,0,0.1,0.1,0.1,0.4c0,3.6,0,7.2,0,10.8c0,0.2,0,0.3,0,0.3
			c0,0-0.1,0-0.3,0c-1.2,0-2.3,0-3.5,0c-0.3,0-0.6,0-1,0c0-1.1,0-2.2,0-3.3l0-2.5l0-2.2c0-1.2,0-2.4,0-3.6
			C70.4,34.2,71,34.2,71.6,34.2L71.6,34.2 M71.6,30.7c-1.4,0-2.8,0-4.2,0c-1,0-1.2,0.2-1.2,1.2c0,2.7,0,5.4,0,8.1c0,2.7,0,5.4,0,8.2
			c0,1,0.2,1.2,1.2,1.2c1.1,0,2.2,0,3.3,0c1.2,0,2.3,0,3.5,0c2.3,0,3.9-1.6,3.9-3.9c0-3.6,0-7.2,0-10.8c0-2.3-1.6-3.9-3.9-3.9
			C73.3,30.7,72.5,30.7,71.6,30.7L71.6,30.7z"/>
	</g>
	<g>
		<path d="M40.4,5.4c1.7,0,3.4,0,5.2,0c0.1,0,0.2,0,0.2,0c0,0,0,0,0,0.2c0,1.4,0,2.9,0,4.3c0,0.1,0,0.1,0,0.2c-0.4,0-0.8,0-1.2,0
			l-2.5,0l-2.1,0l-1.7,0l-3.1,0l-0.9,0c0-1.5,0-3,0-4.5c0-0.2,0-0.2,0-0.3c0,0,0.1,0,0.2,0C36.5,5.5,38.4,5.4,40.4,5.4 M40.4,1.9
			c-2,0-3.9,0-5.9,0c-2.2,0-3.8,1.6-3.8,3.8c0,2.2,0,4.5,0,6.7c0,1.2,0.1,1.3,1.3,1.3c1.1,0,2.1,0,3.2,0c1.6,0,3.2,0,4.8,0
			c1.5,0,3,0,4.6,0c1.2,0,2.5,0,3.7,0c0,0,0,0,0,0c0.7,0,1.1-0.3,1.1-1c0-2.4,0-4.8,0-7.1c0-2.1-1.6-3.7-3.8-3.7
			C43.8,1.9,42.1,1.9,40.4,1.9L40.4,1.9z"/>
	</g>
	<g>
		<path d="M14.8,56.9c2.7,2.7,5.4,5.5,8.2,8.2c-1.1,1.1-2.1,2.1-3.2,3.1c-0.1,0-0.2,0.1-0.3,0.2c0,0,0,0,0,0L18.2,67
			c-2.2-2.2-4.4-4.4-6.6-6.6c-0.1-0.1-0.1-0.1,0-0.3c0.9-0.9,1.8-1.8,2.7-2.7C14.5,57.2,14.6,57.1,14.8,56.9 M14.8,52.2
			c-0.2,0-0.5,0.1-0.8,0.4c-1.6,1.7-3.3,3.3-5,5c-1.5,1.5-1.5,3.8,0,5.3c2.6,2.7,5.3,5.3,7.9,7.9c0.7,0.7,1.6,1,2.6,1.1
			c0,0.1,0.1,0.1,0.1,0.2c0.8-0.4,1.8-0.7,2.5-1.3c1.8-1.6,3.4-3.3,5.1-5c0.5-0.5,0.5-0.9,0-1.5c-3.9-3.9-7.8-7.8-11.7-11.7
			C15.3,52.4,15,52.2,14.8,52.2L14.8,52.2z"/>
	</g>
	<g>
		<path d="M19.7,11.7C19.7,11.7,19.7,11.7,19.7,11.7c0.8,0.8,1.6,1.6,2.5,2.4c0.3,0.3,0.5,0.5,0.8,0.8c-2.7,2.7-5.4,5.4-8.2,8.2
			c-0.1-0.1-0.1-0.1-0.2-0.2c-1-1-2-2-3-3c-0.2-0.2-0.1-0.2,0-0.3c1.9-1.9,3.8-3.9,5.7-5.8l2.1-2.1c0,0,0,0,0,0
			C19.5,11.7,19.5,11.7,19.7,11.7 M19.9,8.1C19.9,8.1,19.9,8.1,19.9,8.1C19.9,8.1,19.9,8.1,19.9,8.1c-1.4,0-2.3,0.4-3,1.1
			c-2.6,2.6-5.3,5.2-7.9,7.9c-1.5,1.5-1.5,3.7,0,5.3c1.6,1.7,3.3,3.3,5,5c0.3,0.3,0.5,0.4,0.8,0.4c0.2,0,0.5-0.1,0.8-0.4
			c3.9-3.9,7.8-7.8,11.7-11.7c0.5-0.5,0.5-0.9,0-1.4c-1.7-1.7-3.4-3.4-5.1-5C21.5,8.5,20.6,8.1,19.9,8.1L19.9,8.1z"/>
	</g>
	<g>
		<path d="M65.1,57.1c0.6,0.6,1.3,1.3,1.9,1.9l1.4,1.4c0,0,0,0,0,0.1c0,0,0,0.1,0,0.1l-1.5,1.6c-2.1,2.1-4.3,4.3-6.4,6.4
			c-0.1,0-0.1,0.1-0.1,0.1c0,0-0.1,0-0.2-0.1c-1-1-2.1-2-3.1-3c-0.1-0.1-0.1-0.1-0.2-0.2C59.8,62.4,62.5,59.7,65.1,57.1 M65.1,52.4
			c-0.3,0-0.5,0.1-0.8,0.4c-3.9,3.9-7.7,7.7-11.6,11.6c-0.6,0.6-0.6,1,0,1.6c1.7,1.7,3.3,3.3,5,5c0.8,0.7,1.7,1.1,2.6,1.1
			c0.9,0,1.8-0.4,2.6-1.1c2.7-2.6,5.3-5.3,8-8c0.7-0.7,1-1.6,1-2.6c0-1-0.4-1.9-1.1-2.6c-1.7-1.7-3.3-3.3-5-5
			C65.6,52.5,65.3,52.4,65.1,52.4L65.1,52.4z"/>
	</g>
	<g>
		<path d="M60.3,11.5C60.3,11.5,60.3,11.5,60.3,11.5c3.3,3.2,5.7,5.6,7.9,7.9c0,0.1,0.1,0.1,0.1,0.2c0,0,0,0,0,0c0,0,0,0-0.1,0.1
			c-0.7,0.7-1.4,1.4-2.1,2.1c-0.4,0.4-0.7,0.7-1.1,1.1c-2.3-2.3-4.6-4.6-6.9-6.9l-1.2-1.2c0,0,0,0,0,0c1.1-1.1,2.2-2.2,3.2-3.2
			C60.2,11.5,60.3,11.5,60.3,11.5 M60.3,7.9c-0.9,0-1.9,0.4-2.6,1.1c-1.7,1.7-3.4,3.4-5.1,5.1c-0.5,0.5-0.5,0.9,0,1.4
			c3.9,3.9,7.9,7.8,11.8,11.8c0.2,0.2,0.5,0.4,0.7,0.4c0.2,0,0.5-0.1,0.7-0.4c1.7-1.7,3.3-3.3,5-5c0.7-0.7,1.1-1.6,1.1-2.7
			c0.1,0,0.1-0.1,0.2-0.1c-0.4-0.8-0.6-1.8-1.2-2.4c-2.6-2.7-5.3-5.4-8-8.1C62.1,8.3,61.2,7.9,60.3,7.9L60.3,7.9z"/>
	</g>
	<g>
		<path d="M35.4,69.8l2.4,0l2.3,0h0.1l0.1,0l2.2,0l2.2,0c0.4,0,0.8,0,1.2,0c0,1.4,0,2.9,0,4.3c0,0.2,0,0.3,0,0.4
			c-0.1,0-0.2,0.1-0.4,0.1c-1.8,0-3.7,0-5.5,0c-1.7,0-3.4,0-5.1,0c-0.2,0-0.3,0-0.4,0c0-0.1-0.1-0.2-0.1-0.4c0-1.4,0-2.8,0-4.3
			C34.6,69.8,35,69.8,35.4,69.8 M35.4,66.2c-1.2,0-2.3,0-3.5,0c-1,0-1.2,0.2-1.2,1.2c0,2.2,0,4.4,0,6.6c0,2.5,1.5,4,4,4
			c1.7,0,3.4,0,5.1,0c1.8,0,3.7,0,5.5,0c2.4,0,4-1.5,4-4c0-2.2,0-4.4,0-6.5c0-1.2-0.1-1.3-1.4-1.3c-1.1,0-2.2,0-3.3,0
			c-1.4,0-2.9,0-4.3,0c-0.1,0-0.1,0-0.2,0C38.5,66.2,36.9,66.2,35.4,66.2L35.4,66.2z"/>
	</g>
	<g>
		<path d="M8.1,34.2c0.5,0,1.1,0,1.6,0c0.2,0,0.3,0,0.5,0c0,1.2,0,2.4,0,3.6l0,2.1l0,1.9c0,1.3,0,2.6,0,3.9c-0.5,0-0.9,0-1.4,0
			c-1,0-2,0-3,0c-0.2,0-0.3,0-0.3,0c0,0,0-0.1,0-0.2c0-3.7,0-7.4,0-11.1c0-0.1,0-0.2,0-0.2c0,0,0,0,0,0c0,0,0.1,0,0.3-0.1
			C6.6,34.2,7.4,34.2,8.1,34.2 M8.1,30.7c-0.8,0-1.6,0-2.4,0c-2.2,0-3.8,1.6-3.8,3.7c0,3.7,0,7.4,0,11.1c0,2.2,1.6,3.7,3.9,3.7
			c1,0,2,0,3,0c1.2,0,2.5,0,3.7,0c1,0,1.2-0.2,1.2-1.2c0-2.7,0-5.4,0-8.2c0-2.7,0-5.4,0-8.2c0-0.8-0.3-1.1-1.1-1.1c0,0,0,0,0,0
			c-0.4,0-0.9,0-1.3,0C10.3,30.7,9.2,30.7,8.1,30.7L8.1,30.7z"/>
	</g>
</g>
</svg>
