<?xml version="1.0" encoding="utf-8"?>
<!-- Generator: Adobe Illustrator 28.0.0, SVG Export Plug-In . SVG Version: 6.00 Build 0)  -->
<svg version="1.1" id="圖層_1" xmlns="http://www.w3.org/2000/svg" xmlns:xlink="http://www.w3.org/1999/xlink" x="0px" y="0px"
	 viewBox="0 0 80 80" style="enable-background:new 0 0 80 80;" xml:space="preserve">
<g>
	<path d="M62.5,77.6c-1.8,0-3.7,0-5.5,0c-0.7,0-1.3-0.2-1.7-0.6c-0.4-0.4-0.6-0.9-0.6-1.5c0-1.3,0.9-2.1,2.3-2.1c0.3,0,0.6,0,0.9,0
		l2.4,0v-7.7H20.5v7.7l2.3,0c0.3,0,0.6,0,0.9,0c1.4,0,2.3,0.9,2.3,2.2c0,1.3-0.9,2.2-2.3,2.2c-1.8,0-3.6,0-5.4,0c-1.8,0-3.7,0-5.5,0
		c-1.4,0-2.3-0.8-2.3-2.1c0-0.7,0.2-1.2,0.6-1.6c0.4-0.4,1-0.6,1.7-0.6c0.3,0,0.6,0,0.8,0l2.3,0v-7.8h-1.7c-1,0-1.9,0-2.9,0
		c-1,0-1.9,0-2.9,0c-1.6,0-2.8,0-4,0c-0.8,0-1.5-0.4-1.9-1.1c-0.4-0.7-0.4-1.5,0-2.2c0.4-0.6,1-1,1.9-1.1l0.8-0.1v-1.6
		c0-0.9,0-1.9,0-2.8c0-2,0-4.1,0-6.1c0-3.1,1.1-6,3-8.3c1.9-2.3,4.5-3.8,7.6-4.4c1-0.2,2-0.3,2.9-0.3c3.7,0,6.9,1.5,9.5,4.5
		c0.1,0.1,0.2,0.2,0.3,0.3l0.8,0.9l0.6-0.8c2.7-3.2,6.1-4.9,10.3-4.9h0c4.2,0,7.6,1.6,10.3,4.9l0.6,0.8l0.7-0.7
		c0.1-0.1,0.2-0.2,0.2-0.3c0.1-0.2,0.3-0.3,0.4-0.5c2.7-2.8,5.8-4.3,9.2-4.3c1.3,0,2.6,0.2,3.9,0.6c5.2,1.5,8.3,4.9,9.4,10.2
		c0.2,0.8,0.2,1.8,0.2,2.6l0,0.2c0,2.2,0,4.4,0,6.5c0,0.9,0,1.7,0,2.6V61l0.7,0.1c0.9,0.2,1.5,0.7,1.9,1.6v1.2
		c-0.5,1-0.9,1.4-1.5,1.5c-0.3,0.1-0.6,0.1-0.9,0.1c-1.7,0-3.3,0-5,0l-5.9,0v7.8l2.3,0c0.3,0,0.6,0,0.9,0c1.4,0,2.3,0.8,2.3,2.1
		c0,0.6-0.2,1.2-0.6,1.6c-0.4,0.4-1,0.6-1.7,0.6C66.2,77.6,64.4,77.6,62.5,77.6z M62.3,42c-1.7,0-3.3,0.5-4.9,1.5
		c-2.5,1.6-3.8,4.1-3.8,7.5c0,2,0,4,0,6c0,0.9,0,1.7,0,2.6v1.6H71l0.1-0.8c0-0.1,0-0.1,0-0.2c0-0.1,0-0.2,0-0.3c0-0.9,0-1.8,0-2.7
		c0-2.1,0-4.3,0-6.4c-0.1-3.6-1.7-6.2-4.6-7.7C65.1,42.3,63.7,42,62.3,42z M18.6,42c-0.6,0-1.2,0.1-1.8,0.2c-4.2,0.8-7,4.2-7,8.7
		c0,2,0,4,0,6c0,0.9,0,1.8,0,2.7v1.6h17.5v-0.9c0-1.1,0-2.2,0-3.3c0-2.4,0.1-4.9-0.1-7.3C26.7,45.3,23.2,42,18.6,42z M40.5,42
		c-0.7,0-1.3,0.1-2,0.2c-4.2,1-6.9,4.3-6.9,8.7c0,2.1,0,4.3,0,6.4c0,0.8,0,1.6,0,2.3c0,0.2,0,0.3,0,0.5c0,0.1,0,0.1,0,0.2l0.1,0.8
		h17.5v-0.9c0-0.3,0-0.6,0-0.8c0-0.6,0-1.2,0-1.7c0-0.8,0-1.6,0-2.4c0-1.9,0-3.8-0.2-5.7C48.6,45.3,45,42,40.5,42z"/>
	<path d="M7.9,17.2c-0.4,0-0.8-0.2-1.3-0.5c-0.6-0.4-0.9-1-0.9-1.8C5.7,8.8,10,3.6,16.2,2.3c0.3-0.1,0.6-0.1,0.9-0.2
		C17.2,2,17.3,2,17.4,2h3c0.1,0.1,0.2,0.1,0.4,0.1c2.3,0.3,4.4,1.2,6.1,2.7c0.5,0.4,1,0.9,1.5,1.4c0.2,0.2,0.5,0.5,0.7,0.7l0.7,0.6
		l0.6-0.7c1.8-2.3,4.2-3.8,7-4.4c0.4-0.1,0.7-0.2,1.1-0.3C38.8,2,38.9,2,39.1,2h3c0.1,0.1,0.2,0.1,0.4,0.1c3.3,0.5,6,1.9,8.1,4.5
		c0.1,0.1,0.2,0.2,0.3,0.3c0,0,0.1,0,0.1,0.1l0.7,0.6l0.6-0.7c1.6-2,3.4-3.3,5.6-4.1c0.6-0.2,1.3-0.4,2-0.5c0.3-0.1,0.6-0.1,0.9-0.2
		h3.1C64,2,64.3,2.1,64.5,2.1c0.6,0.1,1.1,0.3,1.7,0.4c5.6,1.7,9.2,6.5,9.3,12.3c0,1.3-0.9,2.3-2.1,2.3l-0.1,0
		c-1.2,0-2.1-0.9-2.2-2.3c-0.2-4.3-2.7-7.4-6.7-8.3c-0.7-0.2-1.4-0.2-2.1-0.2c-4.4,0-8,3.2-8.5,7.7l0,0.2c0,0.3-0.1,0.6-0.1,0.9
		c-0.1,1.2-1,2-2.2,2l0,0c-1.2,0-2.1-0.9-2.1-2.2c-0.2-4.5-3-7.8-7.4-8.6c-0.4-0.1-0.9-0.1-1.4-0.1c-4.1,0-7.9,3.2-8.5,7.2
		c-0.1,0.5-0.1,1-0.2,1.6c-0.1,1.2-0.9,2.1-2.1,2.1l0,0c-1.2,0-2.1-0.9-2.1-2.1c-0.2-4-2.2-6.9-5.7-8.2c-1-0.4-2-0.6-3.1-0.6
		c-4.7,0-8.5,3.8-8.6,8.7c0,1-0.4,1.6-1.2,2C8.6,17.1,8.3,17.2,7.9,17.2z"/>
	<path d="M7.6,34.9c-0.4,0-0.8-0.1-1.2-0.4c-0.6-0.4-0.9-1-1-1.9c0-3,1-5.9,2.9-8.2c1.9-2.3,4.6-3.9,7.6-4.5c1-0.2,2-0.3,3-0.3
		c3.7,0,6.9,1.5,9.6,4.6c0.1,0.1,0.1,0.1,0.2,0.2l0.1,0.1l0.7,0.7l0.6-0.8c2.4-3,6.3-4.8,10.3-4.8c4,0,7.7,1.7,10,4.7l0.6,0.7
		l0.7-0.6c0.3-0.3,0.6-0.6,0.9-0.9c0.7-0.6,1.3-1.2,2-1.7c2.1-1.5,4.7-2.3,7.3-2.3c6.5,0,12.2,4.8,13.1,11.1
		c0.1,0.6,0.1,1.2,0.1,1.9c0,1.2-0.9,2.2-2.1,2.2l0,0c-1.2,0-2.1-0.9-2.2-2.1c-0.1-2.1-0.7-3.8-1.7-5.2c-1.5-2.2-4.2-3.5-7.1-3.5
		c-0.8,0-1.6,0.1-2.3,0.3c-3.3,0.8-5.8,3.7-6.2,7.2c0,0.2,0,0.4-0.1,0.6c0,0.4-0.1,0.8-0.1,1.1c-0.2,1-1.1,1.7-2.1,1.7
		c-0.1,0-0.2,0-0.2,0c-1.2-0.1-1.9-0.9-1.9-2.1c-0.1-3.5-1.7-6.1-4.7-7.7c-1.3-0.7-2.7-1-4.1-1c-4.7,0-8.5,3.8-8.7,8.6
		c-0.1,1.3-0.9,2.3-2.1,2.3c-0.2,0-0.5,0-0.8-0.1c-1.1-0.4-1.4-1.3-1.5-2.1c-0.2-3.5-1.7-6.1-4.7-7.7c-1.3-0.7-2.7-1-4.1-1
		c-4.8,0-8.6,3.8-8.7,8.6c0,1-0.4,1.6-1.2,2C8.3,34.8,8,34.9,7.6,34.9z"/>
</g>
</svg>
