<?xml version="1.0" encoding="utf-8"?>
<!-- Generator: Adobe Illustrator 28.0.0, SVG Export Plug-In . SVG Version: 6.00 Build 0)  -->
<svg version="1.1" id="圖層_1" xmlns="http://www.w3.org/2000/svg" xmlns:xlink="http://www.w3.org/1999/xlink" x="0px" y="0px"
	 viewBox="0 0 80 80" style="enable-background:new 0 0 80 80;" xml:space="preserve">
<style type="text/css">
	.st0{stroke:#000000;stroke-width:1.2927;stroke-miterlimit:10;}
</style>
<g>
	<path class="st0" d="M71.6,53c-13.7,0-27.5,0-39.2,0L6.3,53c-1.3,0-2-0.7-2-2l0-0.7c0-11.1,0-22.3,0-33.4c0-0.5,0-1.1,0.1-1.7
		C5.3,8.3,10.8,3.3,17.4,3.3c7.3,0,14.6,0,21.9,0s14.6,0,21.9,0c5.9,0,10.9,4,12.5,9.9c0.1,0.5,0.2,1,0.4,1.6c0,0.2,0.1,0.4,0.1,0.7
		v36.2C73.7,52.6,73,53,71.6,53L71.6,53z M24.6,7c-2.3,0-4.6,0-6.9,0C12,7,7.8,11.3,7.8,17.3c0,7.1,0,14.2,0,21.3l0,10.7h29.7l0-5.6
		c0-3,0-6,0-9c0-1.1,0.7-1.9,1.7-1.9c1,0,1.7,0.8,1.7,1.9c0,2,0,3.9,0,5.9l0,2.5v6.2h29.7l0-10.7c0-7.1,0-14.2,0-21.3
		c0-6-4.1-10.3-9.8-10.3c-2.3,0-4.6,0-6.9,0L41,7l0.2,1.3c0,0.2,0.1,0.4,0.1,0.6c0.1,0.4,0.1,0.8,0.2,1.2c1.2,6.8,4.4,12.3,9.4,16.5
		c2,1.7,4.2,3.4,6.2,5c1.1,0.9,2.2,1.7,3.3,2.6c2.1,1.7,3.1,3.8,3.1,6.4c0,0.9-0.7,1.7-1.7,1.7l0,0c-1,0-1.7-0.7-1.8-1.7
		c-0.1-1.5-0.7-2.7-1.8-3.6c-1-0.8-1.9-1.5-2.9-2.3c-1.5-1.2-3-2.4-4.6-3.6c-4.7-3.5-8-7.6-10.3-12.6c-0.1-0.2-0.2-0.3-0.3-0.4
		c0,0,0,0-0.1-0.1l-1-1.3l-0.9,1.8c-0.1,0.2-0.2,0.3-0.2,0.5c-2.1,4.4-5,8.1-8.5,10.9c-2.6,2.1-5.4,4.3-9,7.1
		c-1.3,1-1.9,2.2-1.9,3.7c0,1-0.8,1.7-1.8,1.7l0,0c-0.9,0-1.7-0.8-1.7-1.8c0-2.6,1-4.7,3-6.3c1.1-0.9,2.3-1.8,3.4-2.7
		c0.8-0.6,1.5-1.2,2.3-1.8c0.3-0.3,0.7-0.5,1-0.8c2.3-1.8,4.6-3.6,6.6-6.1c3.4-4.3,5.4-9.2,6-14.7L37.5,7L24.6,7z"/>
	<path class="st0" d="M5.6,76.6c-0.1-0.1-0.2-0.1-0.4-0.2c-0.7-0.4-1.1-1.3-0.9-2.1c0.2-0.8,0.9-1.4,1.7-1.4c0.3,0,0.6,0,0.8,0
		c0.2,0,1.2,0,1.5,0h1.1l0-2.1c0-0.7,0-1.3,0-2c0-3.9,2.9-7.3,6.6-7.7c0.2,0,0.5,0,0.7,0c3.6,0,6.7,2.7,7.3,6.4
		c0.1,0.4,0.1,0.9,0.1,1.4c0,0.7,0,1.3,0,2c0,0.3,0,0.6,0,0.9v1.1h7.8V69c0-3.9,2.5-7.1,6.2-7.8c0.4-0.1,0.8-0.1,1.3-0.1
		c3.4,0,6.6,2.7,7.2,6.3c0.1,0.8,0.1,1.7,0.1,2.6c0,0.4,0,0.9,0,1.3c0,0.1,0,0.2,0,0.3l0,0.2v1.1h7.8l0-2c0-0.7,0-1.3,0-2
		c0-3.9,3-7.3,6.6-7.7c0.2,0,0.5,0,0.7,0c3.6,0,6.7,2.7,7.3,6.4c0.1,0.9,0.2,1.9,0.2,2.9c0,0.5,0,1,0,1.5l0,1.1h1c0.1,0,0.2,0,0.4,0
		c0.2,0,0.3,0,0.5,0c0.2,0,0.4,0,0.6,0c0.1,0,0.3,0,0.4,0c1,0,1.6,0.4,2,1.4v1c-0.3,0.6-0.7,1-1.3,1.3H5.6z M61.7,64.8
		c-1.9,0-3.5,1.5-3.7,3.4c-0.1,0.9-0.1,1.7-0.1,2.6c0,0.3,0,0.7,0,1.1v1.1h7.7v-1.1c0-0.3,0-0.7,0-1c0-0.7,0-1.4,0-2.1
		C65.5,66.6,64,65,62,64.8C61.9,64.8,61.8,64.8,61.7,64.8z M16.7,64.8c-2,0-3.7,1.7-3.8,3.8c0,0.7,0,1.5,0,2.2c0,0.3,0,0.6,0,1v1.1
		h7.7v-1.1c0-0.3,0-0.6,0-1c0-0.7,0-1.4,0-2.2C20.5,66.5,18.8,64.8,16.7,64.8L16.7,64.8z M39.3,64.8c0,0-0.1,0-0.1,0
		c-2.1,0.1-3.7,1.8-3.7,4c0,0.7,0,1.3,0,2c0,0.3,0,0.6,0,0.9v1.1h7.7v-1.1c0-0.3,0-0.6,0-1c0-0.7,0-1.5,0-2.3
		C42.9,66.4,41.2,64.8,39.3,64.8z"/>
	<path class="st0" d="M61.6,24.7c-0.2,0-0.4-0.1-0.6-0.2c-0.6-0.5-1.3-1-1.9-1.4c-2-1.5-4-3-5.6-4.9c-0.4-0.5-0.6-1.2-0.4-1.8
		c0.2-0.6,0.6-1.1,1.2-1.3c0.1,0,0.2,0,0.4-0.1c0.1,0,0.2,0,0.2,0c0,0,0.1,0,0.1,0c0.4,0.1,0.7,0.3,0.9,0.5c1.4,1.1,2.8,2.3,4.1,3.5
		c0.9,0.7,1.8,1.5,2.6,2.2c0.7,0.5,0.9,1.1,0.8,1.9c-0.1,0.8-0.5,1.2-1.3,1.4C62,24.7,61.8,24.7,61.6,24.7z"/>
	<path class="st0" d="M23.8,14c1.2,0,2,0.6,2.5,1.7c0.5,1.1,0.4,2.3-0.4,3.2c-0.9,1-1.9,2-2.9,2.8c-1.4,1.2-2.9,2.3-4.3,3.4
		c-1.4,1.1-3.2,0.9-4.1-0.5c-1-1.4-0.7-3.1,0.7-4.3c1.3-1,2.6-2,3.8-3c0.9-0.7,1.7-1.5,2.5-2.3C22.2,14.4,22.9,14,23.8,14z"/>
</g>
</svg>
