<?xml version="1.0" encoding="utf-8"?>
<!-- Generator: Adobe Illustrator 28.0.0, SVG Export Plug-In . SVG Version: 6.00 Build 0)  -->
<svg version="1.1" id="圖層_1" xmlns="http://www.w3.org/2000/svg" xmlns:xlink="http://www.w3.org/1999/xlink" x="0px" y="0px"
	 viewBox="0 0 124.6 140" style="enable-background:new 0 0 124.6 140;" xml:space="preserve">
<style type="text/css">
	.st0{fill:#FFFFFF;}
	.st1{fill:#8CBB2B;}
	.st2{fill:#168BC9;}
</style>
<path class="st0" d="M37.5,99.6c-1.8,2.7-3.3,5.2-5,7.4c-3.1,4-4.6,8.3-4.3,13.4c0.3,5.6,0.1,11.2,0.1,16.8c0,0.4,0,0.8,0.1,1.1
	c0.3,1.6,1.9,2.1,3.1,1c0.4-0.4,0.8-0.9,1.1-1.4c3.5-5.1,6.9-10.3,10.4-15.4c7.4-10.9,14.8-21.9,22.1-32.8c1.4-2.1,1.9-4.3,0.6-6.6
	c-1.2-2.2-3.4-2.5-5.6-2.5c-8.8,0-17.5,0-26.3,0c-1.8,0-3.6,0-5.4-0.1c-5.4-0.2-9.3-6.1-5.5-11c1.7-2.1,3-4.5,4.6-6.7
	c1.3-1.9,3.1-3.3,5.5-3.5c3-0.2,6.1-0.2,9.1-0.3c4.6-0.1,8.4-1.9,11-5.8c1-1.4,2-2.9,2.9-4.3c1.9-2.8,3.7-5.6,5.7-8.5
	c-0.7-0.1-1.1-0.2-1.5-0.2c-9.4,0-18.7,0-28.1,0c-7.5,0-14.1,2.4-18.8,8.4C9.4,53.6,5.9,59,2.7,64.4C0.6,67.9-0.2,71.9,0.1,76
	c1,13.9,11.4,23.6,25.4,23.6C29.3,99.6,33.2,99.6,37.5,99.6z"/>
<path class="st0" d="M87.2,40.1c2.5-3.8,4.8-7.1,7.1-10.5c1.3-1.9,2.1-4,2.1-6.4c0-3.9,0-7.8,0-11.8c0-3.2,0.1-6.4-0.1-9.6
	c0-0.6-0.7-1.7-1.2-1.8c-0.7-0.2-1.5,0.3-2.2,0.7c-0.3,0.2-0.5,0.7-0.8,1c-6.8,10-13.6,20.1-20.3,30.1c-4.1,6.1-8.3,12.2-12.4,18.4
	c-1.3,1.9-1.6,4.1-0.5,6.2c1.1,2.1,3,2.7,5.3,2.7c10.2,0,20.3,0,30.5,0c0.9,0,1.7,0.1,2.6,0.2c5.1,0.9,7.4,6.1,4.6,10.5
	c-1.4,2.2-3,4.4-4.5,6.6c-1.9,2.8-4.5,4.2-7.8,4.1c-2.4,0-4.9-0.1-7.3,0c-4.3,0.2-7.9,1.8-10.4,5.4c-2.3,3.3-4.6,6.7-6.8,10.1
	c-0.7,1-1.4,2.1-2.2,3.3c0.6,0.1,0.8,0.1,1,0.1c9.9,0,19.8,0.1,29.7,0c6.9-0.1,13.1-2.6,17.4-8.1c3.4-4.3,6.5-8.9,9.5-13.4
	c2.9-4.4,4.4-9.3,3.9-14.7c-0.8-8.4-4.3-15.2-11.6-19.7c-4-2.5-8.4-3.5-13-3.6C95.8,40,91.8,40.1,87.2,40.1z"/>
<path class="st1" d="M37.5,99.6c-4.3,0-8.2,0-12,0C11.5,99.6,1.1,90,0.1,76c-0.3-4.1,0.5-8.1,2.6-11.6C5.9,59,9.4,53.6,13.3,48.6
	c4.7-6,11.3-8.4,18.8-8.4c9.4,0,18.7,0,28.1,0c0.4,0,0.8,0.1,1.5,0.2c-2,3-3.8,5.8-5.7,8.5c-1,1.4-2,2.9-2.9,4.3
	c-2.6,3.9-6.4,5.7-11,5.8c-3,0.1-6.1,0-9.1,0.3c-2.3,0.2-4.1,1.6-5.5,3.5c-1.6,2.2-2.9,4.6-4.6,6.7c-3.7,4.9,0.1,10.8,5.5,11
	c1.8,0.1,3.6,0.1,5.4,0.1c8.8,0,17.5,0,26.3,0c2.3,0,4.4,0.3,5.6,2.5c1.3,2.3,0.8,4.5-0.6,6.6c-7.4,10.9-14.8,21.9-22.1,32.8
	c-3.5,5.1-6.9,10.3-10.4,15.4c-0.3,0.5-0.7,1-1.1,1.4c-1.2,1.1-2.8,0.5-3.1-1c-0.1-0.4-0.1-0.8-0.1-1.1c0-5.6,0.2-11.2-0.1-16.8
	c-0.3-5.1,1.2-9.5,4.3-13.4C34.2,104.8,35.7,102.4,37.5,99.6z"/>
<path class="st2" d="M87.2,40.1c4.5,0,8.6-0.1,12.7,0c4.6,0.1,9,1.1,13,3.6c7.3,4.5,10.8,11.3,11.6,19.7c0.5,5.4-1,10.3-3.9,14.7
	c-3,4.6-6.1,9.2-9.5,13.4c-4.4,5.5-10.5,8-17.4,8.1c-9.9,0.2-19.8,0-29.7,0c-0.2,0-0.4,0-1-0.1c0.8-1.2,1.5-2.3,2.2-3.3
	c2.3-3.4,4.5-6.8,6.8-10.1c2.5-3.6,6.1-5.2,10.4-5.4c2.4-0.1,4.9,0,7.3,0c3.4,0,6-1.3,7.8-4.1c1.5-2.2,3-4.4,4.5-6.6
	c2.8-4.4,0.5-9.6-4.6-10.5c-0.9-0.1-1.7-0.2-2.6-0.2c-10.2,0-20.3,0-30.5,0c-2.3,0-4.2-0.6-5.3-2.7c-1.1-2.1-0.8-4.2,0.5-6.2
	c4.1-6.1,8.2-12.3,12.4-18.4c6.8-10,13.6-20.1,20.3-30.1c0.2-0.4,0.4-0.9,0.8-1c0.7-0.4,1.6-0.9,2.2-0.7c0.5,0.1,1.2,1.1,1.2,1.8
	c0.1,3.2,0.1,6.4,0.1,9.6c0,3.9,0,7.8,0,11.8c0,2.4-0.8,4.5-2.1,6.4C92,33,89.8,36.3,87.2,40.1z"/>
</svg>
