<?xml version="1.0" encoding="utf-8"?>
<!-- Generator: Adobe Illustrator 28.0.0, SVG Export Plug-In . SVG Version: 6.00 Build 0)  -->
<svg version="1.1" id="圖層_1" xmlns="http://www.w3.org/2000/svg" xmlns:xlink="http://www.w3.org/1999/xlink" x="0px" y="0px"
	 viewBox="0 0 55 49.7" style="enable-background:new 0 0 55 49.7;" xml:space="preserve">
<style type="text/css">
	.st0{fill:url(#SVGID_1_);}
	.st1{fill:url(#SVGID_00000067919111803090184640000005138621032649479861_);}
	.st2{fill:url(#SVGID_00000109743537882001356450000007833153103209942658_);}
	.st3{fill:url(#SVGID_00000109021564389595836680000007756298838054136975_);}
	.st4{fill:url(#SVGID_00000174587103975675121730000001651756418797004185_);}
	.st5{fill:url(#SVGID_00000100375080143579476540000003742846536025718448_);}
	.st6{fill:url(#SVGID_00000090256409191628285580000009779743399926660504_);}
	.st7{fill:url(#SVGID_00000045609512901349432440000008448851109503100813_);}
	.st8{fill:url(#SVGID_00000045606621904399446260000016539708854925892771_);}
	.st9{fill:url(#SVGID_00000146491503151588988440000001995465923434923701_);}
	.st10{fill:url(#SVGID_00000095301455911754842200000010527870406371136911_);}
	.st11{fill:url(#SVGID_00000181795470755528682830000007182085991827084175_);}
	.st12{fill:url(#SVGID_00000035524023747781563430000000521006760438132112_);}
	.st13{fill:url(#SVGID_00000028287543880119628230000000770794201551532686_);}
	.st14{fill:url(#SVGID_00000033347850745904312180000012331614296665316768_);}
	.st15{fill:url(#SVGID_00000005247727568373362870000009435789345514134662_);}
</style>
<g>
	<g>
		
			<radialGradient id="SVGID_1_" cx="-2286.9841" cy="33.09" r="3.8854" gradientTransform="matrix(-1 0 0 -1 -2236.666 49.89)" gradientUnits="userSpaceOnUse">
			<stop  offset="0" style="stop-color:#446791"/>
			<stop  offset="1" style="stop-color:#163382"/>
		</radialGradient>
		<polygon class="st0" points="47.5,13.1 48.4,12.1 53.2,16.8 48.5,21.5 47.5,20.5 51.2,16.8 		"/>
		
			<linearGradient id="SVGID_00000170246593048901381180000010362456103023433905_" gradientUnits="userSpaceOnUse" x1="-9559.833" y1="33.74" x2="-9564.2334" y2="33.74" gradientTransform="matrix(1 0 0 -1 9614.8271 49.89)">
			<stop  offset="0" style="stop-color:#F6C947"/>
			<stop  offset="1" style="stop-color:#F3971A"/>
		</linearGradient>
		<path style="fill:url(#SVGID_00000170246593048901381180000010362456103023433905_);" d="M52.8,21.1L52.8,21.1
			c-1.2,0-2.2-1-2.2-2.2v-5.5c0-1.2,1-2.2,2.2-2.2l0,0c1.2,0,2.2,1,2.2,2.2v5.5C55,20.1,54,21.1,52.8,21.1z"/>
	</g>
	<g>
		
			<radialGradient id="SVGID_00000079478420662667063560000017130967334127302577_" cx="4.6756" cy="33.09" r="3.8854" gradientTransform="matrix(1 0 0 -1 0 49.89)" gradientUnits="userSpaceOnUse">
			<stop  offset="0" style="stop-color:#446791"/>
			<stop  offset="1" style="stop-color:#163382"/>
		</radialGradient>
		<polygon style="fill:url(#SVGID_00000079478420662667063560000017130967334127302577_);" points="7.5,13.1 6.5,12.1 1.8,16.8 
			6.5,21.5 7.5,20.5 3.8,16.8 		"/>
		
			<linearGradient id="SVGID_00000122685873759319103320000010126662691904282513_" gradientUnits="userSpaceOnUse" x1="-11851.4932" y1="33.74" x2="-11855.8936" y2="33.74" gradientTransform="matrix(-1 0 0 -1 -11851.4932 49.89)">
			<stop  offset="0" style="stop-color:#F6C947"/>
			<stop  offset="1" style="stop-color:#F3971A"/>
		</linearGradient>
		<path style="fill:url(#SVGID_00000122685873759319103320000010126662691904282513_);" d="M2.2,21.1L2.2,21.1c1.2,0,2.2-1,2.2-2.2
			v-5.5c0-1.2-1-2.2-2.2-2.2l0,0c-1.2,0-2.2,1-2.2,2.2v5.5C0,20.1,1,21.1,2.2,21.1z"/>
	</g>
	
		<linearGradient id="SVGID_00000062884656495610830710000008910761046139848861_" gradientUnits="userSpaceOnUse" x1="5.9" y1="29.44" x2="58.17" y2="29.44" gradientTransform="matrix(1 0 0 -1 0 49.89)">
		<stop  offset="0" style="stop-color:#F6C947"/>
		<stop  offset="1" style="stop-color:#F3971A"/>
	</linearGradient>
	<path style="fill:url(#SVGID_00000062884656495610830710000008910761046139848861_);" d="M49.2,40.9H5.9V10.4
		C5.9,4.7,10.5,0,16.3,0h22.5c5.7,0,10.4,4.7,10.4,10.4C49.2,10.4,49.2,40.9,49.2,40.9z"/>
	<g>
		
			<linearGradient id="SVGID_00000037682360390774270330000017339543206661234333_" gradientUnits="userSpaceOnUse" x1="16" y1="0.2476" x2="16" y2="10.2326" gradientTransform="matrix(1 0 0 -1 0 49.89)">
			<stop  offset="0" style="stop-color:#163382"/>
			<stop  offset="1" style="stop-color:#446791"/>
		</linearGradient>
		<path style="fill:url(#SVGID_00000037682360390774270330000017339543206661234333_);" d="M16,49.6L16,49.6c-1.6,0-3-1.3-3-3v-4.1
			c0-1.6,1.3-3,3-3l0,0c1.6,0,3,1.3,3,3v4.1C19,48.3,17.7,49.6,16,49.6z"/>
		
			<linearGradient id="SVGID_00000170982691877776964170000008441159825724339131_" gradientUnits="userSpaceOnUse" x1="39" y1="0.238" x2="39" y2="10.223" gradientTransform="matrix(1 0 0 -1 0 49.89)">
			<stop  offset="0" style="stop-color:#163382"/>
			<stop  offset="1" style="stop-color:#446791"/>
		</linearGradient>
		<path style="fill:url(#SVGID_00000170982691877776964170000008441159825724339131_);" d="M39,49.7L39,49.7c-1.6,0-3-1.3-3-3v-4.1
			c0-1.6,1.3-3,3-3l0,0c1.6,0,3,1.3,3,3v4.1C42,48.3,40.6,49.7,39,49.7z"/>
	</g>
	
		<linearGradient id="SVGID_00000003799372670740704600000014577754209836518816_" gradientUnits="userSpaceOnUse" x1="27.4542" y1="7.2535" x2="27.4542" y2="10.7155" gradientTransform="matrix(1 0 0 -1 0 49.89)">
		<stop  offset="0" style="stop-color:#F5B018"/>
		<stop  offset="1" style="stop-color:#F6C947"/>
	</linearGradient>
	<path style="fill:url(#SVGID_00000003799372670740704600000014577754209836518816_);" d="M49.1,42.6H5.9c-1,0-1.7-0.8-1.7-1.7l0,0
		c0-1,0.8-1.7,1.7-1.7H49c1,0,1.7,0.8,1.7,1.7l0,0C50.8,41.9,50,42.6,49.1,42.6z"/>
	
		<radialGradient id="SVGID_00000055699592633723096240000012791618600543412621_" cx="5.8656" cy="42.5301" r="36.9059" gradientTransform="matrix(1 0 0 -1 0 49.89)" gradientUnits="userSpaceOnUse">
		<stop  offset="0" style="stop-color:#446791"/>
		<stop  offset="1" style="stop-color:#163382"/>
	</radialGradient>
	
		<rect x="5.9" y="7.2" style="fill:url(#SVGID_00000055699592633723096240000012791618600543412621_);" width="43.3" height="20.8"/>
	<g>
		
			<linearGradient id="SVGID_00000131332676861227303840000004890309338108636595_" gradientUnits="userSpaceOnUse" x1="18.6193" y1="17.59" x2="36.4193" y2="17.59" gradientTransform="matrix(1 0 0 -1 0 49.89)">
			<stop  offset="0" style="stop-color:#163382"/>
			<stop  offset="1" style="stop-color:#446791"/>
		</linearGradient>
		
			<rect x="18.6" y="31.6" style="fill:url(#SVGID_00000131332676861227303840000004890309338108636595_);" width="17.8" height="1.4"/>
	</g>
	<g>
		
			<linearGradient id="SVGID_00000142165410705071690420000012774954375142853765_" gradientUnits="userSpaceOnUse" x1="18.6193" y1="15.29" x2="36.4193" y2="15.29" gradientTransform="matrix(1 0 0 -1 0 49.89)">
			<stop  offset="0" style="stop-color:#163382"/>
			<stop  offset="1" style="stop-color:#446791"/>
		</linearGradient>
		
			<rect x="18.6" y="33.9" style="fill:url(#SVGID_00000142165410705071690420000012774954375142853765_);" width="17.8" height="1.4"/>
	</g>
	<g>
		
			<linearGradient id="SVGID_00000113343637232766860220000010806897575081426588_" gradientUnits="userSpaceOnUse" x1="18.6193" y1="12.99" x2="36.4193" y2="12.99" gradientTransform="matrix(1 0 0 -1 0 49.89)">
			<stop  offset="0" style="stop-color:#163382"/>
			<stop  offset="1" style="stop-color:#446791"/>
		</linearGradient>
		
			<rect x="18.6" y="36.2" style="fill:url(#SVGID_00000113343637232766860220000010806897575081426588_);" width="17.8" height="1.4"/>
	</g>
	<g>
		
			<linearGradient id="SVGID_00000034779429711723944300000009698813343668220071_" gradientUnits="userSpaceOnUse" x1="5.9151" y1="-467.0904" x2="13.7363" y2="-467.0904" gradientTransform="matrix(1.0039 0 0 -1.0039 2.7139 -434.3121)">
			<stop  offset="0" style="stop-color:#F5B018"/>
			<stop  offset="1" style="stop-color:#F6C947"/>
		</linearGradient>
		<circle style="fill:url(#SVGID_00000034779429711723944300000009698813343668220071_);" cx="12.6" cy="34.6" r="3.9"/>
		
			<linearGradient id="SVGID_00000117655363097529545490000001546116039644063632_" gradientUnits="userSpaceOnUse" x1="6.8797" y1="-467.0904" x2="12.7717" y2="-467.0904" gradientTransform="matrix(1.0039 0 0 -1.0039 2.7139 -434.3121)">
			<stop  offset="0" style="stop-color:#446791"/>
			<stop  offset="1" style="stop-color:#163382"/>
		</linearGradient>
		<path style="fill:url(#SVGID_00000117655363097529545490000001546116039644063632_);" d="M12.6,31.6c1.6,0,3,1.3,3,3
			c0,1.6-1.3,3-3,3c-1.6,0-3-1.3-3-3C9.6,32.9,10.9,31.6,12.6,31.6z"/>
	</g>
	<g>
		
			<linearGradient id="SVGID_00000047028379541691862080000010031621323212353688_" gradientUnits="userSpaceOnUse" x1="35.234" y1="-467.0904" x2="43.0552" y2="-467.0904" gradientTransform="matrix(1.0039 0 0 -1.0039 2.7139 -434.3121)">
			<stop  offset="0" style="stop-color:#F5B018"/>
			<stop  offset="1" style="stop-color:#F6C947"/>
		</linearGradient>
		<circle style="fill:url(#SVGID_00000047028379541691862080000010031621323212353688_);" cx="42" cy="34.6" r="3.9"/>
		
			<linearGradient id="SVGID_00000005242480698992079120000008824701391950454918_" gradientUnits="userSpaceOnUse" x1="36.1986" y1="-467.0904" x2="42.0906" y2="-467.0904" gradientTransform="matrix(1.0039 0 0 -1.0039 2.7139 -434.3121)">
			<stop  offset="0" style="stop-color:#446791"/>
			<stop  offset="1" style="stop-color:#163382"/>
		</linearGradient>
		<path style="fill:url(#SVGID_00000005242480698992079120000008824701391950454918_);" d="M42,31.6c1.6,0,3,1.3,3,3
			c0,1.6-1.3,3-3,3c-1.6,0-3-1.3-3-3C39.1,32.9,40.4,31.6,42,31.6z"/>
	</g>
</g>
</svg>
