<?xml version="1.0" encoding="utf-8"?>
<!-- Generator: Adobe Illustrator 28.0.0, SVG Export Plug-In . SVG Version: 6.00 Build 0)  -->
<svg version="1.1" id="圖層_1" xmlns="http://www.w3.org/2000/svg" xmlns:xlink="http://www.w3.org/1999/xlink" x="0px" y="0px"
	 viewBox="0 0 71.9 50.4" style="enable-background:new 0 0 71.9 50.4;" xml:space="preserve">
<style type="text/css">
	.st0{fill:url(#SVGID_1_);}
	.st1{fill:url(#SVGID_00000181788612123252457510000008225151169733178793_);}
	.st2{fill:url(#SVGID_00000044154468409357495620000014547717571993257918_);}
	.st3{fill:url(#SVGID_00000082362848628192201270000014903754380402816411_);}
	.st4{fill:url(#SVGID_00000085234286271165428520000016083950872460525236_);}
	.st5{fill:url(#SVGID_00000062911383456488774910000014311056921090529177_);}
	.st6{fill:url(#SVGID_00000034767811272605724950000014124886736235337906_);}
	.st7{fill:url(#SVGID_00000047745324946317143210000003804145306875303834_);}
	.st8{fill:url(#SVGID_00000125579927765437212710000015153961740060225199_);}
	.st9{fill:url(#SVGID_00000181068239193865071940000007613689774314915717_);}
</style>
<g>
	<linearGradient id="SVGID_1_" gradientUnits="userSpaceOnUse" x1="12.3673" y1="50.3504" x2="12.3673" y2="31.1753">
		<stop  offset="0" style="stop-color:#1A338C"/>
		<stop  offset="1" style="stop-color:#456A97"/>
	</linearGradient>
	<path class="st0" d="M12.4,50.4L12.4,50.4c-3.6,0-6.5-2.9-6.5-6.5v-6.2c0-3.6,2.9-6.5,6.5-6.5h0c3.6,0,6.5,2.9,6.5,6.5v6.2
		C18.9,47.4,16,50.4,12.4,50.4z"/>
	
		<linearGradient id="SVGID_00000055677472496939910860000006283120374647682721_" gradientUnits="userSpaceOnUse" x1="59.9922" y1="50.3689" x2="59.9922" y2="31.1937">
		<stop  offset="0" style="stop-color:#1A338C"/>
		<stop  offset="1" style="stop-color:#456A97"/>
	</linearGradient>
	<path style="fill:url(#SVGID_00000055677472496939910860000006283120374647682721_);" d="M60,50.4L60,50.4c-3.6,0-6.5-2.9-6.5-6.5
		v-6.2c0-3.6,2.9-6.5,6.5-6.5h0c3.6,0,6.5,2.9,6.5,6.5v6.2C66.5,47.5,63.6,50.4,60,50.4z"/>
</g>
<linearGradient id="SVGID_00000182509929489083088280000007042701836247699627_" gradientUnits="userSpaceOnUse" x1="36.1797" y1="38.764" x2="36.1797" y2="18.0395">
	<stop  offset="0" style="stop-color:#FF9B00"/>
	<stop  offset="1" style="stop-color:#FFCF42"/>
</linearGradient>
<path style="fill:url(#SVGID_00000182509929489083088280000007042701836247699627_);" d="M63.8,38.8H8.5c-4.3,0-7.7-3.5-7.7-7.7
	v-5.3c0-4.3,3.5-7.7,7.7-7.7h55.3c4.3,0,7.7,3.5,7.7,7.7v5.3C71.6,35.3,68.1,38.8,63.8,38.8z"/>
<g>
	
		<linearGradient id="SVGID_00000160167554430149533040000000448366518504724156_" gradientUnits="userSpaceOnUse" x1="36.1797" y1="18.0395" x2="36.1797" y2="0">
		<stop  offset="0" style="stop-color:#FFCF42"/>
		<stop  offset="1" style="stop-color:#FF9B00"/>
	</linearGradient>
	<path style="fill:url(#SVGID_00000160167554430149533040000000448366518504724156_);" d="M66.9,18H5.4l7.1-14.2
		c1-2.3,3.9-3.8,7.2-3.8h32.9c3.3,0,6.2,1.5,7.2,3.8L66.9,18z"/>
</g>
<g>
	
		<radialGradient id="SVGID_00000071561413555967847250000004724146434189900956_" cx="18.15" cy="9.0197" r="36.9841" gradientUnits="userSpaceOnUse">
		<stop  offset="0" style="stop-color:#456A97"/>
		<stop  offset="1" style="stop-color:#1A338C"/>
	</radialGradient>
	<path style="fill:url(#SVGID_00000071561413555967847250000004724146434189900956_);" d="M62.9,15.9H9.5L15.7,5
		c0.9-1.7,3.4-2.9,6.3-2.9h28.5c2.8,0,5.3,1.2,6.3,2.9L62.9,15.9z"/>
</g>
<linearGradient id="SVGID_00000140727406903782507910000017121241766278771084_" gradientUnits="userSpaceOnUse" x1="11.2833" y1="31.9047" x2="11.2833" y2="26.3784">
	<stop  offset="0" style="stop-color:#1A338C"/>
	<stop  offset="1" style="stop-color:#456A97"/>
</linearGradient>
<path style="fill:url(#SVGID_00000140727406903782507910000017121241766278771084_);" d="M17.6,31.9H5c-1.5,0-2.8-1.2-2.8-2.8l0,0
	c0-1.5,1.2-2.8,2.8-2.8h12.5c1.5,0,2.8,1.2,2.8,2.8l0,0C20.3,30.7,19.1,31.9,17.6,31.9z"/>
<radialGradient id="SVGID_00000079468309449363480370000012158521955350315691_" cx="24.8211" cy="-184.7806" r="18.5333" gradientTransform="matrix(1 0 0 0.8622 0 184.1067)" gradientUnits="userSpaceOnUse">
	<stop  offset="0" style="stop-color:#456A97"/>
	<stop  offset="1" style="stop-color:#1A338C"/>
</radialGradient>
<path style="fill:url(#SVGID_00000079468309449363480370000012158521955350315691_);" d="M46.3,33.6H26.1c-0.9,0-1.7-0.8-1.7-1.7
	v-5.5c0-0.9,0.8-1.7,1.7-1.7h20.2c0.9,0,1.7,0.8,1.7,1.7v5.5C48,32.8,47.2,33.6,46.3,33.6z"/>
<linearGradient id="SVGID_00000124850664758823553410000010554594509013867959_" gradientUnits="userSpaceOnUse" x1="61.0762" y1="31.9047" x2="61.0762" y2="26.3784">
	<stop  offset="0" style="stop-color:#1A338C"/>
	<stop  offset="1" style="stop-color:#456A97"/>
</linearGradient>
<path style="fill:url(#SVGID_00000124850664758823553410000010554594509013867959_);" d="M67.4,31.9H54.8c-1.5,0-2.8-1.2-2.8-2.8
	l0,0c0-1.5,1.2-2.8,2.8-2.8h12.5c1.5,0,2.8,1.2,2.8,2.8l0,0C70.1,30.7,68.9,31.9,67.4,31.9z"/>
<linearGradient id="SVGID_00000053526180710796167370000014865804922990361750_" gradientUnits="userSpaceOnUse" x1="65.4077" y1="13.8884" x2="71.5923" y2="13.8884">
	<stop  offset="0" style="stop-color:#FFCF42"/>
	<stop  offset="1" style="stop-color:#FF9B00"/>
</linearGradient>
<path style="fill:url(#SVGID_00000053526180710796167370000014865804922990361750_);" d="M65,15.9h6.2c0.4,0,0.7-0.3,0.7-0.7v-2.7
	c0-0.4-0.3-0.7-0.7-0.7H66c-0.3,0-0.5,0.2-0.6,0.4l-1,2.7C64.2,15.4,64.5,15.9,65,15.9z"/>
<linearGradient id="SVGID_00000021809998573553895560000010742175667053536183_" gradientUnits="userSpaceOnUse" x1="-6653.9253" y1="13.8884" x2="-6647.7407" y2="13.8884" gradientTransform="matrix(-1 0 0 1 -6647.4727 0)">
	<stop  offset="0" style="stop-color:#FFCF42"/>
	<stop  offset="1" style="stop-color:#FF9B00"/>
</linearGradient>
<path style="fill:url(#SVGID_00000021809998573553895560000010742175667053536183_);" d="M6.9,15.9H0.7c-0.4,0-0.7-0.3-0.7-0.7v-2.7
	c0-0.4,0.3-0.7,0.7-0.7h5.2c0.3,0,0.5,0.2,0.6,0.4l1,2.7C7.6,15.4,7.3,15.9,6.9,15.9z"/>
</svg>
