<?xml version="1.0" encoding="utf-8"?>
<!-- Generator: Adobe Illustrator 28.0.0, SVG Export Plug-In . SVG Version: 6.00 Build 0)  -->
<svg version="1.1" id="圖層_1" xmlns="http://www.w3.org/2000/svg" xmlns:xlink="http://www.w3.org/1999/xlink" x="0px" y="0px"
	 viewBox="0 0 16.8 8.9" style="enable-background:new 0 0 16.8 8.9;" xml:space="preserve">
<style type="text/css">
	.st0{fill:#DB5009;}
	.st1{fill:#938874;}
</style>
<g>
	<path class="st0" d="M4.2,6.1c0.1-0.2,0-0.2-0.1-0.2c-1.7,0-3.1,1-4,1.8c0,0,0,0.1,0,0.1c1-0.8,2-1,3.4-1.2C3.8,6.5,4,6.3,4.2,6.1z
		"/>
	<path class="st0" d="M4.6,4.7c0.1-0.2-0.1-0.2-0.1-0.2c-1.7,0.1-3.1,1.2-4,2.1c0,0,0,0.1,0.1,0.1c0.9-0.9,1.9-1.2,3.3-1.4
		C4.1,5.1,4.5,4.9,4.6,4.7z"/>
	<path class="st0" d="M5,3.3c0.1-0.2-0.1-0.2-0.2-0.2C3.1,3.2,1.7,4.4,0.9,5.3c0,0,0,0.1,0.1,0.1c0.9-0.9,1.9-1.2,3.2-1.5
		C4.5,3.8,4.9,3.5,5,3.3z"/>
	<path class="st0" d="M3.3,2.5C3.4,2.2,3.2,2.3,3,2.4C2.5,2.7,2.2,3.1,1.3,4c0,0,0,0.1,0.1,0.1c0.8-0.8,1.2-0.8,1.5-1
		C3.2,2.8,3.2,2.7,3.3,2.5z"/>
	<path class="st1" d="M10.1,7.7c-1-0.5-1.9-0.8-3-1.1C7,6.6,7,6.5,7.1,6.5c0.7,0,2.4,0.3,3.7,0.7c1.7,0.5,3.2,1.4,3.7,1.5
		c0.1,0,0,0.1,0,0.1C13.1,9.2,11.4,8.3,10.1,7.7z"/>
	<path class="st1" d="M10.8,6.2c-1-0.4-2.1-0.7-3.2-0.9c-0.1,0-0.1-0.1,0-0.1c0.7-0.1,2.5,0.2,3.9,0.5c1.7,0.4,3.3,1.2,3.8,1.3
		c0.1,0,0,0.1,0,0.1C14,7.5,12.2,6.8,10.8,6.2z"/>
	<path class="st1" d="M11.4,4.7C10.4,4.3,9.3,4.1,8.1,4c-0.1,0-0.1-0.1,0-0.1c0.7-0.1,2.5,0,3.9,0.3c1.7,0.3,3.5,1,4,1.1
		c0.1,0,0.1,0,0,0.1C14.7,5.8,12.8,5.1,11.4,4.7z"/>
	<path class="st1" d="M12.6,3.2c-1.1-0.3-0.9-0.3-2-0.5c-0.1,0-0.1-0.1,0-0.1c0.8-0.1,1.4,0,2.8,0.2c1.7,0.3,2.8,0.7,3.4,0.7
		c0.1,0,0.1,0,0,0.1C15.5,4.1,14,3.7,12.6,3.2z"/>
	<path class="st0" d="M3.8,1.9C3.8,1.9,3.8,1.8,3.8,1.9c0.6-0.5,4.4-3.5,9.7-0.7c0,0,0,0.1,0,0.1C10.4,0.6,6.9,0.2,3.8,1.9z"/>
</g>
</svg>
